<svg xmlns="http://www.w3.org/2000/svg" width="30" height="30" viewBox="0 0 30 30">
  <g id="agreement-bussiness-hands-svgrepo-com" transform="translate(-58.4 -65.4)">
    <path id="Path_2343" data-name="Path 2343" d="M88.4,197.334,84.417,188.3,80.1,190.279l.289.66a6.192,6.192,0,0,1-2.957.2,6.218,6.218,0,0,0-2.007,0,6.122,6.122,0,0,0-1.543.473,5.139,5.139,0,0,0-.669.365l-1.923.962a6.959,6.959,0,0,0-.889-.109,6.35,6.35,0,0,1-2.888-.815l.41-.574L64.07,188.61l-5.67,8.04,3.838,2.825.41-.574a6.476,6.476,0,0,1,1.672,2.538c.03.085.061.163.1.248l-.486.683a1.57,1.57,0,0,0,.342,2.157,1.46,1.46,0,0,0,.714.279c0,.078.008.155.015.233a1.591,1.591,0,0,0,.608,1.009,1.472,1.472,0,0,0,.882.295.72.72,0,0,0,.129-.008,1.558,1.558,0,0,0,.585.885,1.506,1.506,0,0,0,.882.295,1.4,1.4,0,0,0,.471-.078,1.5,1.5,0,0,0,.486.605,1.472,1.472,0,0,0,.882.295,1.235,1.235,0,0,0,.243-.023,1.512,1.512,0,0,0,.988-.621l.3-.435,1.452.854a1.6,1.6,0,0,0,.821.225,1.546,1.546,0,0,0,1.186-.543,1.694,1.694,0,0,0,.35-.691,1.871,1.871,0,0,0,.927.07,1.921,1.921,0,0,0,1.269-.807,2.032,2.032,0,0,0,.357-.962,1.841,1.841,0,0,0-.008-.458,1.916,1.916,0,0,0,1.391-.706,2,2,0,0,0,.448-1.273,1.235,1.235,0,0,0,.334-.023,1.556,1.556,0,0,0,1.026-.652,2.134,2.134,0,0,0,.372-1,.134.134,0,0,1,.008-.054c.106-.14.205-.287.3-.435a6.4,6.4,0,0,1,2.105-2.126l.281.629Zm-1.406-.551-2.371,1.087-3.109-7.055,2.371-1.087Zm-22.681-6.651,2.113,1.552-4.256,6.022-.175.248L59.882,196.4Zm.486,12.875.661-.939.038-.054a.455.455,0,0,1,.289-.186c.023,0,.046-.008.061-.008h.015a.164.164,0,0,1,.061.008h.015a.19.19,0,0,1,.053.016h.015c.015.008.038.016.053.023s.008.008.015.008.038.023.053.031a.5.5,0,0,1,.122.132.6.6,0,0,1,.068.225v.062h0a.149.149,0,0,1-.015.062.4.4,0,0,1-.038.1.338.338,0,0,0-.03.054h0l-.7.993a.455.455,0,0,1-.289.186.428.428,0,0,1-.334-.078A.453.453,0,0,1,64.8,203.007Zm1.444,2.165a.466.466,0,0,1-.182-.295.451.451,0,0,1,.076-.341l1.566-2.22a.455.455,0,0,1,.289-.186c.023,0,.046-.008.068-.008h.015a.164.164,0,0,1,.061.008h.008a.139.139,0,0,1,.053.016H68.2a.369.369,0,0,1,.053.023c.008,0,.008.008.015.008s.038.023.053.031a.464.464,0,0,1,.182.419c0,.023-.008.039-.008.062,0,.008-.008.016-.008.023s-.008.023-.008.031-.008.016-.008.023-.008.023-.015.031a.041.041,0,0,0-.015.031c-.008.008-.008.016-.015.023h0l-1.566,2.22a.431.431,0,0,1-.623.1Zm1.589,1.172a.464.464,0,0,1-.1-.636l1.566-2.22h0a.388.388,0,0,1,.053-.062l.015-.016a.422.422,0,0,1,.061-.047c.008,0,.008-.008.015-.008.023-.008.038-.023.061-.031.008,0,.008,0,.008-.008.023-.008.046-.016.076-.023a.028.028,0,0,0,.023-.008h.061a.206.206,0,0,1,.068.008h0a.141.141,0,0,1,.061.016h.008l.061.023a.007.007,0,0,1,.008.008c.015.008.038.023.053.031a.477.477,0,0,1,.167.241.462.462,0,0,1,.015.178.508.508,0,0,1-.084.225l-1.566,2.22A.446.446,0,0,1,67.832,206.344Zm2.174.893a.428.428,0,0,1-.334-.078.466.466,0,0,1-.182-.295.451.451,0,0,1,.076-.341l.7-.993c.015-.016.023-.031.038-.047l.023-.023c.015-.016.03-.023.046-.039s.015-.016.023-.016.038-.016.053-.023.015-.008.023-.016l.084-.023c.023,0,.046-.008.061-.008h.015a.164.164,0,0,1,.061.008h.015a.19.19,0,0,1,.053.016h.008c.015.008.038.016.053.023s.008.008.015.008.038.023.053.031a.464.464,0,0,1,.182.419.508.508,0,0,1-.084.225l-.684.993A.46.46,0,0,1,70.006,207.236Zm10.329-6.046h0a.969.969,0,0,1-.175.473.5.5,0,0,1-.334.21.474.474,0,0,1-.38-.093l-.593-.435h0l-1.163-.854a.528.528,0,0,0-.745.124.554.554,0,0,0,.122.761l1.163.854h0a.922.922,0,0,1,.365.621.935.935,0,0,1-.2.7.918.918,0,0,1-1.247.132l-.114-.085-.008-.008h0l-1.437-1.055a.528.528,0,0,0-.745.124.554.554,0,0,0,.122.761l1.437,1.055h0a.927.927,0,0,1,.357.83.859.859,0,0,1-.16.435.88.88,0,0,1-.578.365.842.842,0,0,1-.661-.163l-.7-.512a.007.007,0,0,1-.008-.008l-1.361-1a.528.528,0,0,0-.745.124.554.554,0,0,0,.122.761l1.361,1h0a.523.523,0,0,1,.205.365.574.574,0,0,1-.122.411.529.529,0,0,1-.676.085l-1.391-.823h0a.146.146,0,0,0,.015-.054c.008-.016.008-.031.015-.039s.008-.039.015-.054.008-.023.008-.039.008-.047.015-.062.008-.023.008-.039c.008-.031.008-.07.015-.1a1.565,1.565,0,0,0-.623-1.412.99.99,0,0,0-.114-.078c-.015-.008-.023-.016-.038-.023-.03-.016-.053-.031-.084-.047l-.046-.023c-.023-.008-.053-.023-.084-.031a.108.108,0,0,0-.053-.016c-.008,0-.023-.008-.03-.008v-.008a.542.542,0,0,0,.023-.062c.008-.016.008-.023.015-.039a.186.186,0,0,0,.015-.062c0-.016.008-.023.008-.039s.008-.047.015-.07c0-.008.008-.023.008-.031.008-.031.008-.07.015-.1h0a1.548,1.548,0,0,0-.54-1.343.532.532,0,0,0-.076-.062,1.068,1.068,0,0,0-.122-.078c-.015-.008-.023-.016-.038-.023l-.091-.047a.126.126,0,0,0-.038-.016c-.03-.016-.061-.023-.1-.039-.015-.008-.023-.008-.038-.016-.038-.008-.068-.023-.106-.031-.008,0-.023-.008-.03-.008l-.114-.023h-.023a.639.639,0,0,0-.122-.008h-.175c0-.008-.008-.016-.008-.023l-.023-.093c0-.016-.008-.023-.015-.039a.483.483,0,0,0-.038-.093.027.027,0,0,0-.008-.015.712.712,0,0,0-.053-.109c-.008-.008-.008-.016-.015-.031s-.03-.054-.046-.078c-.008-.008-.015-.023-.023-.031a.814.814,0,0,0-.061-.085l-.008-.008c-.023-.031-.053-.062-.076-.093l-.023-.023a.494.494,0,0,0-.068-.062.1.1,0,0,0-.03-.023,1.114,1.114,0,0,0-.1-.078,1.464,1.464,0,0,0-1.125-.272.634.634,0,0,0-.129.031c-.008,0-.023.008-.03.008a.657.657,0,0,0-.114.039c-.008,0-.008,0-.015.008a.833.833,0,0,0-.122.054c-.008.008-.023.008-.03.016-.03.016-.068.039-.1.054a.026.026,0,0,0-.015.008.541.541,0,0,0-.106.078l-.023.023c-.015.008-.023.023-.038.031h0l-.068-.093-.023-.023a.439.439,0,0,0-.053-.062l-.03-.031a.382.382,0,0,0-.061-.054.106.106,0,0,0-.03-.023l-.091-.07a1.464,1.464,0,0,0-1.125-.272.632.632,0,0,0-.129.031c-.008,0-.023.008-.03.008-.046.016-.084.023-.129.039h-.008c-.03.008-.053.023-.084.031a7.5,7.5,0,0,0-1.976-2.856l3.61-5.114a6.93,6.93,0,0,0,2.364.893L68.8,198.4a1.248,1.248,0,0,0,1.094,1.374,2.317,2.317,0,0,0,1.725-.528,2.437,2.437,0,0,0,.859-1.622l.122-1.2a3.684,3.684,0,0,0,1.748-.528l5.632,4.439a.853.853,0,0,1,.076.07l.008.008.03.031.015.016c.008.008.008.016.015.016l.015.016.023.023.046.07a.319.319,0,0,1,.046.085l.008.016c.008.016.008.023.015.039a.112.112,0,0,1,.015.047c.008.016.008.031.015.047l.015.047c.008.039.015.078.023.109v.016a.1.1,0,0,0,.008.047v.008h0v.039C80.343,201.105,80.343,201.152,80.336,201.191Zm.692-1.312-.008-.016L81,199.848a.336.336,0,0,0-.046-.054h0l-.008-.008a.107.107,0,0,1-.023-.031l-.015-.016c-.008-.016-.023-.023-.03-.039l-.008-.008-.038-.039c-.015-.016-.023-.031-.038-.039a2.115,2.115,0,0,0-.182-.163l-6.263-4.936-.327.248a2.633,2.633,0,0,1-1.877.536l-.532-.054-.22,2.243a1.356,1.356,0,0,1-.471.892,1.247,1.247,0,0,1-.95.287.163.163,0,0,1-.144-.178l.38-3.811,2.721-1.366h0l.752-.38.046-.023a4.692,4.692,0,0,1,.578-.31,5.074,5.074,0,0,1,1.277-.4,4.994,4.994,0,0,1,1.665,0,7.242,7.242,0,0,0,3.565-.272l2.531,5.751A7.394,7.394,0,0,0,81.027,199.879Z" transform="translate(0 -112.938)" fill="#0c3eb9"/>
    <path id="Path_2344" data-name="Path 2344" d="M402.517,283.217c.032,0,.057.008.089.008a.82.82,0,0,0,.527-.186.864.864,0,0,0,.308-.567.843.843,0,1,0-.924.746Zm-.186-.859a.272.272,0,0,1,.267-.243h.024a.281.281,0,0,1,.186.1.261.261,0,0,1,.057.2h0a.281.281,0,0,1-.1.186.261.261,0,0,1-.2.057A.285.285,0,0,1,402.33,282.358Z" transform="translate(-317.521 -199.157)" fill="#232020"/>
    <path id="Path_2345" data-name="Path 2345" d="M91.221,280.672a.843.843,0,1,0-1.678-.17.8.8,0,0,0,.186.616.864.864,0,0,0,.567.308c.032,0,.057.008.089.008A.843.843,0,0,0,91.221,280.672Zm-1.046.089a.261.261,0,0,1-.057-.2.272.272,0,0,1,.267-.243h.024a.273.273,0,0,1-.057.543A.282.282,0,0,1,90.176,280.761Z" transform="translate(-28.614 -197.499)" fill="#232020"/>
    <path id="Path_2346" data-name="Path 2346" d="M191.861,74.721a4.661,4.661,0,1,0-4.661-4.661A4.667,4.667,0,0,0,191.861,74.721Zm0-8.178a3.526,3.526,0,1,1-3.526,3.526A3.528,3.528,0,0,1,191.861,66.543Z" transform="translate(-119.278)" fill="#0c3eb9"/>
    <path id="Path_2347" data-name="Path 2347" d="M231.243,101.742a.962.962,0,0,0,.308.219,1.335,1.335,0,0,0,.43.113v.211a.244.244,0,0,0,.032.146.12.12,0,0,0,.105.049c.057,0,.089-.016.105-.057a.493.493,0,0,0,.024-.178v-.162a1.152,1.152,0,0,0,.519-.162.891.891,0,0,0,.332-.34.966.966,0,0,0,.113-.454.877.877,0,0,0-.073-.357.762.762,0,0,0-.2-.276.976.976,0,0,0-.276-.17c-.105-.041-.243-.081-.422-.13v-.875a.467.467,0,0,1,.332.349.268.268,0,0,0,.267.227.235.235,0,0,0,.186-.081.279.279,0,0,0,.081-.186.56.56,0,0,0-.049-.211.738.738,0,0,0-.146-.219.787.787,0,0,0-.284-.211,1.058,1.058,0,0,0-.389-.089V98.67c0-.113-.049-.17-.138-.17s-.13.057-.13.178v.227a1.064,1.064,0,0,0-.673.267.741.741,0,0,0-.219.584.773.773,0,0,0,.43.729,3.029,3.029,0,0,0,.47.178v.981a.543.543,0,0,1-.227-.113.529.529,0,0,1-.13-.17,1.367,1.367,0,0,1-.1-.267.2.2,0,0,0-.089-.122.255.255,0,0,0-.162-.041.24.24,0,0,0-.195.081.279.279,0,0,0-.081.186.738.738,0,0,0,.057.284A1.208,1.208,0,0,0,231.243,101.742Zm1.005-1.005a.971.971,0,0,1,.332.17.366.366,0,0,1,.113.284.46.46,0,0,1-.113.3.547.547,0,0,1-.332.17Zm-.551-.778a.309.309,0,0,1-.089-.251.33.33,0,0,1,.1-.259.731.731,0,0,1,.276-.138v.811A1.254,1.254,0,0,1,231.7,99.959Z" transform="translate(-159.546 -30.417)" fill="#232020"/>
  </g>
</svg>
