<svg xmlns="http://www.w3.org/2000/svg" width="31.5" height="32.314" viewBox="0 0 31.5 32.314">
  <g id="bank-svgrepo-com_1_" data-name="bank-svgrepo-com (1)" transform="translate(-0.25 -1.315)">
    <path id="Path_2348" data-name="Path 2348" d="M15.951,2.183,28.06,7.75a1.693,1.693,0,0,1,.848,1.438v5.134a1.461,1.461,0,0,1-1.345,1.546H3.345A1.461,1.461,0,0,1,2,14.322V9.188A1.693,1.693,0,0,1,2.848,7.75L14.956,2.183A1.382,1.382,0,0,1,15.951,2.183Z" transform="translate(0.546)" fill="none" stroke="#0c3eb9" stroke-linecap="round" stroke-linejoin="round" stroke-width="1.5"/>
    <path id="Path_2349" data-name="Path 2349" d="M28.907,24.186H2V19.546A1.461,1.461,0,0,1,3.345,18H27.562a1.461,1.461,0,0,1,1.345,1.546Z" transform="translate(0.546 8.693)" fill="none" stroke="#0c3eb9" stroke-linecap="round" stroke-linejoin="round" stroke-width="1.5"/>
    <path id="Path_2350" data-name="Path 2350" d="M4,21.825V11" transform="translate(1.639 4.868)" fill="none" stroke="#0c3eb9" stroke-linecap="round" stroke-linejoin="round" stroke-width="1.5"/>
    <path id="Path_2351" data-name="Path 2351" d="M8,21.825V11" transform="translate(2.545 4.868)" fill="none" stroke="#0c3eb9" stroke-linecap="round" stroke-linejoin="round" stroke-width="1.5"/>
    <path id="Path_2352" data-name="Path 2352" d="M12,21.825V11" transform="translate(4 4.868)" fill="none" stroke="#0c3eb9" stroke-linecap="round" stroke-linejoin="round" stroke-width="1.5"/>
    <path id="Path_2353" data-name="Path 2353" d="M16,21.825V11" transform="translate(5.455 4.868)" fill="none" stroke="#0c3eb9" stroke-linecap="round" stroke-linejoin="round" stroke-width="1.5"/>
    <path id="Path_2354" data-name="Path 2354" d="M20,21.825V11" transform="translate(6.361 4.868)" fill="none" stroke="#0c3eb9" stroke-linecap="round" stroke-linejoin="round" stroke-width="1.5"/>
    <path id="Path_2355" data-name="Path 2355" d="M1,22H31" transform="translate(0 10.879)" fill="none" stroke="#0c3eb9" stroke-linecap="round" stroke-linejoin="round" stroke-width="1.5"/>
    <path id="Path_2356" data-name="Path 2356" d="M12.82,10.139A2.32,2.32,0,1,0,10.5,7.82,2.32,2.32,0,0,0,12.82,10.139Z" transform="translate(3.18 1.863)" fill="none" stroke="#0c3eb9" stroke-linecap="round" stroke-linejoin="round" stroke-width="1.5"/>
  </g>
</svg>
