<svg xmlns="http://www.w3.org/2000/svg" width="16.117" height="16.117" viewBox="0 0 16.117 16.117">
  <path id="facebook-rounded-svgrepo-com" d="M-128.142,145h-13.6A1.259,1.259,0,0,0-143,146.259v13.6a1.259,1.259,0,0,0,1.259,1.259h13.6a1.259,1.259,0,0,0,1.259-1.259v-13.6A1.259,1.259,0,0,0-128.142,145Zm-5.021,6.692-.091,1.206h-1.237v4.187h-1.561V152.9h-.834v-1.206h.834v-.809a2.181,2.181,0,0,1,.268-1.25,1.482,1.482,0,0,1,1.294-.608,5.175,5.175,0,0,1,1.492.151l-.208,1.234a2.792,2.792,0,0,0-.671-.1c-.324,0-.614.116-.614.441v.941Z" transform="translate(143 -145)" fill="#fff"/>
</svg>
