<svg id="instagram-rounded-svgrepo-com" xmlns="http://www.w3.org/2000/svg" width="16.117" height="16.117" viewBox="0 0 16.117 16.117">
  <path id="Path_4" data-name="Path 4" d="M69.513,358.639a1.418,1.418,0,1,0-1.413-1.42A1.422,1.422,0,0,0,69.513,358.639Z" transform="translate(-61.454 -349.164)" fill="#fff"/>
  <path id="Path_5" data-name="Path 5" d="M169.366,303.866V302.5h-.176l-1.19,0,.006,1.366Z" transform="translate(-158.21 -297.542)" fill="#fff"/>
  <path id="Path_6" data-name="Path 6" d="M-128.142,145h-13.6A1.259,1.259,0,0,0-143,146.259v13.6a1.259,1.259,0,0,0,1.259,1.259h13.6a1.259,1.259,0,0,0,1.259-1.259v-13.6A1.259,1.259,0,0,0-128.142,145Zm-2.77,7.231v3.3a1.56,1.56,0,0,1-1.558,1.558h-4.942a1.56,1.56,0,0,1-1.558-1.558v-4.945a1.56,1.56,0,0,1,1.558-1.558h4.942a1.56,1.56,0,0,1,1.558,1.558Z" transform="translate(143 -145)" fill="#fff"/>
  <path id="Path_7" data-name="Path 7" d="M15.446,375.528A2.2,2.2,0,1,1,11.2,374.7H10V378a.772.772,0,0,0,.771.771h4.942a.772.772,0,0,0,.771-.771v-3.3h-1.2A2.134,2.134,0,0,1,15.446,375.528Z" transform="translate(-5.184 -367.469)" fill="#fff"/>
</svg>
