<svg width="22" height="23" viewBox="0 0 22 23" fill="none" xmlns="http://www.w3.org/2000/svg">
<path d="M11.2 21.6C16.8333 21.6 21.4 17.0333 21.4 11.4C21.4 5.76671 16.8333 1.20001 11.2 1.20001C5.56671 1.20001 1 5.76671 1 11.4C1 17.0333 5.56671 21.6 11.2 21.6Z" stroke="white" stroke-miterlimit="10"/>
<path d="M16.8 14.2L17.2 11.2H14.2V9.3C14.2 8.4 14.4 7.8 15.7 7.8H17.3V5.1C17 5.1 16.1 5 15 5C12.7 5 11.2 6.4 11.2 8.9V11.1H8.59998V14.1H11.2V21.6C12.3 21.6 13.3 21.4 14.3 21.1V14.1H16.9L16.8 14.2Z" fill="white"/>
</svg>
