<svg width="23" height="23" viewBox="0 0 23 23" fill="none" xmlns="http://www.w3.org/2000/svg">
<path d="M11.4 21.6C17.0333 21.6 21.5999 17.0333 21.5999 11.4C21.5999 5.76671 17.0333 1.20001 11.4 1.20001C5.76666 1.20001 1.19995 5.76671 1.19995 11.4C1.19995 17.0333 5.76666 21.6 11.4 21.6Z" stroke="white" stroke-miterlimit="10"/>
<path d="M16.7999 10C16.7999 8.70001 15.7999 7.70001 14.4999 7.70001H8.69989C7.39989 7.70001 6.3999 8.70001 6.3999 10V12.7C6.3999 14 7.39989 15 8.69989 15H14.4999C15.7999 15 16.7999 14 16.7999 12.7V10ZM13.3999 11.6L10.7999 12.9C10.6999 12.9 10.2999 12.9 10.2999 12.8V10.1C10.2999 10 10.6999 9.90001 10.7999 10L13.2999 11.4C13.3999 11.4 13.4999 11.6 13.3999 11.7V11.6Z" fill="white"/>
</svg>
