<svg xmlns="http://www.w3.org/2000/svg" xmlns:xlink="http://www.w3.org/1999/xlink" width="881" height="853.029" viewBox="0 0 881 853.029">
  <defs>
    <clipPath id="clip-path">
      <rect id="Rectangle_1990" data-name="Rectangle 1990" width="881" height="853.029" fill="none"/>
    </clipPath>
  </defs>
  <g id="Group_4928" data-name="Group 4928" transform="translate(-830 -2135)">
    <g id="Group_4927" data-name="Group 4927" transform="translate(830 2135)">
      <path id="Path_2205" data-name="Path 2205" d="M207.409,104.828v41.734l-2.8,2.046-10.546,2.049-2.469,6.77-4.779,5.671-1.482,6.929-2.637,4.252-2.142,8.5v4.252l4.779-2.36,4.119,14.487,2.142,2.049v4.566l8.9,12.757,2.142,3.936-2.142,8.348,6.921,4.566,4.119,1.889,8.9,4.252,2.142,3.936,14.83,12.914,4.447,8.5,8.9,5.985,2.472,3.936,6.261,8.822,4.449,2.36,2.637-2.36h15.158l13.183,10.551,8.9-2.049,4.449,2.049,19.607-2.049,4.284-4.566,7.086-5.985h16.642v-8.5l-8.569-3.936L343.02,259.95l-8.239-6.142-2.637-3.936-1.812-1.735-4.449-2.677-6.921-1.573,4.449-6.615h6.921l4.449-1.889v-21.1l1.812-4.252,4.449-2.363,1.977-10.394,11.368-12.6,1.485-1.892,4.777-15.118-1.977-8.5,4.449-16.85v-6.142l6.427-5.985,8.734-4.252,2.637-4.252-4.449-4.252-6.921-2.36-4.449-8.5-1.977-9.92V85.458l-4.449-3.938V73.645l-13.18-6.772-2.472-6.3-10.876,6.3v3.938l-6.262,2.834-2.472,3.308h-6.1l-2.8-1.889h-17.63l-4.449-1.418-1.977,1.418H217.79V96.64l-4.449,1.416h-5.932Z" transform="translate(299.909 100.618)" fill="#848286" fill-rule="evenodd"/>
      <path id="Path_2206" data-name="Path 2206" d="M207.409,104.828v41.734l-2.8,2.046-10.546,2.049-2.469,6.77-4.779,5.671-1.482,6.929-2.637,4.252-2.142,8.5v4.252l4.779-2.36,4.119,14.487,2.142,2.049v4.566l8.9,12.755,2.142,3.938-2.142,8.348,6.921,4.566,4.119,1.889,8.9,4.252,2.142,3.936,14.83,12.914,4.447,8.5,8.9,5.985,2.472,3.936,6.261,8.819,4.449,2.363,2.637-2.363h15.158l13.183,10.554,8.9-2.049,4.447,2.049,19.609-2.049,4.284-4.566,7.086-5.985h16.642v-8.5l-8.569-3.936L343.02,259.95l-8.239-6.142-2.637-3.938-1.812-1.732-4.449-2.677-6.921-1.573,4.449-6.615h6.921l4.449-1.889v-21.1l1.812-4.252,4.449-2.363,1.977-10.394,11.368-12.6,1.485-1.892,4.777-15.118-1.977-8.5,4.449-16.85v-6.142l6.427-5.985,8.734-4.252,2.637-4.252-4.449-4.252-6.921-2.36-4.449-8.5-1.977-9.92V85.458l-4.449-3.938V73.645l-13.18-6.772-2.472-6.3-10.876,6.3v3.938l-6.262,2.834-2.472,3.308h-6.1l-2.8-1.889h-17.63l-4.449-1.418-1.977,1.418H217.79V96.64l-4.449,1.416h-5.932Z" transform="translate(299.909 100.618)" fill="none" stroke="#fff" stroke-linejoin="round" stroke-width="2"/>
      <g id="Group_4924" data-name="Group 4924">
        <g id="Group_4923" data-name="Group 4923" clip-path="url(#clip-path)">
          <path id="Path_2207" data-name="Path 2207" d="M309.593,117.391c-2.145-1.722-2.145-3.875-2.145-6.458a12.681,12.681,0,0,0-1.714-6.887c1.285-1.722,3-.86,4.715-.86,1.714-.431,3.427,0,2.573-2.584a1.572,1.572,0,0,1,1.714-1.722h1.716c4.284-.431,4.715,0,3.43,4.306a17.62,17.62,0,0,0-.431,8.177c.86,2.153.431,4.737.431,7.318,0,2.153.854,3.446,3,4.737,3.43,1.722,5.144,5.6,8.143,8.18,1.291,1.291.862,3.443-.428,5.165s-1.285,3.443.86,4.3c1.285.431,1.285,1.293,1.285,2.153-1.285,4.306-.854,8.18-1.285,12.486,0,3.443-.431,4.3-3.856,5.6a18.284,18.284,0,0,0-2.145.431c-4.718,0-5.572,3.443-7.289,6.887a2.446,2.446,0,0,0,1.716,3.012c.428,0,.854.431,1.285.431,4.287-.86,7.717,1.722,10.719,4.306,3,3.012,6.429,6.456,9,9.471a17.274,17.274,0,0,1,4.284,9.471,21.485,21.485,0,0,0,1.716,5.6,6.358,6.358,0,0,0,5.144,3.443c5.144.431,7.72,4.734,6.429,9.9a2.348,2.348,0,0,1-2.571,1.722,128.139,128.139,0,0,1-12.858-.431c-3,0-5.575.862-7.289,3.874-2.145,3.012-5.575,5.6-8.579,8.18a7.217,7.217,0,0,1-4.284,1.291c-4.29-.431-8.146.862-12.433,2.153a10.392,10.392,0,0,1-5.144,0c-4.715-1.722-9.431-2.153-14.149.86-1.285.431-2.571.431-3.43.862-1.285,0-2.571,0-2.571-1.291-.428-2.153-1.719-3.015-3.43-3.015a5.588,5.588,0,0,1-4.718-3.874,12.075,12.075,0,0,0-4.284-5.165c-2.145-.862-3.43-.862-4.721.862-1.714,2.15-3,2.15-5.144,1.722-3-1.293-6.429-2.153-9,.86a3.284,3.284,0,0,1-4.287-.431,7.665,7.665,0,0,1-3-2.15,12.022,12.022,0,0,0-6.86-6.89,4.518,4.518,0,0,1-2.142-3.875c.854-4.734-2.145-7.749-6.006-9.04-4.713-1.291-6.429-3.875-7.289-8.18a12.812,12.812,0,0,0-6.429-7.749,39.284,39.284,0,0,0-5.572-3.443c-2.571-1.722-4.287-3.443-4.287-6.887,0-3.012-2.571-3.875-4.715-4.737-2.573-.86-5.144-1.291-7.289-2.15-1.714-.431-3-1.293-2.573-3.446s-.857-3.012-2.571-3.012a11.8,11.8,0,0,1-3.859-.431,5.048,5.048,0,0,1-3.43-7.749c1.714-2.153,3-4.3,2.139-7.318,0-.86.434-1.722.86-1.722a5.622,5.622,0,0,0,3-5.165c0-1.291.86-1.722,1.714-2.584,1.716-2.153,3.861-3.875,4.718-6.887.426-.862,1.716-1.291,2.571-1.722,2.573-.431,5.144-.431,7.289-.862,1.285-.431,1.716.431,1.716,1.722a8.572,8.572,0,0,0,3.43,5.168c.428.86,1.714,1.722,1.714,2.581,0,3.015,2.145,3.015,3.859,3.875,5.144,1.722,9.859-.431,14.577-.431h4.287c1.714-.428,3,0,4.287,1.722a3.742,3.742,0,0,0,3.856,2.153h5.149a9.486,9.486,0,0,0,4.715-2.153c1.285-2.15,3.43-3.012,6-3.012,3,0,3.43-.431,4.29-3.443.426-3.443,5.575-6.027,8.574-4.737a26.614,26.614,0,0,1,7.289,4.737c3.43,3.443,7.714,2.153,11.576,1.722,1.288,0,1.714-1.291,2.573-2.153,1.285-2.153,3-4.306,4.284-6.456,2.145-2.153,3.43-4.737,6.435-6.027,2.139-.431,3.43-2.584,5.144-4.306" transform="translate(303.461 164.029)" fill="#848286" fill-rule="evenodd"/>
          <path id="Path_2208" data-name="Path 2208" d="M309.593,117.391c-2.145-1.722-2.145-3.875-2.145-6.458a12.681,12.681,0,0,0-1.714-6.887c1.285-1.722,3-.862,4.715-.862,1.714-.428,3.427,0,2.573-2.581a1.572,1.572,0,0,1,1.714-1.722h1.716c4.284-.431,4.715,0,3.43,4.3a17.633,17.633,0,0,0-.431,8.18c.86,2.153.431,4.737.431,7.318,0,2.153.854,3.443,3,4.737,3.43,1.722,5.144,5.6,8.143,8.178,1.291,1.293.862,3.446-.428,5.168s-1.285,3.443.86,4.3c1.285.431,1.285,1.293,1.285,2.153-1.285,4.306-.854,8.18-1.285,12.486,0,3.443-.431,4.3-3.856,5.6a18.285,18.285,0,0,0-2.145.431c-4.718,0-5.572,3.443-7.289,6.887a2.447,2.447,0,0,0,1.716,3.012c.428,0,.854.431,1.285.431,4.287-.862,7.717,1.722,10.719,4.306,3,3.012,6.429,6.456,9,9.471a17.274,17.274,0,0,1,4.284,9.471,21.485,21.485,0,0,0,1.716,5.6,6.358,6.358,0,0,0,5.144,3.443c5.144.431,7.72,4.734,6.429,9.9a2.348,2.348,0,0,1-2.571,1.722,128.139,128.139,0,0,1-12.858-.431c-3,0-5.575.862-7.289,3.874-2.145,3.012-5.575,5.6-8.579,8.18a7.217,7.217,0,0,1-4.284,1.291c-4.29-.431-8.146.86-12.433,2.153a10.392,10.392,0,0,1-5.144,0c-4.715-1.722-9.431-2.153-14.149.86-1.285.431-2.571.431-3.43.862-1.285,0-2.571,0-2.571-1.291-.428-2.153-1.719-3.015-3.43-3.015a5.588,5.588,0,0,1-4.718-3.874,12.075,12.075,0,0,0-4.284-5.165c-2.145-.862-3.43-.862-4.721.86-1.714,2.153-3,2.153-5.144,1.724-3-1.293-6.429-2.153-9,.86a3.284,3.284,0,0,1-4.287-.431,7.644,7.644,0,0,1-3-2.153,12.025,12.025,0,0,0-6.86-6.887,4.518,4.518,0,0,1-2.142-3.875c.854-4.734-2.145-7.749-6.006-9.04-4.713-1.291-6.429-3.875-7.289-8.18a12.812,12.812,0,0,0-6.429-7.749,39.286,39.286,0,0,0-5.572-3.443c-2.571-1.722-4.287-3.443-4.287-6.887,0-3.015-2.573-3.875-4.715-4.737-2.573-.86-5.144-1.291-7.289-2.15-1.714-.431-3-1.293-2.573-3.446s-.857-3.012-2.571-3.012a11.8,11.8,0,0,1-3.859-.431,5.048,5.048,0,0,1-3.43-7.749c1.714-2.153,3-4.3,2.139-7.318,0-.86.434-1.722.86-1.722a5.622,5.622,0,0,0,3-5.165c0-1.291.86-1.722,1.714-2.584,1.716-2.153,3.861-3.875,4.718-6.887.426-.862,1.716-1.291,2.571-1.722,2.573-.431,5.144-.431,7.289-.862,1.285-.431,1.716.431,1.716,1.722a8.573,8.573,0,0,0,3.43,5.168c.428.86,1.714,1.722,1.714,2.581,0,3.015,2.145,3.015,3.859,3.875,5.144,1.722,9.859-.431,14.577-.431h4.287c1.714-.428,3,0,4.287,1.722a3.742,3.742,0,0,0,3.856,2.153h5.149a9.486,9.486,0,0,0,4.715-2.153c1.285-2.15,3.43-3.012,6-3.012,3,0,3.43-.431,4.29-3.443.426-3.443,5.575-6.027,8.574-4.737a26.614,26.614,0,0,1,7.289,4.737c3.43,3.443,7.714,2.153,11.576,1.722,1.288,0,1.714-1.291,2.573-2.153,1.285-2.153,3-4.306,4.284-6.456,2.145-2.153,3.43-4.737,6.435-6.027C306.588,121.265,307.879,119.112,309.593,117.391Z" transform="translate(303.461 164.029)" fill="none" stroke="#fff" stroke-linejoin="round" stroke-width="2"/>
          <path id="Path_2209" data-name="Path 2209" d="M228.546,206.365l-4.138,1.676-2.153,2.438h-4.471l1.988-14.325,2.483-6.248,6.291-10.211,8.939-7.925v-2.286l-1.985-1.828h-2.483V153.026l8.939-1.98,4.471,1.98,19.7-1.98,4.636-4.42,4.138,2.286,4.47,10.972,1.988,1.373,2.483,2.438v14.021l-10.761,14.019v14.631Z" transform="translate(361.757 243.558)" fill="#0097da" fill-rule="evenodd"/>
          <path id="Path_2210" data-name="Path 2210" d="M228.546,206.365l-4.138,1.676-2.153,2.438h-4.471l1.988-14.325,2.483-6.248,6.291-10.211,8.939-7.925v-2.286l-1.985-1.828h-2.483V153.026l8.939-1.98,4.471,1.98,19.7-1.98,4.636-4.42,4.138,2.286,4.47,10.972,1.988,1.373,2.483,2.438v14.021l-10.761,14.019v14.631Z" transform="translate(361.757 243.558)" fill="none" stroke="#fff" stroke-linejoin="round" stroke-width="2"/>
          <path id="Path_2211" data-name="Path 2211" d="M283.33,297.211l-15.738-6.975-2.294-3.872-2.459-8.215-8.526-8.678h-4.753l-5.9-5.735-9.181-19.061h-4.1l-2.459,2.171-6.23,2.014-6.395,6.352-2.459-6.352h-4.425l-23.771,2.477-2.621,5.889v35.8l-4.425,1.7-4.428-1.7-2.132,4.183v28.513l8.853,8.058,2.132,6.82-2.132,5.889,2.132,2.169,2.621,1.706,13.116-1.706,10.655-12.552,4.425-2.326h6.887l4.1,2.326h10.655l2.3-2.326,2.459-6.043,4.425-3.875,5.9-4.338L261.2,308.989l6.395-5.889Z" transform="translate(284.103 406.425)" fill="#0097da" fill-rule="evenodd"/>
          <path id="Path_2212" data-name="Path 2212" d="M309.562,186.341l-2.278-3.944-8.627-6-4.069-8.521L278.96,154.943,276.844,151l-8.79-4.26-4.069-1.892L257.8,140.27l1.464-8.361-1.464-3.944-8.792-12.781-11.557,4.26-4.069,5.679-4.721,4.577-1.464,4.26-7,4.26-14.976,2.049-4.231,2.209,2.44,2.368-2.44,4.26L196.6,151l-13.51,2.366-5.86,3.63-6.836-2.052-6.347,4.417h-6.187l-11.23,21.3v10.253l11.23,17.356,3.744,4.417,4.4,1.578,32.715-10.57,4.721-12.781,6.187-4.574h6.347l2.443,4.574,4.069,4.26,2.116-2.209,8.79,4.577h10.908l1.953-4.577,4.556-2.052h11.07l10.905-4.574,4.069,2.839,2.116-2.839h6.512l6.349-1.735,4.556,4.574h4.071Z" transform="translate(243.559 191.329)" fill="#d0d0d0" fill-rule="evenodd"/>
          <path id="Path_2213" data-name="Path 2213" d="M309.562,186.341l-2.278-3.944-8.627-6-4.069-8.521L278.96,154.943,276.844,151l-8.79-4.26-4.069-1.892L257.8,140.27l1.464-8.361-1.464-3.944-8.792-12.781-11.557,4.26-4.069,5.679-4.721,4.577-1.464,4.26-7,4.26-14.976,2.049-4.231,2.209,2.44,2.368-2.44,4.26L196.6,151l-13.51,2.366-5.86,3.63-6.836-2.052-6.347,4.417h-6.187l-11.23,21.3v10.253l11.23,17.356,3.744,4.417,4.4,1.578,32.715-10.57,4.721-12.781,6.187-4.574h6.347l2.443,4.574,4.069,4.26,2.116-2.209,8.79,4.577h10.908l1.953-4.577,4.556-2.052h11.07l10.905-4.574,4.069,2.839,2.116-2.839h6.512l6.349-1.735,4.556,4.574h4.071Z" transform="translate(243.559 191.329)" fill="none" stroke="#fff" stroke-linejoin="round" stroke-width="2"/>
          <path id="Path_2214" data-name="Path 2214" d="M273.907,104.612h4.4l2.445-1.887h1.956l2.443,4.247,4.4-8.337,1.791,1.73h2.608l1.794,2.36h6.844v-2.36l1.953,2.36,4.4-2.36,4.4,2.36h4.4l6.192,1.887,6.517,8.491,6.52,4.247,2.605,4.247,4.4,2.36,1.466,4.244L341.37,136.7v5.977l4.074,1.887,7.169-1.887,1.631,1.887-1.631,2.358,1.631,4.247,15.642,14.468,36.829,12.741h10.918v3.93l-32.755,31.614-17.273,2.515-22.161,12.582h-5.868l-9.125-4.244-8.473,1.573-1.794,4.561-6.844,2.044h-4.4l-13.2-2.044-4.4-1.889-10.591-8.648H269.508v-8.494l-7.824-3.93L257.123,197.4l-8.8-6.448-2.283-4.247-2.118-1.73-4.4-2.674-6.844-1.573,4.4-6.6h6.842l4.4-1.887V151.165l1.791-4.247,4.4-2.358,2.608-10.381L267.714,121.6l1.793-1.887Z" transform="translate(386.497 163.841)" fill="#848286" fill-rule="evenodd"/>
          <path id="Path_2215" data-name="Path 2215" d="M273.907,104.612h4.4l2.445-1.887h1.956l2.443,4.247,4.4-8.337,1.791,1.73h2.608l1.794,2.36h6.844v-2.36l1.953,2.36,4.4-2.36,4.4,2.36h4.4l6.192,1.887,6.517,8.491,6.52,4.247,2.605,4.247,4.4,2.36,1.466,4.244L341.37,136.7v5.977l4.074,1.887,7.169-1.887,1.631,1.887-1.631,2.358,1.631,4.247,15.642,14.468,36.829,12.741h10.918v3.93l-32.755,31.614-17.273,2.515-22.161,12.582h-5.868l-9.125-4.244-8.473,1.573-1.794,4.561-6.844,2.044h-4.4l-13.2-2.044-4.4-1.889-10.591-8.648H269.508v-8.494l-7.824-3.93L257.123,197.4l-8.8-6.448-2.281-4.247-2.121-1.73-4.4-2.674-6.844-1.573,4.4-6.6h6.844l4.4-1.887V151.165l1.791-4.247,4.4-2.358,2.608-10.381L267.714,121.6l1.793-1.887Z" transform="translate(386.497 163.841)" fill="none" stroke="#fff" stroke-linejoin="round" stroke-width="2"/>
          <path id="Path_2216" data-name="Path 2216" d="M333.887,270.776l2.621,18.111v18.731h-7.047l-1.8,2.32-4.425,3.872v10.37h6.227l2.951-1.7,4.1-2.786h8.031v2.786l-6.227,18.111-10.652,6.5-13.276,20.586-23.763,20.434L274.888,398.8H261.942l-2.132,4.178h-7.047L249,405.142l-10.982-2.169-4.425,2.169-6.554-2.169H220.15l-4.1,4.181H203.106l-3.933,4.489h-7.046l-8.686-8.67-2.294,2.169v-4.489l-2.132-6.038-4.753-6.5h2.786l1.967-1.7v-6.655L168.363,363.19l-7.047-18.111-3.933-4.489h2.132l1.8-4.178,7.047,4.178,4.1,4.489H185.9l10.325-6.035V295.08l8.851,8.05,2.129,6.81-2.129,5.884,2.129,2.166,2.624,1.7,13.108-1.7,10.652-12.539,4.425-2.32h6.719L249,305.45h10.815l2.132-2.32,2.459-6.038,4.1-3.715,6.392-4.489,11.637-9.907,5.9-6.5L307.5,266.6l4.425-2.475,4.75,2.475H327.66Z" transform="translate(261.425 438.725)" fill="#848286" fill-rule="evenodd"/>
          <path id="Path_2217" data-name="Path 2217" d="M333.887,270.776l2.621,18.111v18.731h-7.047l-1.8,2.32-4.425,3.872v10.37h6.227l2.951-1.7,4.1-2.786h8.031v2.786l-6.227,18.111-10.652,6.5-13.276,20.586-23.763,20.434L274.888,398.8H261.942l-2.132,4.178h-7.047L249,405.142l-10.982-2.169-4.425,2.169-6.554-2.169H220.15l-4.1,4.181H203.108l-3.936,4.489h-7.046l-8.686-8.67-2.294,2.169v-4.489l-2.132-6.038-4.753-6.5h2.786l1.967-1.7v-6.655L168.363,363.19l-7.047-18.111-3.933-4.489h2.132l1.8-4.178,7.047,4.178,4.1,4.489H185.9l10.325-6.035V295.08l8.851,8.05,2.129,6.81-2.129,5.884,2.129,2.166,2.624,1.7,13.108-1.7,10.652-12.539,4.425-2.32h6.719L249,305.45h10.815l2.132-2.32,2.459-6.038,4.1-3.715,6.392-4.489,11.637-9.907,5.9-6.5L307.5,266.6l4.425-2.475,4.75,2.475H327.66Z" transform="translate(261.425 438.725)" fill="none" stroke="#fff" stroke-linejoin="round" stroke-width="2"/>
          <path id="Path_2218" data-name="Path 2218" d="M216.61,159.771l-2.129,8.92-6.552,12.677-2.291,9.859v14.867l-1.8,7.981-11.3,8.452-6.714,6.573v6.416l-2.129,8.138-1.967,8.295L170.1,260.4l-5.9,1.879-2.129-4.226H155.03l-4.093,4.226-6.224-1.879-4.42,4.54-2.459,5.634L135.87,274.8l1.964,2.5v2.033l8.518-4.537h35.374l8.845,2.5,4.42,14.4,5.9,10.8h7.041l6.552-2.347h8.843l4.258-10.328,15.067-2.35V291.7h11.137v4.226l1.8,16.746v6.1l4.75,12.518v2.5l-4.75,4.226,2.786,1.722,8.843-4.226h19.162v2.5h8.843l6.224,5.947,6.879,2.347,4.747,1.879,5.9-1.879,6.387,4.226,6.879,1.879,6.224,8.138,7.206,2.661h4.093l2.294-6.573v-1.879l-2.294-4.226-6.879,1.879-4.42-6.1v-4.069l4.42-12.677V323l-1.8-4.223v-6.1l4.588-1.722v-2.19l17.358-6.261h4.75l-4.75-10.8-10.972-12.363,2.129-6.259L349.757,260.4l2.294-2.347-2.294-6.1V239.43l-2.456-1.879-1.637-3.912,6.387-11.113,2.129-1.722,1.964-14.71,2.459-6.416,6.222-9.859,8.845-8.452v-2.661l-1.8-1.879h-2.621V161.806l-13.1-10.487H341.077l-2.618,2.347-4.423-2.347-6.224-8.763-8.843,2.815h-4.1l-4.585-4.537-6.387,1.722H297.35l-2.129,2.815-4.093-2.815L279.5,147.093H269.017l-4.585,2.193-1.967,4.38H251.494l-8.845-4.38-2.129,2.033-4.093-4.226-2.784-4.537h-6.062l-6.876,4.537Z" transform="translate(225.691 233.937)" fill="#848286" fill-rule="evenodd"/>
          <path id="Path_2219" data-name="Path 2219" d="M216.61,159.771l-2.129,8.92-6.552,12.677-2.291,9.859v14.867l-1.8,7.981-11.3,8.452-6.714,6.573v6.416l-2.129,8.138-1.967,8.295L170.1,260.4l-5.9,1.879-2.129-4.226H155.03l-4.093,4.226-6.224-1.879-4.42,4.54-2.459,5.634L135.87,274.8l1.964,2.5v2.033l8.518-4.537h35.374l8.845,2.5,4.42,14.4,5.9,10.8h7.041l6.552-2.347h8.843l4.258-10.328,15.067-2.35V291.7h11.137v4.226l1.8,16.746v6.1l4.75,12.518v2.5l-4.75,4.226,2.786,1.722,8.843-4.226h19.162v2.5h8.843l6.224,5.947,6.879,2.347,4.747,1.879,5.9-1.879,6.387,4.226,6.879,1.879,6.224,8.138,7.206,2.661h4.093l2.294-6.573v-1.879l-2.294-4.226-6.879,1.879-4.42-6.1v-4.069l4.42-12.677V323l-1.8-4.223v-6.1l4.588-1.722v-2.19l17.358-6.261h4.75l-4.75-10.8-10.972-12.363,2.129-6.259L349.757,260.4l2.294-2.347-2.294-6.1V239.43l-2.456-1.879-1.637-3.912,6.387-11.113,2.129-1.722,1.964-14.71,2.459-6.416,6.222-9.859,8.845-8.452v-2.661l-1.8-1.879h-2.621V161.806l-13.1-10.487H341.077l-2.618,2.347-4.423-2.347-6.224-8.763-8.843,2.815h-4.1l-4.585-4.537-6.387,1.722H297.35l-2.129,2.815-4.093-2.815L279.5,147.093H269.017l-4.585,2.193-1.967,4.38H251.494l-8.845-4.38-2.129,2.033-4.093-4.226-2.784-4.537h-6.062l-6.876,4.537Z" transform="translate(225.691 233.937)" fill="none" stroke="#fff" stroke-linejoin="round" stroke-width="2"/>
          <path id="Path_2220" data-name="Path 2220" d="M274.877,337.15v9.987L277.033,354v14.359l8.954,8.114L290.133,381l4.809-2.185,13.263-3.9,4.479,1.559,4.476-6.086,8.954-14.982,3.481-14.356,22.22-43.384,4.809-19.194,2.488-1.871,1.658-4.215V261.621l4.641,4.213,4.146-6.24-1.823-26.685-6.964-12.64L354.3,224.48l-2.488,10.144-10.447,4.212v6.711l-4.809,1.716,1.826,4.213h-5.969l-4.479,6.554-13.6,6.086-10.612,4.215h-6.964l-1.823,10.141-6.964,6.554,2.156,6.086,2.155,6.554-2.155,5.62,2.155,6.866v4.212Z" transform="translate(456.592 365.881)" fill="#d0d0d0" fill-rule="evenodd"/>
          <path id="Path_2221" data-name="Path 2221" d="M274.877,337.15v9.987L277.033,354v14.359l8.954,8.114L290.133,381l4.809-2.185,13.263-3.9,4.479,1.559,4.476-6.086,8.954-14.982,3.481-14.356,22.22-43.384,4.809-19.194,2.488-1.871,1.658-4.215V261.621l4.641,4.213,4.146-6.24-1.823-26.685-6.964-12.64L354.3,224.48l-2.488,10.144-10.447,4.212v6.711l-4.809,1.716,1.826,4.213h-5.969l-4.479,6.554-13.6,6.086-10.612,4.215h-6.964l-1.823,10.141-6.964,6.554,2.156,6.086,2.155,6.554-2.155,5.62,2.155,6.866v4.212Z" transform="translate(456.592 365.881)" fill="none" stroke="#fff" stroke-linejoin="round" stroke-width="2"/>
          <path id="Path_2222" data-name="Path 2222" d="M31.615,96.989l8.813-1.727,8.159-2.2,4.079-3.925,8.976-3.925,4.407-4.4,4.407-3.925L74.535,68.1,72.9,65.743l1.634-10.048,4.731-2.669,4.079-5.809,2.776-4.239,8.811-8.321,19.093-8.481L129.039,6.55l6.855-1.413V9.219l6.528,4.239,17.3-2.355,4.569,3.925,4.079-1.57,1.959,4.239V40.622l4.407,2.355L173.1,47.217,168.37,49.1l-8.649-1.884-10.445,5.809h-6.855V59.62L127.408,68.1l-7.18,4.239-10.282,1.727-2.938,2.829-5.873,1.727L90.2,82.545,83.346,87.1,81.715,99.815Z" transform="translate(52.514 8.533)" fill="#d0d0d0" fill-rule="evenodd"/>
          <path id="Path_2223" data-name="Path 2223" d="M31.615,96.989l8.813-1.727,8.159-2.2,4.079-3.925,8.976-3.925,4.407-4.4,4.4-3.928L74.535,68.1,72.9,65.743l1.634-10.048,4.731-2.669,4.079-5.809,2.776-4.239,8.811-8.321,19.093-8.481L129.039,6.55l6.855-1.413V9.219l6.528,4.239,17.3-2.355,4.569,3.925,4.079-1.57,1.959,4.239V40.622l4.407,2.355L173.1,47.217,168.37,49.1l-8.649-1.884-10.445,5.809h-6.855V59.62L127.408,68.1l-7.18,4.239-10.282,1.727-2.938,2.826-5.873,1.73L90.2,82.545,83.346,87.1,81.715,99.815Z" transform="translate(52.514 8.533)" fill="none" stroke="#fff" stroke-linejoin="round" stroke-width="2"/>
          <path id="Path_2224" data-name="Path 2224" d="M85.955,138.783,48.99,111.757l2.475-5.623L53.118,93.48l6.929-4.532,11.057-3.9,5.94-2.656,2.972-1.876,10.394-2.03,7.262-4.529,15.181-7.813v-6.56h6.932l10.559-5.78,8.747,1.873,4.785-1.873,1.653-4.218-4.457-2.344V24.431l-1.98-4.218L148,17.871l4.455-4.532,10.727-1.405L174.9,5.218,190.083,3.5h6.6L211.867,1,218.3,3.5l2.8,1.719L227.048,3.5,231.5,1l8.912,2.5L244.87,1,251.8,3.5l6.27-2.5-4.455,4.218V21.775L251.8,26.307l-8.912,8.279L240.415,38.8V42.71l4.455,2.5,2.475,4.375V53.8l6.272,3.9,2.64,1.876,1.815,18.9-1.815,3.907,3.795,6.56v18.9l-1.98,12.339-4.455,6.562,6.435,7.81v4.218l2.475,6.562h8.912l6.272,4.218,2.475,5.934L231.5,185.024,203.12,203.612,185.3,207.83l-6.272,2.344L174.9,207.83v-7.81L159.061,193.3l-2.147-4.061h-2.64l-4.125-6.094Z" transform="translate(81.377 1.661)" fill="#d0d0d0" fill-rule="evenodd"/>
          <path id="Path_2225" data-name="Path 2225" d="M85.955,138.783,48.99,111.757l2.475-5.623L53.118,93.48l6.929-4.532,11.057-3.9,5.94-2.656,2.972-1.876,10.394-2.03,7.262-4.529,15.181-7.813v-6.56h6.932l10.559-5.78,8.747,1.873,4.785-1.873,1.653-4.218-4.457-2.344V24.431l-1.98-4.218L148,17.871l4.455-4.532,10.727-1.405L174.9,5.218,190.083,3.5h6.6L211.867,1,218.3,3.5l2.8,1.719L227.048,3.5,231.5,1l8.912,2.5L244.87,1,251.8,3.5l6.27-2.5-4.455,4.218V21.775L251.8,26.307l-8.912,8.279L240.415,38.8V42.71l4.455,2.5,2.475,4.375V53.8l6.272,3.9,2.64,1.876,1.815,18.9-1.815,3.907,3.795,6.56v18.9l-1.98,12.339-4.455,6.562,6.435,7.81v4.218l2.475,6.562h8.912l6.272,4.218,2.475,5.934L231.5,185.024,203.12,203.612,185.3,207.83l-6.272,2.344L174.9,207.83v-7.81L159.061,193.3l-2.147-4.061h-2.64l-4.125-6.094Z" transform="translate(81.377 1.661)" fill="none" stroke="#fff" stroke-linejoin="round" stroke-width="2"/>
          <path id="Path_2226" data-name="Path 2226" d="M304.281,34.523l-1.8-2.648h-6.866l-12.26-1.868V23.466l-13.4-1.557-13.239,1.557-6.866,6.541-1.964,1.868,1.964,11.057-1.964,3.893-8.334,4.2h-4.415l-13.242-8.1L204.405,40.6l-4.415-4.2-1.961-1.868V27.982l-13.077-4.516L162.722,21.91l-8.5-4.362-1.961,8.566L139.182,36.391v6.541l-1.961,3.893-4.25,4.2h-2.616l-1.8,4.516,4.415,5.607V80l-2.616,12.3-4.415,6.541,7.031,8.409v4.2l1.8,5.918H143.6l6.211,4.2,2.451,5.918,26.156,2.8,8.662,5.6,4.742-1.711,8.172-2.493h4.415L298.4,176.082v-6.7h5.884l4.415-1.4V146.647l-4.415-77.086V63.8l-1.8-2.648V59.439l-2.124-3.893V51.03l2.124-2.179V38.416Z" transform="translate(209.197 29.149)" fill="#d0d0d0" fill-rule="evenodd"/>
          <path id="Path_2227" data-name="Path 2227" d="M304.281,34.523l-1.8-2.648h-6.866l-12.26-1.868V23.466l-13.4-1.557-13.239,1.557-6.866,6.541-1.964,1.868,1.964,11.057-1.964,3.893-8.334,4.2h-4.415l-13.242-8.1L204.405,40.6l-4.415-4.2-1.961-1.868V27.982l-13.077-4.516L162.722,21.91l-8.5-4.362-1.961,8.566L139.182,36.391v6.541l-1.961,3.893-4.25,4.2h-2.616l-1.8,4.516,4.415,5.607V80l-2.616,12.3-4.415,6.541,7.031,8.409v4.2l1.8,5.918H143.6l6.211,4.2,2.451,5.918,26.156,2.8,8.662,5.607,4.742-1.711,8.172-2.493h4.415L298.4,176.082v-6.7h5.884l4.415-1.4V146.647l-4.415-77.086V63.8l-1.8-2.648V59.439l-2.124-3.893V51.03l2.124-2.179V38.416Z" transform="translate(209.197 29.149)" fill="none" stroke="#fff" stroke-linejoin="round" stroke-width="2"/>
          <path id="Path_2228" data-name="Path 2228" d="M199.722,136.787h72.767l2.97-2.347,4.125,2.347H297.24l2.145,1.876h6.1l2.475-4.223,6.27-1.876v-3.912l11.387-6.882-4.292-4.223,1.815-3.909-4.455-4.38L301.035,82.2,294.763,68.12,284.2,55.451l-2.8-4.537-1.815-6.568,1.815-1.879L292.783,61.4l8.252,8.446,4.455-1.722-1.98-4.534,4.455-12.672L297.24,30.269,281.4,31.988l-4.455-3.909-1.485,3.909-4.785-1.719v-2.19l-6.932-2.033-6.435,2.033-11.384,3.909-6.272,2.19-6.929-3.909-6.434,1.719-8.744-3.909-13.037-2.033h-6.27l-2.97-1.879-1.815,3.912V38.558l-2.145,1.876v3.912l2.145,4.223v2.344l1.815,2.19V59.36Z" transform="translate(317.777 40.144)" fill="#d0d0d0" fill-rule="evenodd"/>
          <path id="Path_2229" data-name="Path 2229" d="M199.722,136.787h72.767l2.97-2.347,4.125,2.347H297.24l2.145,1.876h6.1l2.475-4.223,6.27-1.876v-3.912l11.387-6.882-4.292-4.223,1.815-3.909-4.455-4.38L301.035,82.2,294.763,68.12,284.2,55.451l-2.8-4.537-1.815-6.568,1.815-1.879L292.783,61.4l8.252,8.446,4.455-1.722-1.98-4.534,4.455-12.672L297.24,30.269,281.4,31.988l-4.455-3.909-1.485,3.909-4.785-1.719v-2.19l-6.932-2.033-6.435,2.033-11.384,3.909-6.272,2.19-6.929-3.909-6.434,1.719-8.744-3.909-13.037-2.033h-6.27l-2.97-1.879-1.815,3.912V38.558l-2.145,1.876v3.912l2.145,4.223v2.344l1.815,2.19V59.36Z" transform="translate(317.777 40.144)" fill="none" stroke="#fff" stroke-linejoin="round" stroke-width="2"/>
          <path id="Path_2230" data-name="Path 2230" d="M249.508,129.247h4.356l2.419-1.871h1.937l2.419,4.207,4.356-8.257,1.775,1.714h2.581l1.775,2.336H277.9v-2.336l1.935,2.336,4.356-2.336,4.356,2.336h4.194l6.291,1.871,6.453,8.414,6.453,4.21,2.581,4.207,4.356,1.714L320.329,152l8.71-5.921-23.553-21.038L290,120.832l-1.45-5.924-4.356-2.493-4.356-4.05-1.935-12-6.775-10.751-1.775-1.871-2.581,4.519-8.55,3.9-5.969,5.924v6.078l-4.678,16.674Z" transform="translate(411.237 139.102)" fill="#d0d0d0" fill-rule="evenodd"/>
          <path id="Path_2231" data-name="Path 2231" d="M249.508,129.247h4.356l2.419-1.871h1.937l2.419,4.207,4.356-8.257,1.775,1.714h2.581l1.775,2.336H277.9v-2.336l1.935,2.336,4.356-2.336,4.356,2.336h4.194l6.291,1.871,6.453,8.414,6.453,4.21,2.581,4.207,4.356,1.714L320.329,152l8.71-5.921-23.553-21.038L290,120.832l-1.45-5.924-4.356-2.493-4.356-4.05-1.935-12-6.775-10.751-1.775-1.871-2.581,4.519-8.55,3.9-5.969,5.924v6.078l-4.678,16.674Z" transform="translate(411.237 139.102)" fill="none" stroke="#fff" stroke-linejoin="round" stroke-width="2"/>
          <path id="Path_2232" data-name="Path 2232" d="M336.726,152.843l-10.812,15.184v44.126l6.778,8.7-2.422,2.531-9.037,8.223-5.809-2.214v8.542L304.29,256.439l-17.427-10.282-1.775-8.223-2.584-2.69-40.826-23.09H239.9V197.6l10.49-15.184V168.027l-1.937-2.69-2.422-1.581-4.356-10.913-4.034-2.688,6.615-6.011h27.758l10.487,8.7,4.359,1.9,13.071,2.057h4.356l6.778-2.057,1.775-4.585,8.39-1.583,9.037,4.271Z" transform="translate(394.744 239.434)" fill="#0097da" fill-rule="evenodd"/>
          <path id="Path_2233" data-name="Path 2233" d="M336.726,152.843l-10.812,15.184v44.126l6.778,8.7-2.422,2.531-9.037,8.223-5.809-2.214v8.542L304.29,256.439l-17.427-10.282-1.775-8.223-2.584-2.69-40.826-23.09H239.9V197.6l10.49-15.184V168.027l-1.937-2.69-2.422-1.581-4.356-10.913-4.034-2.688,6.615-6.011h27.758l10.487,8.7,4.359,1.9,13.071,2.057h4.356l6.778-2.057,1.775-4.585,8.39-1.583,9.037,4.271Z" transform="translate(394.744 239.434)" fill="none" stroke="#fff" stroke-linejoin="round" stroke-width="2"/>
          <path id="Path_2234" data-name="Path 2234" d="M286.107,106.91l2.773,4.314,1.956,6.469-6.36,2.488,4.4,4.479-2.773,6.472-1.631-1.99-7.177,1.99-4.077-1.99v-6.969l4.077-8.957Z" transform="translate(453.843 177.586)" fill="#848286" fill-rule="evenodd"/>
          <path id="Path_2235" data-name="Path 2235" d="M286.107,106.91l2.773,4.314,1.956,6.469-6.36,2.488,4.4,4.479-2.773,6.472-1.631-1.99-7.177,1.99-4.077-1.99v-6.969l4.077-8.957Z" transform="translate(453.843 177.586)" fill="none" stroke="#fff" stroke-linejoin="round" stroke-width="2"/>
          <path id="Path_2236" data-name="Path 2236" d="M271.57,104.842,178.433,60.575h-4.375l-8.1,1.889-2.43,19.061,6.158,8.193,6.477,4.1-4.047,6.775-4.537,14.492v19.378l-1.621,1.732-20.245,21.267-1.458,5.671-2.592,2.677,2.592,6.144,6.155,8.507,4.372,2.363v1.889h2.432l1.943,10.871v10.24l6.8,9.926-4.7,2.834h-8.585l-2.267,1.735v6.615l2.267,1.889,6.48,4.255,2.1,2.363,4.7,14.492h6.158l6.317-4.409,6.8,2.677,5.83-4.252,13.446-2.363,4.372-2.206,1.783-3.938-1.783-2.363,4.375-2.206,14.9-2.049,6.8-4.566,1.458-3.938,4.7-4.569,4.05-5.671,10.852-4.255v-4.569l-2.1-1.416-4.05-15.126-4.7,2.363v-4.252l2.1-8.507,2.592-4.252,1.458-6.932,4.7-5.671,2.432-6.775,10.365-2.046,2.754-2.049Z" transform="translate(235.312 100.619)" fill="#d0d0d0" fill-rule="evenodd"/>
          <path id="Path_2237" data-name="Path 2237" d="M271.57,104.842,178.433,60.575h-4.375l-8.1,1.889-2.432,19.061,6.158,8.193,6.477,4.1-4.047,6.775-4.537,14.492v19.378l-1.618,1.732-20.248,21.267-1.458,5.671-2.592,2.677,2.592,6.144,6.155,8.507,4.372,2.363v1.889h2.432l1.943,10.871v10.24l6.8,9.926-4.7,2.834h-8.585l-2.267,1.735v6.615l2.267,1.889,6.48,4.255,2.1,2.363,4.7,14.492h6.155l6.317-4.409,6.8,2.677,5.83-4.252,13.446-2.363,4.372-2.206,1.783-3.938-1.783-2.363,4.375-2.206,14.9-2.049,6.8-4.566,1.458-3.938,4.7-4.569,4.05-5.671,10.852-4.255v-4.569l-2.1-1.416-4.05-15.126-4.7,2.363v-4.252l2.1-8.507,2.592-4.252,1.458-6.932,4.7-5.671,2.432-6.775,10.365-2.046,2.754-2.049Z" transform="translate(235.312 100.619)" fill="none" stroke="#fff" stroke-linejoin="round" stroke-width="2"/>
          <path id="Path_2238" data-name="Path 2238" d="M132.928,110.6l17.608-4.231,28.04-18.654L226.67,58.092l25.759,2.821,8.316,5.644,4.729-1.724L263.68,83.8l6.2,8.151,6.52,4.077-4.074,6.112-4.566,15.048v18.34l-2.281,2.664-19.729,20.535L243.626,165l-1.956,2.2,1.956,6.583h-4.4l-2.121,4.231-8.476,4.231-6.522-2.507H206.781l-4.4,2.507-6.195,4.234H184.936l-10.761-6.741-5.868,2.507-2.773,1.724-17.608-10.187L134.884,175.5l-6.357,4.234-1.794,6.741-2.446,1.41-1.631,4.545v6.583l-7.172-6.583h-8.478v4.234l-2.121-4.234,2.121-1.881-4.729-4.074-1.794,1.41h-4.4l-2.446-1.41-1.631-8.465-8.8-6.584-2.77-8.465,2.77-1.881v-2.35h8.8l6.195-1.881,21.685-1.724,6.847-2.509,1.794-4.074,2.283-1.881Z" transform="translate(133.606 96.495)" fill="#d0d0d0" fill-rule="evenodd"/>
          <path id="Path_2239" data-name="Path 2239" d="M132.928,110.6l17.608-4.231,28.04-18.654L226.67,58.092l25.759,2.821,8.316,5.644,4.729-1.724L263.68,83.8l6.2,8.151,6.52,4.077-4.074,6.112-4.566,15.048v18.34l-2.281,2.664-19.727,20.536L243.626,165l-1.956,2.2,1.956,6.581h-4.4l-2.121,4.234-8.476,4.231-6.522-2.507H206.781l-4.4,2.507-6.195,4.234H184.936l-10.761-6.74-5.868,2.507-2.773,1.724-17.608-10.189L134.884,175.5l-6.357,4.234-1.794,6.74-2.446,1.41-1.631,4.545v6.584l-7.172-6.584h-8.478v4.234l-2.121-4.234,2.121-1.881-4.729-4.074-1.794,1.41h-4.4l-2.446-1.41-1.631-8.465-8.8-6.583-2.77-8.465,2.77-1.881v-2.35h8.8l6.2-1.881,21.682-1.724,6.847-2.509,1.794-4.074,2.283-1.881Z" transform="translate(133.606 96.495)" fill="none" stroke="#fff" stroke-linejoin="round" stroke-width="2"/>
          <path id="Path_2240" data-name="Path 2240" d="M104.175,227.048v-8.4l4.082-5.908,8.651-8.4,4.734-10.727,4.079-2.177,13.223-3.888,23.668-14.923,11.589-1.711h8.816l6.2-2.488,21.709-1.708,6.2-2.488,2.448-4.042,2.286-1.865,2.121-35.291-6.855,1.865-4.079-1.865V114.8l-15.019-6.685-2.121-4.042H193.3l-4.079-6.065-63.5-43.53-19.1-2.177-2.448,39.179V151.8l2.448,2.331,1.634,4.2-1.634,5.908-4.734,2.488-48.152-2.488H49.655l-6.2,4.2-4.734-1.708-1.631-6.53-4.244,2.02-2.613,6.219-4.407,4.2v14.923l7.02,3.888v10.415l-2.613,2.488,2.613,1.4,4.244-1.4,1.631,1.4,6.53-1.4,2.286,1.4,10.934-5.6,4.082,5.6-1.631,4.508,6.365,3.888-4.734,2.177,4.734,2.331v5.908l4.244,3.888,2.611-3.888h4.082l2.121,2.488,11.264-4.2,1.631,4.2,4.572-2.488Z" transform="translate(42.893 86.874)" fill="#d0d0d0" fill-rule="evenodd"/>
          <path id="Path_2241" data-name="Path 2241" d="M104.175,227.048v-8.4l4.082-5.908,8.651-8.4,4.734-10.727,4.079-2.177,13.223-3.888,23.668-14.923,11.589-1.711h8.816l6.2-2.488,21.709-1.708,6.2-2.488,2.448-4.042,2.286-1.865,2.121-35.291-6.855,1.865-4.079-1.865V114.8l-15.019-6.685-2.121-4.042H193.3l-4.079-6.065-63.5-43.53-19.1-2.177-2.448,39.179V151.8l2.448,2.331,1.634,4.2-1.634,5.908-4.734,2.488-48.152-2.488H49.655l-6.2,4.2-4.734-1.708-1.631-6.53-4.244,2.02-2.613,6.219-4.407,4.2v14.923l7.02,3.888v10.415l-2.613,2.488,2.613,1.4,4.244-1.4,1.631,1.4,6.53-1.4,2.286,1.4,10.934-5.6,4.082,5.6-1.631,4.508,6.365,3.888-4.734,2.177,4.734,2.331v5.908l4.244,3.888,2.611-3.888h4.082l2.121,2.488,11.264-4.2,1.631,4.2,4.572-2.488Z" transform="translate(42.893 86.874)" fill="none" stroke="#fff" stroke-linejoin="round" stroke-width="2"/>
          <path id="Path_2242" data-name="Path 2242" d="M58.329,189.893l4.447-4.25,2.634-6.3,4.282-2.046,1.647,6.613,4.774,1.732,6.916-4.252h4.117l47.918,2.52,4.777-2.52,2.3-5.982-2.3-4.252-1.812-2.36V107.709l1.812-39.677,20.253,2.206L122.219,42.371l-1.975,12.752H83.029L78.583,83.147l-4.447,3.936L65.41,89.289,60.964,90.7v19.365H14.858l-4.447,4.252,8.891,8.5-2.634,5.982-4.444,4.25,4.444,6.613v12.124l-8.726,17-1.977,4.25,6.259-4.25H19.3l10.706-1.889,6.916,4.25,1.975,1.889H43.18l2.634,2.363v3.936l3.787,2.046v2.52Z" transform="translate(9.907 70.382)" fill="#d0d0d0" fill-rule="evenodd"/>
          <path id="Path_2243" data-name="Path 2243" d="M58.329,189.893l4.447-4.25,2.634-6.3,4.282-2.046,1.647,6.613,4.774,1.732,6.916-4.252h4.117l47.918,2.52,4.777-2.52,2.3-5.982-2.3-4.252-1.812-2.36V107.709l1.812-39.677,20.253,2.206L122.219,42.371l-1.975,12.752H83.029L78.583,83.147l-4.447,3.936L65.41,89.289,60.964,90.7v19.365H14.858l-4.447,4.252,8.891,8.5-2.634,5.982-4.444,4.252,4.444,6.61v12.124l-8.726,17-1.977,4.25,6.259-4.25H19.3l10.706-1.889,6.916,4.25,1.975,1.889H43.18l2.634,2.363v3.936l3.787,2.046v2.52Z" transform="translate(9.907 70.382)" fill="none" stroke="#fff" stroke-linejoin="round" stroke-width="2"/>
          <path id="Path_2244" data-name="Path 2244" d="M7.619,120.53l4.455-12.914,4.455-2.39L29.068,86.252l11.381-8.609L49.358,58.99l10.724-4.622L71.467,39.061l50.648,2.871-2.475,5.74-1.98,12.912H80.376L75.921,88.325l-4.455,3.986L62.722,95.18l-4.455,1.434v19.61H12.074Z" transform="translate(12.656 64.883)" fill="#d0d0d0" fill-rule="evenodd"/>
          <path id="Path_2245" data-name="Path 2245" d="M7.619,120.53l4.455-12.914,4.455-2.39L29.068,86.252l11.381-8.609L49.358,58.99l10.724-4.622L71.467,39.061l50.648,2.871-2.475,5.74-1.98,12.912H80.376L75.921,88.325l-4.455,3.986L62.722,95.18l-4.455,1.434v19.61H12.074Z" transform="translate(12.656 64.883)" fill="none" stroke="#fff" stroke-linejoin="round" stroke-width="2"/>
          <path id="Path_2246" data-name="Path 2246" d="M44.5,136.234H29.34l-19.277,3.941-2.8-1.666v-6.368l20.267-5.916H29.34l8.9,3.792,1.812-1.972,2.637-1.82H36.259l-6.919-4.093-8.9,4.093H10.064l-2.8-4.093-1.977-6.671L1,111.672,7.261,110l8.9-10.463L14.18,95.447l6.262-4.1h7.086l10.708-1.818L44.5,93.627l2.637,1.82h4.282l1.977,2.273v3.792l4.449,1.972v2.424l8.734,5.764v14.553l7.084,3.792v10.157H57.843l-6.426-3.941Z" transform="translate(1.661 148.724)" fill="#d0d0d0" fill-rule="evenodd"/>
          <path id="Path_2247" data-name="Path 2247" d="M44.5,136.234H29.34l-19.277,3.941-2.8-1.666v-6.368l20.267-5.916H29.34l8.9,3.792,1.812-1.972,2.637-1.82H36.259l-6.919-4.093-8.9,4.093H10.064l-2.8-4.093-1.977-6.671L1,111.672,7.261,110l8.9-10.463L14.18,95.447l6.262-4.1h7.086l10.708-1.818L44.5,93.627l2.637,1.82h4.282l1.977,2.273v3.792l4.449,1.972v2.424l8.734,5.764v14.553l7.084,3.792v10.157H57.843l-6.426-3.941Z" transform="translate(1.661 148.724)" fill="none" stroke="#fff" stroke-linejoin="round" stroke-width="2"/>
          <path id="Path_2248" data-name="Path 2248" d="M4.621,108.389l-1.967,2.794,10.809,6.408h4.26v6.573l4.42,4.763,4.423-2.464,2.621-4.436,8.678-1.972,1.967-4.766v-2.134l2.456-1.972V106.91H26.567L7.4,111.183Z" transform="translate(4.409 177.585)" fill="#d0d0d0" fill-rule="evenodd"/>
          <path id="Path_2249" data-name="Path 2249" d="M4.621,108.389l-1.967,2.794,10.809,6.408h4.26v6.573l4.42,4.766,4.423-2.467,2.621-4.436,8.678-1.972,1.967-4.766v-2.134l2.456-1.972V106.91H26.567L7.4,111.183Z" transform="translate(4.409 177.585)" fill="none" stroke="#fff" stroke-linejoin="round" stroke-width="2"/>
          <path id="Path_2250" data-name="Path 2250" d="M58.648,111.075H42.9l-6.395-4.165h-6.89v4.165L27.814,113v2.081l-2.624,4.646L16.5,121.65l-1.967,4.327-4.428,2.4,6.395,8.651,6.89,4.327,6.232,10.415,4.1-2.4,7.217-4.008v-4H54.22l4.428,1.762,5.9,10.256-1.642,7.049h4.431l6.067-2.563,2.789,4L78,173.243l4.428,1.924,6.725-4.327h2.132l2.459-4.327,1.642-1.762-4.1-2.885,4.1-4h2.789l-2.789-4.487,2.789-1.6-4.431-6.411v-4l4.431-2.885-4.431-4V128.38l-4.59-2.4,4.59-2.243-6.887-4.008,2.3-4.646-4.1-6.73-11.645,6.73L71.77,113l-7.217,2.081L62.911,113l-4.263,2.081L56.024,113Z" transform="translate(16.78 177.587)" fill="#d0d0d0" fill-rule="evenodd"/>
          <path id="Path_2251" data-name="Path 2251" d="M58.648,111.075H42.9l-6.395-4.165h-6.89v4.165L27.814,113v2.081l-2.624,4.646L16.5,121.65l-1.967,4.327-4.428,2.4,6.395,8.651,6.89,4.327,6.232,10.415,4.1-2.4,7.217-4.008v-4H54.22l4.428,1.762,5.9,10.256-1.642,7.049h4.431l6.067-2.563,2.789,4L78,173.243l4.428,1.924,6.725-4.327h2.132l2.459-4.327,1.642-1.762-4.1-2.885,4.1-4h2.789l-2.789-4.487,2.789-1.6-4.431-6.411v-4l4.431-2.885-4.431-4V128.38l-4.59-2.4,4.59-2.243-6.887-4.008,2.3-4.646-4.1-6.73-11.645,6.73L71.77,113l-7.217,2.081L62.911,113l-4.263,2.081L56.024,113Z" transform="translate(16.78 177.587)" fill="none" stroke="#fff" stroke-linejoin="round" stroke-width="2"/>
          <path id="Path_2252" data-name="Path 2252" d="M54.979,138.864H50.509l1.655-6.919L46.2,121.879l-4.471-1.73H28.313v3.93l-6.293,4.4-4.471,1.889,4.471,14.468,4.473,6.6,12.587,3.933,11.429-10.538Z" transform="translate(29.15 199.577)" fill="#d0d0d0" fill-rule="evenodd"/>
          <path id="Path_2253" data-name="Path 2253" d="M54.979,138.864H50.509l1.655-6.919L46.2,121.879l-4.471-1.73H28.313v3.93l-6.293,4.4-4.471,1.889,4.471,14.468,4.473,6.6,12.587,3.933,11.429-10.538Z" transform="translate(29.15 199.577)" fill="none" stroke="#fff" stroke-linejoin="round" stroke-width="2"/>
          <path id="Path_2254" data-name="Path 2254" d="M62.644,138.165l2.781,6.349-2.781,4.6v1.589l4.745,2.7,6.874,8.574-2.618,14.6h-9L49.716,165.947,38.75,155.311l-8.51-4.6-4.417-6.192,11.291-10,4.42-6.669,6.054-1.905,2.129,3.97,2.454,10.636,4.42,1.905Z" transform="translate(42.893 209.197)" fill="#d0d0d0" fill-rule="evenodd"/>
          <path id="Path_2255" data-name="Path 2255" d="M62.644,138.165l2.781,6.349-2.781,4.6v1.589l4.745,2.7,6.874,8.574-2.618,14.6h-9L49.716,165.947,38.75,155.311l-8.51-4.6-4.417-6.192,11.291-10,4.42-6.669,6.054-1.905,2.129,3.97,2.454,10.636,4.42,1.905Z" transform="translate(42.893 209.197)" fill="none" stroke="#fff" stroke-linejoin="round" stroke-width="2"/>
          <path id="Path_2256" data-name="Path 2256" d="M48.051,191.7l8.643-2.028h6.722l5.921-3.9,19.846-4.524h3.361l11.363,1.716h4v-3.9l-4-5.926V162.379l1.6-4.21,2.4-6.238,4.641-6.083-2.4-14.974h-2.241l-2.4-3.9-6.081-1.716-6.882,1.716H84.7l-4-5.926-6.882-2.5-4.481,2.5-1.6-4.21-11.043,4.21-2.081-2.5h-4l-2.56,3.9-4.162,2.8v3.9l4.162,6.238-2.081,2.028,2.081,4.524H45.97l-4,3.9,4,2.182-2.081,2.342-1.919,3.587H39.889L41.97,160.2l-2.081,4.524v1.559l4,2.65,6.722,8.422Z" transform="translate(66.259 194.079)" fill="#848286" fill-rule="evenodd"/>
          <path id="Path_2257" data-name="Path 2257" d="M48.051,191.7l8.643-2.028h6.722l5.921-3.9,19.846-4.524h3.361l11.363,1.716h4v-3.9l-4-5.929V162.379l1.6-4.21,2.4-6.238,4.641-6.083-2.4-14.974h-2.241l-2.4-3.9-6.081-1.716-6.882,1.716H84.7l-4-5.926-6.882-2.5-4.481,2.5-1.6-4.21-11.043,4.21-2.081-2.5h-4l-2.56,3.9-4.162,2.8v3.9l4.162,6.238-2.081,2.028,2.081,4.524H45.97l-4,3.9,4,2.182-2.081,2.342-1.919,3.587H39.889L41.97,160.2l-2.081,4.524v1.559l4,2.65,6.722,8.422Z" transform="translate(66.259 194.079)" fill="none" stroke="#fff" stroke-linejoin="round" stroke-width="2"/>
          <path id="Path_2258" data-name="Path 2258" d="M63.884,186.879l6.381,2.821,6.544,1.722,4.417-1.722,10.634-4.542,13.252-6.581h8.672l2.943-1.565-4.745-6.892-2.289-3.289V139.1l-2.129-13-4.09-3.917-2.453-7.832-9.162,3.917-19.141-2.038-4.745,2.038,2.291,16.288L72.719,149.6l-4.745,6.11-2.454,6.578-1.637,4.542v10.181l4.09,5.95v3.917h-4.09Z" transform="translate(106.117 189.955)" fill="#848286" fill-rule="evenodd"/>
          <path id="Path_2259" data-name="Path 2259" d="M63.884,186.879l6.381,2.818,6.544,1.724,4.417-1.724,10.634-4.54,13.252-6.581h8.672l2.943-1.565-4.745-6.892-2.289-3.289V139.1l-2.129-13-4.09-3.917-2.453-7.832-9.162,3.917-19.141-2.038-4.745,2.038,2.291,16.288L72.719,149.6l-4.745,6.11-2.454,6.578-1.637,4.542v10.181l4.09,5.95v3.917h-4.09Z" transform="translate(106.117 189.955)" fill="none" stroke="#fff" stroke-linejoin="round" stroke-width="2"/>
          <path id="Path_2260" data-name="Path 2260" d="M148.088,134.329l-2.1-4.167,2.1-1.852-4.7-4.013-1.78,1.389h-4.375l-2.43-1.389-1.618-8.334-8.747-6.482-2.752-8.332,2.752-1.852V96.981L113.592,99.3l-24.133,14.2L76.34,117.66l-4.048,2.469-4.05,10.032L59.66,138.5l-4.05,6.482v8.334l4.05,5.865h8.582l6.317-1.7,6.155,1.7,2.43,3.856h2.267l-2.267-16.2,4.7-1.852,18.947,1.852,9.072-4.167,14.575,2.315,6.8-6.482,6.155,2.007Z" transform="translate(92.372 161.093)" fill="#d0d0d0" fill-rule="evenodd"/>
          <path id="Path_2261" data-name="Path 2261" d="M148.088,134.329l-2.1-4.167,2.1-1.852-4.7-4.013-1.78,1.389h-4.375l-2.43-1.389-1.618-8.334-8.747-6.482-2.752-8.332,2.752-1.852V96.981L113.592,99.3l-24.133,14.2L76.34,117.66l-4.048,2.469-4.05,10.032L59.66,138.5l-4.05,6.482v8.334l4.05,5.865h8.582l6.317-1.7,6.155,1.7,2.43,3.856h2.267l-2.267-16.2,4.7-1.852,18.947,1.852,9.072-4.167,14.575,2.315,6.8-6.482,6.155,2.007Z" transform="translate(92.372 161.093)" fill="none" stroke="#fff" stroke-linejoin="round" stroke-width="2"/>
          <path id="Path_2262" data-name="Path 2262" d="M77.95,114.357l2.438,7.706,4.063,3.853,2.116,12.792v26.664l2.275,3.853,4.713,6.783,8.617-4.162-2.765-4.162,2.765-22.5-4.715-14.8-6.826-5.857,2.925-8.324Z" transform="translate(129.482 189.955)" fill="#d0d0d0" fill-rule="evenodd"/>
          <path id="Path_2263" data-name="Path 2263" d="M77.95,114.357l2.438,7.706,4.063,3.853,2.116,12.792v26.664l2.275,3.853,4.713,6.783,8.617-4.162-2.765-4.162,2.765-22.5-4.715-14.8-6.826-5.857,2.925-8.324Z" transform="translate(129.482 189.955)" fill="none" stroke="#fff" stroke-linejoin="round" stroke-width="2"/>
          <path id="Path_2264" data-name="Path 2264" d="M93.963,182.053h11.049l1.977-25.6,4.452-13.2,7.257-5.724-2.8-4.292,4.455-2.544-1.65-8.425-2.8-2.227,2.8-3.976-7.257-6.677h-8.574v4.292l-4.782,6.36-6.267-2.068-6.924,6.679-1.98,8.585,6.432,6.043,4.617,15.264-2.145,23.213Z" transform="translate(137.728 181.709)" fill="#848286" fill-rule="evenodd"/>
          <path id="Path_2265" data-name="Path 2265" d="M93.963,182.053h11.049l1.977-25.6,4.452-13.2,7.257-5.724-2.8-4.292,4.455-2.544-1.65-8.425-2.8-2.227,2.8-3.976-7.257-6.677h-8.574v4.292l-4.782,6.36-6.267-2.068-6.924,6.679-1.98,8.585,6.432,6.043,4.617,15.264-2.145,23.213Z" transform="translate(137.728 181.709)" fill="none" stroke="#fff" stroke-linejoin="round" stroke-width="2"/>
          <path id="Path_2266" data-name="Path 2266" d="M91.189,192.257l15.346-2.64,6.929,2.64,6.6,5.748,4.125,14.913,6.272,4.351,31.02-2.331,4.457-8.7V198l2.475-1.554,6.434-6.834,2.477-3.885h13.364l3.8,3.885h4.29l2.64-1.554,10.727-20.818,4.455-4.194,4.125-12.584,4.622-12.43,2.64-1.863,10.724-8.39-2.145-6.525-2.31-1.863v-8.233l-6.269-8.39H223.53l-2.8,4.194-8.579,4.2-6.6-2.485H190.692l-4.455,2.485-6.929,4.194H168.416l-11.387-6.679-5.94,2.485-2.8,1.708-17.821-10.1-12.542,1.708-7.1,4.2-1.815,6.679-2.475,1.4-1.65,4.505v6.525l-2.8,3.885,2.8,2.174,1.65,8.233-4.455,2.485,2.8,4.2-7.262,5.591-4.455,12.9Z" transform="translate(151.472 170.714)" fill="#d0d0d0" fill-rule="evenodd"/>
          <path id="Path_2267" data-name="Path 2267" d="M91.189,192.257l15.346-2.64,6.929,2.64,6.6,5.748,4.125,14.915,6.272,4.348,31.02-2.331,4.457-8.7V198l2.475-1.554,6.434-6.834,2.477-3.885h13.364l3.8,3.885h4.29l2.64-1.554,10.727-20.818,4.455-4.194,4.125-12.584,4.622-12.43,2.64-1.863,10.724-8.39-2.145-6.525-2.31-1.863v-8.233l-6.269-8.39H223.53l-2.8,4.194-8.579,4.2-6.6-2.485H190.692l-4.455,2.485-6.929,4.194H168.416l-11.387-6.679-5.94,2.485-2.8,1.708-17.821-10.1-12.542,1.708-7.1,4.2-1.815,6.679-2.475,1.4-1.65,4.505v6.525l-2.8,3.885,2.8,2.174,1.65,8.233-4.455,2.485,2.8,4.2-7.262,5.591-4.455,12.9Z" transform="translate(151.472 170.713)" fill="none" stroke="#fff" stroke-linejoin="round" stroke-width="2"/>
          <path id="Path_2268" data-name="Path 2268" d="M117.667,209.958h6.775v6.27H128.8l8.71,11.129-2.419,10.032h17.26l10.482-1.881,15.485,1.881h12.741l21.291,6.584V228.924l-4.354-1.567-4.356-4.388-10.485-17.241V195.538l10.485-21.161-4.032-14.42-2.1-2.35-6.453-4.231-2.257-1.881v-6.584l2.257-1.724h8.55l4.032-2.821-6.128-9.875V119.676l-1.935-10.189h-2.422v-1.881l-4.354-2.35v8.308l2.257,1.879,2.1,6.583-10.482,8.465-2.581,1.881-4.516,12.539-4.034,12.7-4.354,4.231-10.485,21-2.581,2.2h-4.194l-3.71-3.92H133.152l-2.419,3.92-6.291,6.27-2.419,1.567v8.308Z" transform="translate(195.454 174.837)" fill="#848286" fill-rule="evenodd"/>
          <path id="Path_2269" data-name="Path 2269" d="M117.667,209.958h6.775v6.27H128.8l8.71,11.129-2.419,10.032h17.26l10.482-1.881,15.485,1.881h12.741l21.291,6.584V228.924l-4.354-1.567-4.356-4.388-10.485-17.241V195.538l10.485-21.161-4.032-14.42-2.1-2.35-6.453-4.231-2.257-1.881v-6.584l2.257-1.724h8.55l4.032-2.821-6.128-9.875V119.676l-1.935-10.189h-2.422v-1.881l-4.354-2.35v8.308l2.257,1.879,2.1,6.583-10.482,8.465-2.581,1.881-4.516,12.539-4.034,12.7-4.354,4.231-10.485,21-2.581,2.2h-4.194l-3.71-3.92H133.152l-2.419,3.92-6.291,6.27-2.419,1.567v8.308Z" transform="translate(195.454 174.837)" fill="none" stroke="#fff" stroke-linejoin="round" stroke-width="2"/>
          <path id="Path_2270" data-name="Path 2270" d="M128.747,154.9l-2.584,4.859L121.8,168.3l4.359,2.012,19.86-2.012V154.9Z" transform="translate(202.326 257.302)" fill="#d0d0d0" fill-rule="evenodd"/>
          <path id="Path_2271" data-name="Path 2271" d="M128.747,154.9l-2.584,4.859L121.8,168.3l4.359,2.012,19.862-2.012V154.9Z" transform="translate(202.326 257.302)" fill="none" stroke="#fff" stroke-linejoin="round" stroke-width="2"/>
          <path id="Path_2272" data-name="Path 2272" d="M175.241,156.772l-2.725,4.524v6.549l8.494-2.65,6.568,4.055v4.21l-3.686,6.706v4.055l1.764,12.321-1.764,14.974h-2.882l-5.769-2.653h-4.327l-4.324-3.9-12.818,10.45v10.139h-4.327v4.21l-11.057-9.825-6.089-4.524-8.651-10.45-4.327-12.943,6.089-4.055V177.672l4.327-5.929,19.708-2.494V156.772L159.86,154.9Z" transform="translate(198.202 257.302)" fill="#d0d0d0" fill-rule="evenodd"/>
          <path id="Path_2273" data-name="Path 2273" d="M175.241,156.772l-2.725,4.524v6.549l8.494-2.65,6.568,4.055v4.21l-3.686,6.706v4.055l1.764,12.321-1.764,14.974h-2.882l-5.769-2.653h-4.327l-4.324-3.9-12.818,10.45v10.139h-4.327v4.21l-11.057-9.825-6.089-4.524-8.651-10.45-4.327-12.943,6.089-4.055V177.672l4.327-5.929,19.708-2.494V156.772L159.86,154.9Z" transform="translate(198.202 257.302)" fill="none" stroke="#fff" stroke-linejoin="round" stroke-width="2"/>
          <path id="Path_2274" data-name="Path 2274" d="M191.365,158.835v15.12l-21.454-6.615h-12.84l-2.762,4.569v6.613l8.614-2.677,6.988,4.1v4.252l-4.064,6.144V194.9l1.788,12.6-1.788,15.12h-2.924l-5.852-2.677h-4.388l-4.388-3.938-13,10.554V236.8h-4.388v4.252l1.788,2.52,8.776,12.6,8.776-8.348,2.438,1.732,6.176,2.52,4.063-4.252h6.988l2.113,4.252,5.852-2.52,11.538-8.5,1.951-8.348,2.113-8.191v-6.456l6.663-6.615,11.214-8.5,1.788-8.034V179.94l2.275-9.923,6.5-12.757,1.464-8.979Z" transform="translate(217.444 246.306)" fill="#d0d0d0" fill-rule="evenodd"/>
          <path id="Path_2275" data-name="Path 2275" d="M191.365,158.835v15.12l-21.454-6.615h-12.84l-2.762,4.569v6.615l8.614-2.68,6.988,4.1v4.252l-4.064,6.144V194.9l1.788,12.6-1.788,15.12h-2.924l-5.852-2.677h-4.388l-4.388-3.938-13,10.554V236.8h-4.388v4.252l1.788,2.52,8.776,12.6,8.776-8.348,2.438,1.732,6.176,2.52,4.063-4.252h6.988l2.113,4.252,5.852-2.52,11.538-8.5,1.951-8.348,2.113-8.191v-6.456l6.663-6.615,11.214-8.5,1.788-8.034V179.94l2.275-9.923,6.5-12.757,1.464-8.979Z" transform="translate(217.444 246.306)" fill="none" stroke="#fff" stroke-linejoin="round" stroke-width="2"/>
          <path id="Path_2276" data-name="Path 2276" d="M238.7,179.7v3.7l-1.514,2.515h-7.233l-2.185,1.775-2.523,1.921h-4.207l-2.355-1.921-2.523,1.921-1.682-3.7,6.56-10.5,2.187-1.626h4.542l2.185-2.07,4.2-1.921Z" transform="translate(356.26 282.042)" fill="#848286" fill-rule="evenodd"/>
          <path id="Path_2277" data-name="Path 2277" d="M238.7,179.7v3.7l-1.514,2.515h-7.233l-2.185,1.775-2.523,1.921h-4.207l-2.355-1.921-2.523,1.921-1.682-3.7,6.56-10.5,2.187-1.626h4.542l2.185-2.07,4.2-1.921Z" transform="translate(356.26 282.042)" fill="none" stroke="#fff" stroke-linejoin="round" stroke-width="2"/>
          <path id="Path_2278" data-name="Path 2278" d="M235.726,180.293v3.917l-1.482,2.664-2.964,1.881v3.917l2.964,2.664v3.917l-7.081,8.462-6.586,4.231h-2.142l-2.3,1.724,4.447,12.693-2.142,6.27,11.033,12.379,4.777,10.812,1.482,4.231,2.634,2.036h4.612l1.647,3.92,15.807,4.231,6.259,4.231,6.256-1.724,2.634,1.724,4.447,2.664V291.4l4.282,6.584h6.424l4.444-2.352,6.916,4.077,6.259-1.724h8.893l6.256-4.231h11.363l10.7-4.231,7.081-4.231-7.081-6.581-4.282-14.418-1.974-15.043,4.117-6.112-11.033-10.5,4.447-12.382,4.444-6.581L323.5,203.484l-1.812-8.148-2.634-2.664-41.662-22.877H231.28Z" transform="translate(359.009 282.042)" fill="#0097da" fill-rule="evenodd"/>
          <path id="Path_2279" data-name="Path 2279" d="M235.726,180.293v3.917l-1.482,2.664-2.964,1.881v3.917l2.964,2.664v3.917l-7.081,8.462-6.586,4.231h-2.142l-2.3,1.724,4.447,12.693-2.142,6.27,11.033,12.379,4.777,10.812,1.482,4.231,2.634,2.036h4.612l1.647,3.92,15.807,4.231,6.259,4.231,6.256-1.724,2.634,1.724,4.447,2.664V291.4l4.282,6.584h6.424l4.444-2.352,6.919,4.077,6.256-1.724h8.893l6.256-4.231h11.363l10.7-4.231,7.081-4.231-7.081-6.581-4.282-14.418-1.974-15.043,4.117-6.112-11.033-10.5,4.447-12.382,4.444-6.581L323.5,203.484l-1.812-8.148-2.634-2.664-41.662-22.877H231.28Z" transform="translate(359.009 282.042)" fill="none" stroke="#fff" stroke-linejoin="round" stroke-width="2"/>
          <path id="Path_2280" data-name="Path 2280" d="M282.817,252.329H267.21l-8.127,4.247-2.765-1.73,4.715-4.247v-2.517L256.318,235.5v-6.134l-1.788-16.829v-4.244H243.476v-4.247L228.521,206.4l-4.228,10.381h-8.779l-6.828,2.36h-6.663l-5.852-10.852-4.391-14.471L183,191.308H147.885l-8.452,4.558v2.2l6.828,10.224,1.623,6.6,4.553,10.538-4.553,6.448,4.553,7.863,6.341,10.852v5.977L156.5,269.315l-4.063,4.247-4.553,2.358-4.063,5.977-6.339,25.163-2.44,6.921v14.468l2.44-2.358h4.388l4.391-1.889h6.176l8.779,5.82h51.7l4.063,2.674,7.315,1.887h8.292l19.671,2.046,19.021-3.933-12.193-12.739V280.166l1.951-2.674h23.734l-4.715-1.573Z" transform="translate(224.316 317.777)" fill="#0097da" fill-rule="evenodd"/>
          <path id="Path_2281" data-name="Path 2281" d="M282.817,252.329H267.21l-8.127,4.247-2.765-1.73,4.715-4.247v-2.517L256.318,235.5v-6.134l-1.788-16.829v-4.244H243.476v-4.247L228.521,206.4l-4.228,10.381h-8.779l-6.826,2.36h-6.666l-5.854-10.852-4.388-14.471L183,191.308H147.885l-8.452,4.558v2.2l6.828,10.224,1.623,6.6,4.553,10.538-4.553,6.448,4.553,7.863,6.341,10.852v5.977L156.5,269.315l-4.063,4.247-4.553,2.358-4.063,5.977-6.339,25.163-2.44,6.921v14.468l2.44-2.358h4.388l4.391-1.889h6.176l8.779,5.82h51.7l4.063,2.674,7.315,1.887h8.292l19.671,2.046,19.021-3.933-12.193-12.739V280.166l1.951-2.674h23.734l-4.715-1.573Z" transform="translate(224.316 317.777)" fill="none" stroke="#fff" stroke-linejoin="round" stroke-width="2"/>
          <path id="Path_2282" data-name="Path 2282" d="M205.571,235.027h4.143v2.5h8.946l6.3,5.937,6.961,2.344,4.806,1.873,5.963-1.873,7.126,4.218,6.3,1.873,6.3,8.124,7.291,2.656h4.143l2.32-6.562v-1.873l-2.32-4.218-6.959,1.873-4.476-6.091v-4.063l4.476-12.653v-6.562l-1.823-4.218v-6.091L269.7,210.5v-2.187l17.566-6.248h4.8l1.493,4.218,2.65,2.03h4.641l1.655,3.907,15.245,4.218,2.485,4.218,1.988,1.873,4.476,10.78-4.476,1.719v6.717l-1.988,8.281,1.988,1.873-4.473,6.562v4.218l-4.473,5.937,2.818,2.5,1.655,1.719L280.3,283.612l2.485,8.436H266.882l-4.476,4.218-1.49,7.5H256.11l-6.3,4.529-7.126,6.562-5.963,3.9h-9.279l-8.784-2.03L214.52,312.2h-8.949l-11.1,2.656L181.379,302.2V262.678l1.988-2.656h24.192l-4.806-1.562Z" transform="translate(301.284 335.643)" fill="#848286" fill-rule="evenodd"/>
          <path id="Path_2283" data-name="Path 2283" d="M205.571,235.027h4.143v2.5h8.946l6.3,5.937,6.961,2.344,4.806,1.873,5.963-1.873,7.126,4.218,6.3,1.873,6.3,8.124,7.291,2.656h4.143l2.32-6.562v-1.873l-2.32-4.218-6.959,1.873-4.476-6.091v-4.063l4.476-12.653v-6.56l-1.823-4.22v-6.091L269.7,210.5v-2.187l17.566-6.248h4.8l1.493,4.218,2.65,2.03h4.641l1.655,3.907,15.245,4.218,2.485,4.218,1.988,1.876,4.476,10.777-4.476,1.719v6.717l-1.988,8.281,1.988,1.873-4.473,6.562v4.218l-4.473,5.937,2.818,2.5,1.655,1.719L280.3,283.612l2.485,8.436H266.882l-4.476,4.218-1.49,7.5H256.11l-6.3,4.529-7.126,6.562-5.963,3.9h-9.279l-8.784-2.03L214.52,312.2h-8.949l-11.1,2.656L181.379,302.2V262.678l1.988-2.656h24.192l-4.806-1.562Z" transform="translate(301.284 335.643)" fill="none" stroke="#fff" stroke-linejoin="round" stroke-width="2"/>
          <path id="Path_2284" data-name="Path 2284" d="M259.676,234.142l-3.808-5.955V213.923l-4.473-2.664-2.65-1.724-6.293,1.724-6.956-4.231,2.485,4.231,1.985,2.664,4.473,10.032-4.473,1.724v6.738l-1.985,8.308,1.985,1.879-4.471,6.583v4.231l-4.471,5.955,2.815,2.509,1.655,1.724,6.956,6.738,6.293-2.507,4.473,2.507v8.308l-4.473,6.113,4.473,8.305,4.471,4.231,4.473-8.619h1.82l2.65-3.917,1.823-6.113v-8.308l-10.767-12.7-1.82-2.507-2.65-14.418,2.65-6.584Z" transform="translate(383.749 343.89)" fill="#848286" fill-rule="evenodd"/>
          <path id="Path_2285" data-name="Path 2285" d="M259.678,234.142l-3.811-5.955V213.923L251.4,211.26l-2.65-1.724-6.293,1.724-6.956-4.231,2.485,4.231,1.985,2.664,4.473,10.032-4.473,1.724v6.738l-1.985,8.308,1.985,1.879-4.471,6.583v4.231l-4.473,5.955,2.818,2.509,1.655,1.724,6.956,6.738,6.293-2.507,4.473,2.507v8.308l-4.473,6.113,4.473,8.305,4.471,4.231,4.473-8.619h1.82l2.65-3.917,1.823-6.113v-8.308l-10.767-12.7-1.823-2.507-2.648-14.418,2.648-6.584Z" transform="translate(383.747 343.89)" fill="none" stroke="#fff" stroke-linejoin="round" stroke-width="2"/>
          <path id="Path_2286" data-name="Path 2286" d="M234.4,392.2V404.38h8.715l1.975-5.931-4.441-2.342,4.441-6.089,23.843-8.43,4.439-3.747L276,371.75v-4.526l1.809-12.177-4.441-19.2-4.439-4.529,2.632-5.775,8.715-6.557,4.439-5.934,6.413-2.5,13.156-14.362,10.69-4.215,8.55-1.716,15.786-12.645,9.21-8.433v-6.557l-2.632-21.233,2.632-5.775V212.82l-7.071,3.592-10.69,4.215H319.415l-6.248,4.215h-8.88l-6.248,2.342-6.908-4.061-4.439,1.719H276L273.37,231.4,276,245.762l1.809,2.5,11.347,12.645v8.273l-2.467,6.089-1.974,3.9H282.25l-4.439,8.587-4.441-4.215-4.439-8.276,4.439-6.089v-8.273l-4.439-2.5-6.248,2.5-6.248-6.714-37.822,10.772,2.467,8.43v4.218h10.687l17.76,8.116,2.467,8.43v10.461l-4.439,8.43,1.972,12.491-8.88,16.861-8.88,9.835v2.81l2.632,18.266Z" transform="translate(363.133 353.51)" fill="#848286" fill-rule="evenodd"/>
          <path id="Path_2287" data-name="Path 2287" d="M234.4,392.2V404.38h8.715l1.975-5.931-4.441-2.342,4.441-6.089,23.843-8.43,4.439-3.747L276,371.75v-4.526l1.809-12.177-4.441-19.2-4.439-4.529,2.632-5.775,8.715-6.557,4.439-5.934,6.413-2.5,13.156-14.365,10.69-4.215,8.55-1.716,15.786-12.645,9.21-8.433v-6.557l-2.632-21.233,2.632-5.775V212.82l-7.071,3.592-10.69,4.215H319.415l-6.248,4.215h-8.88l-6.248,2.342-6.908-4.061-4.439,1.719H276L273.37,231.4,276,245.762l1.809,2.5,11.347,12.645v8.273l-2.467,6.089-1.974,3.9H282.25l-4.439,8.587-4.441-4.215-4.439-8.276,4.439-6.089v-8.273l-4.439-2.5-6.248,2.5-6.248-6.714-37.822,10.772,2.467,8.43v4.218h10.687l17.76,8.116,2.467,8.43v10.461l-4.439,8.43,1.972,12.491-8.88,16.861-8.88,9.835v2.81l2.632,18.266Z" transform="translate(363.133 353.51)" fill="none" stroke="#fff" stroke-linejoin="round" stroke-width="2"/>
          <path id="Path_2288" data-name="Path 2288" d="M259.614,235.988H243.7l-3.813,4.141-2.156,7.358h-4.809l-6.3,4.447-7.129,6.44-5.969,3.832h-9.287l-8.787-1.993,8.787,18.859,6.466,5.519h4.644l8.622,8.279,2.653,8.587,1.825,3.68,15.253,6.9,4.479-2.454,4.809,2.454H264.09l6.3,3.22v-1.839l8.955-9.66L288.3,287.2l-1.99-12.268,3.813-8.279V255.765l-1.823-8.279-17.909-7.358H259.614Z" transform="translate(324.649 391.994)" fill="#848286" fill-rule="evenodd"/>
          <path id="Path_2289" data-name="Path 2289" d="M259.614,235.988H243.7l-3.813,4.141-2.156,7.358h-4.809l-6.3,4.447-7.129,6.44-5.969,3.832h-9.287l-8.787-1.993,8.787,18.859,6.466,5.519h4.644l8.622,8.279,2.653,8.587,1.825,3.68,15.253,6.9,4.479-2.454,4.809,2.454H264.09l6.3,3.22v-1.839l8.955-9.66L288.3,287.2l-1.99-12.268,3.813-8.279V255.765l-1.823-8.279-17.909-7.358H259.614Z" transform="translate(324.649 391.994)" fill="none" stroke="#fff" stroke-linejoin="round" stroke-width="2"/>
          <path id="Path_2290" data-name="Path 2290" d="M135.043,245.195l2.44-1.727h4.393l4.391-2.515h6.182l8.787,5.812h52.383l4.069,2.672,6.669,1.884h8.3l19.687,2.044,19.684-3.928,10.9-2.672h8.787l4.066,4.556h-4.066l-1.953,2.044-6.834,2.2-6.182,6.285-2.6-6.285h-4.393l-23.588,2.358-2.605,5.969v35.978l-4.228,2.041-4.718-2.041-1.953,4.556v73.523l-10.248,6.128h-13.34L205,379.518l-7-4.242-1.788,4.242h-2.44l-6.671-4.242-6.506-8.484-6.182-22.938v-6.6l-4.393-12.411-2.44-8.483,2.44-2.044v-5.655l-2.44-6.756-6.344-4.556-1.791-3.771-2.927-6.126-1.464-6.6-11.227-16.967-4.391-4.242-4.393-6.283Z" transform="translate(224.316 400.241)" fill="#0097da" fill-rule="evenodd"/>
          <path id="Path_2291" data-name="Path 2291" d="M135.043,245.195l2.44-1.727h4.393l4.391-2.515h6.184l8.784,5.812h52.383l4.069,2.672,6.669,1.884h8.3l19.687,2.044,19.684-3.928,10.9-2.672h8.787l4.066,4.556h-4.066l-1.953,2.044-6.834,2.2-6.182,6.285-2.6-6.285h-4.393l-23.588,2.358-2.605,5.969v35.978l-4.228,2.041-4.718-2.041-1.953,4.556v73.523l-10.248,6.128h-13.34L205,379.518l-7-4.242-1.788,4.242h-2.44l-6.671-4.242-6.506-8.484-6.182-22.938v-6.6l-4.393-12.411-2.44-8.483,2.44-2.044v-5.655l-2.44-6.756-6.344-4.556-1.791-3.771-2.927-6.126-1.464-6.6-11.227-16.967-4.391-4.242-4.393-6.283Z" transform="translate(224.316 400.241)" fill="none" stroke="#fff" stroke-linejoin="round" stroke-width="2"/>
          <path id="Path_2292" data-name="Path 2292" d="M228.486,302.189l-4.6,5.9-6.477,4.191-2.557,2.331-4.26,1.863-6.647-6.057-1.876-3.88,6.136-8.231,9.2-6.054,4.6,1.551Z" transform="translate(335.644 485.455)" fill="#d0d0d0" fill-rule="evenodd"/>
          <path id="Path_2293" data-name="Path 2293" d="M228.486,302.189l-4.6,5.9-6.477,4.191-2.557,2.331-4.26,1.863-6.647-6.057-1.876-3.88,6.136-8.231,9.2-6.054,4.6,1.551Z" transform="translate(335.644 485.455)" fill="none" stroke="#fff" stroke-linejoin="round" stroke-width="2"/>
          <path id="Path_2294" data-name="Path 2294" d="M221.333,240.125h-4.284l-4.761,2.137L208.32,246.7l-4.6,4.436H206.1l6.19-4.436,6.663-4.436Z" transform="translate(338.393 398.866)" fill="#d0d0d0" fill-rule="evenodd"/>
          <path id="Path_2295" data-name="Path 2295" d="M221.333,240.125h-4.284l-4.761,2.137L208.32,246.7l-4.6,4.436H206.1l6.19-4.436,6.663-4.436Z" transform="translate(338.393 398.866)" fill="none" stroke="#fff" stroke-linejoin="round" stroke-width="2"/>
          <path id="Path_2296" data-name="Path 2296" d="M221.333,240.125h-4.284l-4.761,2.137L208.32,246.7l-4.6,4.436H206.1l6.19-4.436,6.663-4.436Z" transform="translate(338.393 398.866)" fill="#d0d0d0" fill-rule="evenodd"/>
          <path id="Path_2297" data-name="Path 2297" d="M221.333,240.125h-4.284l-4.761,2.137L208.32,246.7l-4.6,4.436H206.1l6.19-4.436,6.663-4.436Z" transform="translate(338.393 398.866)" fill="none" stroke="#fff" stroke-linejoin="round" stroke-width="2"/>
          <path id="Path_2298" data-name="Path 2298" d="M235.12,175.586h-6.445l-2.254,1.982L224,179.713h-4.351l-1.935-2.145-2.416,2.145,2.416,1.983v13.212l1.935,7.1h2.416l6.6-4.457,6.445-8.92V184.5l-2.579-2.807v-4.127Z" transform="translate(357.634 291.662)" fill="#848286" fill-rule="evenodd"/>
          <path id="Path_2299" data-name="Path 2299" d="M235.12,175.586h-6.445l-2.254,1.982L224,179.713h-4.351l-1.935-2.145-2.416,2.145,2.416,1.983v13.212l1.935,7.1h2.416l6.6-4.457,6.445-8.92V184.5l-2.579-2.807v-4.127Z" transform="translate(357.634 291.662)" fill="none" stroke="#fff" stroke-linejoin="round" stroke-width="2"/>
          <path id="Path_2300" data-name="Path 2300" d="M232.652,291.9V280.669h-6.69l-2.576,2.161-3.946,3.6v9.652h6.522l2.057-1.586Z" transform="translate(364.506 466.213)" fill="#d0d0d0" fill-rule="evenodd"/>
          <path id="Path_2301" data-name="Path 2301" d="M232.652,291.9V280.669h-6.693l-2.573,2.161-3.946,3.6v9.652h6.52l2.06-1.586Z" transform="translate(364.506 466.213)" fill="none" stroke="#fff" stroke-linejoin="round" stroke-width="2"/>
          <path id="Path_2302" data-name="Path 2302" d="M221.333,240.125h-4.284l-4.761,2.137L208.32,246.7l-4.6,4.436H206.1l6.19-4.436,6.663-4.436Z" transform="translate(338.393 398.866)" fill="#d0d0d0" fill-rule="evenodd"/>
          <path id="Path_2303" data-name="Path 2303" d="M221.333,240.125h-4.284l-4.761,2.137L208.32,246.7l-4.6,4.436H206.1l6.19-4.436,6.663-4.436Z" transform="translate(338.393 398.866)" fill="none" stroke="#fff" stroke-linejoin="round" stroke-width="2"/>
          <path id="Path_2304" data-name="Path 2304" d="M126.475,150.806l-2.776-.939-4.883-1.586-1.15,1.586,1.15,7.222h7.659Z" transform="translate(195.453 246.306)" fill="#d0d0d0" fill-rule="evenodd"/>
          <path id="Path_2305" data-name="Path 2305" d="M126.475,150.806l-2.776-.939-4.883-1.586-1.15,1.586,1.15,7.222h7.659Z" transform="translate(195.453 246.306)" fill="none" stroke="#fff" stroke-linejoin="round" stroke-width="2"/>
          <line id="Line_3" data-name="Line 3" y1="13.212" x2="13.212" transform="translate(299.909 401.192)" fill="#d0d0d0"/>
          <line id="Line_4" data-name="Line 4" y1="13.212" x2="13.212" transform="translate(299.909 401.192)" fill="none" stroke="#fff" stroke-linejoin="round" stroke-width="2"/>
          <path id="Path_2306" data-name="Path 2306" d="M105.255,163.414l3.47-.705,6.1-1.19,1.434,1.19-1.434,5.418h-9.575Z" transform="translate(174.837 268.296)" fill="#d0d0d0" fill-rule="evenodd"/>
          <path id="Path_2307" data-name="Path 2307" d="M105.255,163.414l3.47-.705,6.1-1.19,1.434,1.19-1.434,5.418h-9.575Z" transform="translate(174.837 268.296)" fill="none" stroke="#fff" stroke-linejoin="round" stroke-width="2"/>
          <path id="Path_2308" data-name="Path 2308" d="M115.718,171.94l-2.776.939-4.883,1.586-1.15-1.586,1.15-7.222h7.659Z" transform="translate(177.586 275.169)" fill="#d0d0d0" fill-rule="evenodd"/>
          <path id="Path_2309" data-name="Path 2309" d="M115.718,171.94l-2.776.939-4.883,1.586-1.15-1.586,1.15-7.222h7.659Z" transform="translate(177.586 275.169)" fill="none" stroke="#fff" stroke-linejoin="round" stroke-width="2"/>
          <path id="Path_2310" data-name="Path 2310" d="M4.351,106.355c-1.8,1.921-.386,6.764.49,9.95.208.75,1.389-.559,1.961-1.048,1.083-.923,1.626-2.672,2.94-3.14,3.446-1.229-.684.12,5.881-1.048A25.337,25.337,0,0,0,21.5,109.5c6.1.434,5.743-.609,9.311,1.57.511.311.979.7,1.472,1.048,1.881-.4,2.831-.367,4.409-1.573a13.112,13.112,0,0,0,1.472-1.57c.162-.524.721-1.078.49-1.57s-.958-.452-1.472-.524c-1.951-.279-3.92-.349-5.881-.524a8.281,8.281,0,0,1-1.469-1.57c-.335-.625-.117-1.5-.49-2.1-.679-1.083-2.448-1.307-3.433-1.57-1.307.349-2.8.25-3.92,1.048a10.476,10.476,0,0,1-1.469,1.046,28.815,28.815,0,0,1-4.9,1.573c-4.189,2.983-9.476-.351-11.272,1.57" transform="translate(5.785 167.965)" fill="#848286" fill-rule="evenodd"/>
          <path id="Path_2311" data-name="Path 2311" d="M4.351,106.355c-1.8,1.921-.386,6.764.49,9.95.208.75,1.389-.559,1.961-1.048,1.083-.923,1.626-2.672,2.94-3.14,3.446-1.229-.684.12,5.881-1.048A25.337,25.337,0,0,0,21.5,109.5c6.1.434,5.743-.609,9.311,1.57.511.311.979.7,1.472,1.048,1.881-.4,2.831-.367,4.409-1.573a13.112,13.112,0,0,0,1.472-1.57c.162-.524.721-1.078.49-1.57s-.958-.452-1.472-.524c-1.951-.279-3.92-.349-5.881-.524a8.281,8.281,0,0,1-1.469-1.57c-.335-.625-.117-1.5-.49-2.1-.679-1.083-2.448-1.307-3.433-1.57-1.307.349-2.8.25-3.92,1.048a10.476,10.476,0,0,1-1.469,1.046,28.815,28.815,0,0,1-4.9,1.573C11.435,107.768,6.147,104.434,4.351,106.355Z" transform="translate(5.785 167.965)" fill="none" stroke="#fff" stroke-width="2"/>
          <path id="Path_2312" data-name="Path 2312" d="M279.621,224.02l-.814,1.826-.95,1.083-1.171,2.626-2.283.761-1.118.495-.692-.788-2.081-1.786-.937-.075-.314-1.474-.4-3.462.54-2.909-.476-9.726.695-3.9-.3-.543.043-.9.878-1.969-1.184.394-.24-1.474,2.507-4.734,2.291-1.751.825,1.293-.378,2.054,1.546,1.615-.545,1.227.729.7-.673.623,1.078.482.277,1.559,1.961,2.211,1.575,1.626,1.259.562-.5,2,.726,1.759-.886.939-.926,1.025-.069,1.2-.95,1.083-.343.769Z" transform="translate(446.54 325.091)" fill="#848286" fill-rule="evenodd"/>
          <path id="Path_2313" data-name="Path 2313" d="M279.621,224.02l-.814,1.826-.95,1.083-1.171,2.626-2.283.761-1.118.495-.692-.788-2.081-1.786-.937-.075-.314-1.474-.4-3.462.54-2.909-.479-9.726.7-3.9-.3-.543.043-.9.878-1.969-1.184.394-.24-1.474,2.507-4.734,2.291-1.751.825,1.293-.378,2.054,1.546,1.615-.545,1.227.729.7-.673.623,1.078.482.277,1.559,1.961,2.211,1.575,1.626,1.259.562-.5,2,.726,1.759-.886.939-.926,1.025-.069,1.2-.95,1.083-.343.769Z" transform="translate(446.539 325.091)" fill="none" stroke="#fff" stroke-linejoin="round" stroke-width="2"/>
        </g>
      </g>
    </g>
  </g>
</svg>
