<svg xmlns="http://www.w3.org/2000/svg" width="36.589" height="38.253" viewBox="0 0 36.589 38.253">
  <g id="customer-management-line-svgrepo-com" transform="translate(-109.7 -73.2)">
    <path id="Path_2335" data-name="Path 2335" d="M592.585,548.7l-7.485,4.156v8.318l7.485,4.156,7.485-4.156v-8.318Zm4.156,10.518-4.156,2.31-4.156-2.31v-4.4l4.156-2.31,4.156,2.31Z" transform="translate(-453.781 -453.877)" fill="#0c3eb9"/>
    <path id="Path_2336" data-name="Path 2336" d="M713.145,696.922a1.664,1.664,0,1,0,1.376-1.909A1.664,1.664,0,0,0,713.145,696.922Z" transform="translate(-575.982 -593.515)" fill="#0c3eb9"/>
    <path id="Path_2337" data-name="Path 2337" d="M136.03,91.69a18.29,18.29,0,0,0-1.769-.755,9.977,9.977,0,1,0-12.528,0,18.327,18.327,0,0,0-12.033,17.19h3.324A14.984,14.984,0,0,1,127.99,93.164a14.832,14.832,0,0,1,6.571,1.514Zm-8.035-15.166a6.653,6.653,0,1,1-6.653,6.653A6.659,6.659,0,0,1,127.995,76.524Z" transform="translate(0 0)" fill="#0c3eb9"/>
  </g>
</svg>
