<svg id="Page-1" xmlns="http://www.w3.org/2000/svg" width="30" height="30" viewBox="0 0 30 30">
  <g id="Icon-Set">
    <path id="shop" d="M361.913,732.375l4.368-7.5h17.411l4.461,7.5Zm26.212,3.75c-.014,1.295-1.506,1.876-2.812,1.875-1.507,0-2.864-.913-2.864-1.875h-.886c0,.946-1.679,1.875-3.125,1.875-1.387,0-3-.958-3-1.875h-.908c0,.946-1.641,1.875-3.026,1.875-1.446,0-3.1-.666-3.1-1.875h-.888c0,.943-1.448,1.9-2.838,1.9-1.41,0-2.808-.609-2.808-1.9V734.25h26.25v1.875Zm-.937,9.375H362.815l0-5.625h1.841a4.24,4.24,0,0,0,3.279-2.273,4.326,4.326,0,0,0,3.526,2.273,3.962,3.962,0,0,0,3.525-2.078,3.957,3.957,0,0,0,3.464,2.078A4.315,4.315,0,0,0,382,737.462c.85,1.406,1.537,2.413,3.312,2.413.275,0,1.635.045,1.875,0V745.5Zm0,3.75a2.013,2.013,0,0,1-2.052,1.875h-20.3a1.981,1.981,0,0,1-2.018-1.875v-1.875h24.372v1.875ZM384.519,723H365.45L360,732.375v3.75a4.719,4.719,0,0,0,.938,2.813l.028,10.313a3.81,3.81,0,0,0,3.867,3.75h20.3a3.863,3.863,0,0,0,3.927-3.75V738.938a3.924,3.924,0,0,0,.938-2.812v-3.75L384.519,723Z" transform="translate(-360 -723)" fill="#0c3eb9" fill-rule="evenodd"/>
  </g>
</svg>
