<svg xmlns="http://www.w3.org/2000/svg" width="44.684" height="36.122" viewBox="0 0 44.684 36.122">
  <g id="speedometer-svgrepo-com_1_" data-name="speedometer-svgrepo-com (1)" transform="translate(0 -49.052)">
    <g id="Group_4940" data-name="Group 4940" transform="translate(0 49.052)">
      <g id="Group_4939" data-name="Group 4939">
        <path id="Path_2338" data-name="Path 2338" d="M44.664,70.508v0s0-.009,0-.014a22.369,22.369,0,0,0-22.322-21.44h-.007A22.321,22.321,0,0,0,4.138,84.32a2.031,2.031,0,0,0,3.31-2.355A18.146,18.146,0,0,1,4.1,72.537h4.03a2.031,2.031,0,0,0,0-4.062H4.3A18.22,18.22,0,0,1,8.473,59.5l2.386,2.386a2.031,2.031,0,0,0,2.872-2.873l-2.287-2.286a18.181,18.181,0,0,1,8.87-3.5l.007,3.061a2.031,2.031,0,0,0,2.031,2.026h0a2.031,2.031,0,0,0,2.026-2.036l-.007-3.051a18.184,18.184,0,0,1,8.873,3.507l-2.278,2.278a2.031,2.031,0,1,0,2.872,2.873l2.375-2.375a18.219,18.219,0,0,1,4.167,8.964H36.575a2.031,2.031,0,0,0,0,4.062h4.008a18.132,18.132,0,0,1-3.348,9.427,2.031,2.031,0,1,0,3.309,2.355,22.173,22.173,0,0,0,4.139-12.926C44.684,71.1,44.676,70.8,44.664,70.508Z" transform="translate(0 -49.052)" fill="#0c3eb9"/>
      </g>
    </g>
    <g id="Group_4942" data-name="Group 4942" transform="translate(19.117 64.651)">
      <g id="Group_4941" data-name="Group 4941">
        <path id="Path_2339" data-name="Path 2339" d="M228.652,228.232a2.031,2.031,0,0,0-2.854.328l-3.276,4.126-.092,0a3.382,3.382,0,1,0,3.275,2.527l3.275-4.125A2.031,2.031,0,0,0,228.652,228.232Z" transform="translate(-219.045 -227.792)" fill="#0c3eb9"/>
      </g>
    </g>
  </g>
</svg>
