<svg xmlns="http://www.w3.org/2000/svg" width="16.23" height="16.086" viewBox="0 0 16.23 16.086">
  <path id="Path_8" data-name="Path 8" d="M16.607,2H3.623A1.621,1.621,0,0,0,2,3.609V16.477a1.621,1.621,0,0,0,1.623,1.609H16.607a1.621,1.621,0,0,0,1.623-1.609V3.609A1.621,1.621,0,0,0,16.607,2ZM14.659,7.469v.322A6.582,6.582,0,0,1,8,14.386,6.855,6.855,0,0,1,4.434,13.34H5a5.278,5.278,0,0,0,2.921-.965,2.364,2.364,0,0,1-2.191-1.609,3.542,3.542,0,0,1,.406.08,1.8,1.8,0,0,0,.649-.08A2.329,2.329,0,0,1,4.921,8.515h0a4.044,4.044,0,0,0,1.055.322A2.629,2.629,0,0,1,4.921,6.826,1.835,1.835,0,0,1,5.246,5.7a6.609,6.609,0,0,0,4.788,2.413c0-.161-.081-.322-.081-.563a2.345,2.345,0,0,1,2.353-2.332,2.219,2.219,0,0,1,1.7.724,3.95,3.95,0,0,0,1.461-.563,2.36,2.36,0,0,1-1.055,1.287,4.483,4.483,0,0,0,1.38-.4A5.433,5.433,0,0,1,14.659,7.469Z" transform="translate(-2 -2)" fill="#fff"/>
</svg>
