<svg xmlns="http://www.w3.org/2000/svg" width="30.6" height="31.15" viewBox="0 0 30.6 31.15">
  <g id="Layer_3" data-name="Layer 3" transform="translate(-3.57 -2.69)">
    <path id="Path_2357" data-name="Path 2357" d="M16.43,16.69a7,7,0,1,1,7-7,7,7,0,0,1-7,7Zm0-11.92a5,5,0,1,0,5,5,5,5,0,0,0-5-5Z" fill="#0c3eb9"/>
    <path id="Path_2358" data-name="Path 2358" d="M22,17.9A25.41,25.41,0,0,0,5.88,19.57a4.06,4.06,0,0,0-2.31,3.68V29.2a1,1,0,1,0,2,0V23.25a2,2,0,0,1,1.16-1.86,22.91,22.91,0,0,1,9.7-2.11,23.58,23.58,0,0,1,5.57.66Z" fill="#0c3eb9"/>
    <rect id="Rectangle_1992" data-name="Rectangle 1992" width="6.14" height="1.4" transform="translate(22.14 27.41)" fill="#0c3eb9"/>
    <path id="Path_2359" data-name="Path 2359" d="M33.17,21.47H28v2h4.17v8.37H18V23.47h6.3v.42a1,1,0,0,0,2,0V20a1,1,0,0,0-2,0v1.47H17a1,1,0,0,0-1,1V32.84a1,1,0,0,0,1,1H33.17a1,1,0,0,0,1-1V22.47A1,1,0,0,0,33.17,21.47Z" fill="#0c3eb9"/>
  </g>
</svg>
