<svg xmlns="http://www.w3.org/2000/svg" width="15.401" height="17.5" viewBox="0 0 15.401 17.5">
  <path id="location-pin-svgrepo-com" d="M15.7,0C11.448,0,8,2.938,8,6.563a5.851,5.851,0,0,0,1.461,3.809c.016.026.019.054.038.079l5.134,6.563a1.414,1.414,0,0,0,2.136,0L21.9,10.451c.019-.025.021-.053.038-.079A5.851,5.851,0,0,0,23.4,6.563C23.4,2.938,19.953,0,15.7,0Zm0,8.75a2.4,2.4,0,0,1-2.567-2.187A2.4,2.4,0,0,1,15.7,4.375a2.4,2.4,0,0,1,2.567,2.188A2.4,2.4,0,0,1,15.7,8.75Z" transform="translate(-8)" fill="#fff"/>
</svg>
