<svg id="youtube-rounded-svgrepo-com" xmlns="http://www.w3.org/2000/svg" width="16.117" height="16.117" viewBox="0 0 16.117 16.117">
  <path id="Path_9" data-name="Path 9" d="M78.9,355l2.638-1.549L78.9,351.9Z" transform="translate(-71.915 -345.387)" fill="#fff"/>
  <path id="Path_10" data-name="Path 10" d="M-128.142,145h-13.6A1.259,1.259,0,0,0-143,146.259v13.6a1.259,1.259,0,0,0,1.259,1.259h13.6a1.259,1.259,0,0,0,1.259-1.259v-13.6A1.259,1.259,0,0,0-128.142,145Zm-2.77,9.5h0a1.36,1.36,0,0,1-1.388,1.388h-5.282a1.36,1.36,0,0,1-1.388-1.388v-2.88a1.36,1.36,0,0,1,1.388-1.388h5.282a1.36,1.36,0,0,1,1.388,1.388Z" transform="translate(143 -145)" fill="#fff"/>
</svg>
