<svg width="22" height="23" viewBox="0 0 22 23" fill="none" xmlns="http://www.w3.org/2000/svg">
<path d="M10.9001 21.6C16.4782 21.6 21.0001 17.0781 21.0001 11.5C21.0001 5.92195 16.4782 1.40002 10.9001 1.40002C5.32201 1.40002 0.800049 5.92195 0.800049 11.5C0.800049 17.0781 5.32201 21.6 10.9001 21.6Z" stroke="white" stroke-miterlimit="10"/>
<path d="M14.4002 8.60004C14.7868 8.60004 15.1002 8.28664 15.1002 7.90004C15.1002 7.51344 14.7868 7.20004 14.4002 7.20004C14.0136 7.20004 13.7002 7.51344 13.7002 7.90004C13.7002 8.28664 14.0136 8.60004 14.4002 8.60004Z" fill="white"/>
<path d="M14.8001 17.6H7.1001C5.9001 17.6 4.90015 16.6 4.90015 15.4V7.70003C4.90015 6.50003 5.9001 5.50003 7.1001 5.50003H14.8001C16.0001 5.50003 17.0001 6.50003 17.0001 7.70003V15.4C17.0001 16.6 16.0001 17.6 14.8001 17.6ZM7.1001 6.30003C6.3001 6.30003 5.70013 6.90003 5.70013 7.70003V15.4C5.70013 16.2 6.3001 16.8 7.1001 16.8H14.8001C15.6001 16.8 16.2001 16.2 16.2001 15.4V7.70003C16.2001 6.90003 15.6001 6.30003 14.8001 6.30003H7.1001Z" fill="white"/>
<path d="M10.9001 14.9C9.00015 14.9 7.50012 13.4 7.50012 11.5C7.50012 9.60004 9.00015 8.10004 10.9001 8.10004C12.8001 8.10004 14.3001 9.60004 14.3001 11.5C14.3001 13.4 12.8001 14.9 10.9001 14.9ZM10.9001 8.60004C9.30015 8.60004 8.1001 9.90004 8.1001 11.4C8.1001 12.9 9.40015 14.2 10.9001 14.2C12.4001 14.2 13.7001 12.9 13.7001 11.4C13.7001 9.90004 12.4001 8.60004 10.9001 8.60004Z" fill="white"/>
</svg>
