<svg width="22" height="23" viewBox="0 0 22 23" fill="none" xmlns="http://www.w3.org/2000/svg">
<path d="M10.7 21.6C16.3333 21.6 20.9 17.0333 20.9 11.4C20.9 5.76671 16.3333 1.20001 10.7 1.20001C5.06671 1.20001 0.5 5.76671 0.5 11.4C0.5 17.0333 5.06671 21.6 10.7 21.6Z" stroke="white" stroke-miterlimit="10"/>
<path opacity="0.8" fill-rule="evenodd" clip-rule="evenodd" d="M13 9.90001C13.7 10.4 14.5 10.7 15.4 10.7V9.00001C15.2 9.00001 15.1 9.00001 14.9 9.00001V10.4C14 10.4 13.2 10.1 12.5 9.60001V13.2C12.5 15 11.1 16.4 9.29999 16.4C7.49999 16.4 8 16.2 7.5 15.9C8.1 16.5 8.89999 16.9 9.79999 16.9C11.6 16.9 13 15.5 13 13.7V10.1V9.90001ZM13.6 8.20001C13.2 7.80001 13 7.3 13 6.8V6.60001H12.5C12.6 7.30001 13 7.90001 13.6 8.20001ZM8.59998 14.4C8.39998 14.1 8.29999 13.8 8.29999 13.5C8.29999 12.7 8.99999 12 9.79999 12C9.99999 12 10.1 12 10.2 12V10.2C10 10.2 9.90001 10.2 9.70001 10.2V11.6C9.60001 11.6 9.39999 11.6 9.29999 11.6C8.49999 11.6 7.79999 12.3 7.79999 13.1C7.79999 13.9 8.09998 14.2 8.59998 14.4Z" fill="#FF1753"/>
<path fill-rule="evenodd" clip-rule="evenodd" d="M12.5 9.50001C13.2 10 14 10.3 14.9 10.3V8.90001C14.4 8.80001 13.9 8.50001 13.6 8.20001C13 7.80001 12.6 7.20001 12.5 6.60001H11.2V13.6C11.2 14.4 10.5 15.1 9.70001 15.1C8.90001 15.1 8.8 14.9 8.5 14.5C8 14.3 7.70001 13.8 7.70001 13.2C7.70001 12.4 8.40001 11.7 9.20001 11.7C10 11.7 9.49998 11.7 9.59998 11.7V10.3C7.79998 10.3 6.40002 11.8 6.40002 13.5C6.40002 15.2 6.79999 15.2 7.29999 15.8C7.79999 16.1 8.39998 16.3 9.09998 16.3C10.9 16.3 12.3 14.9 12.3 13.1V9.50001H12.5Z" fill="white"/>
<path fill-rule="evenodd" clip-rule="evenodd" d="M14.9 8.90001V8.50001C14.4 8.50001 14 8.40001 13.6 8.10001C13.9 8.50001 14.4 8.70001 14.9 8.8V8.90001ZM12.5 6.50001C12.5 6.50001 12.5 6.4 12.5 6.3V6.10001H10.7V13.1C10.7 13.9 10 14.6 9.20001 14.6C8.40001 14.6 8.7 14.6 8.5 14.4C8.8 14.8 9.20001 15 9.70001 15C10.5 15 11.2 14.3 11.2 13.5V6.50001H12.5ZM9.70001 10.3V9.90001C9.60001 9.90001 9.39999 9.90001 9.29999 9.90001C7.49999 9.90001 6.09998 11.3 6.09998 13.1C6.09998 14.9 6.7 15.2 7.5 15.8C6.9 15.2 6.59998 14.4 6.59998 13.5C6.59998 11.7 7.99999 10.3 9.79999 10.3H9.70001Z" fill="#00C9D0"/>
</svg>
