<svg width="23" height="23" viewBox="0 0 23 23" fill="none" xmlns="http://www.w3.org/2000/svg">
<path d="M11.5001 1.20001C5.90006 1.20001 1.30005 5.80001 1.30005 11.4C1.30005 17 2.00004 15.6 3.10004 17.2L2.40009 20.7L5.50006 19.6C7.20006 20.8 9.20006 21.6 11.5001 21.6C17.1001 21.6 21.7001 17 21.7001 11.4C21.7001 5.80001 17.1001 1.20001 11.5001 1.20001Z" stroke="white" stroke-miterlimit="10"/>
<path d="M5.6001 17.4L6.50012 14.2C6.00012 13.3 5.80011 12.3 5.80011 11.3C5.80011 8.00002 8.50013 5.40002 11.7001 5.40002C14.9001 5.40002 17.6001 8.10002 17.6001 11.3C17.6001 14.5 14.9001 17.2 11.7001 17.2C8.50013 17.2 9.80015 17 8.90015 16.5L5.70013 17.4H5.6001ZM8.90015 15.3H9.1001C9.8001 15.9 10.7001 16.1 11.6001 16.1C14.2001 16.1 16.4001 13.9 16.4001 11.3C16.4001 8.70002 14.2001 6.50002 11.6001 6.50002C9.0001 6.50002 6.80011 8.70002 6.80011 11.3C6.80011 13.9 7.00012 13 7.50012 13.8V14C7.60012 14 7.1001 15.8 7.1001 15.8L8.90015 15.3Z" fill="white"/>
<path fill-rule="evenodd" clip-rule="evenodd" d="M14.1001 12.2C13.8001 12 13.5001 11.9 13.2001 12C13.0001 12.1 12.8001 12.5 12.6001 12.7C12.6001 12.8 12.4001 12.8 12.3001 12.7C11.4001 12.3 10.7001 11.7 10.2001 10.9C10.2001 10.8 10.2001 10.7 10.2001 10.5C10.4001 10.3 10.5001 10.1 10.6001 9.90003C10.6001 9.70003 10.6001 9.40003 10.4001 9.20003C10.3001 8.90003 10.1001 8.50003 9.90015 8.40003C9.60015 8.30003 9.3001 8.40003 9.1001 8.50003C8.7001 8.80003 8.50012 9.30003 8.50012 9.80003C8.50012 9.90003 8.50012 10.1 8.50012 10.2C8.50012 10.5 8.70015 10.8 8.90015 11.1C9.00015 11.3 9.20011 11.5 9.30011 11.7C9.80011 12.4 10.4001 12.9 11.1001 13.4C11.5001 13.6 11.8001 13.8 12.2001 13.9C12.6001 14 13.0001 14.2 13.5001 14.1C14.0001 14.1 14.5001 13.7 14.7001 13.2C14.7001 13.1 14.7001 12.9 14.7001 12.7C14.7001 12.4 14.2001 12.2 14.0001 12.1L14.1001 12.2Z" fill="white"/>
</svg>
