<svg xmlns="http://www.w3.org/2000/svg" width="60.211" height="60.212" viewBox="0 0 60.211 60.212">
  <path id="Shape_908" data-name="Shape 908" d="M800.8,2056.3a57.889,57.889,0,0,0-3.9-12.854,5.532,5.532,0,0,1,1.888-4.163v-1.567a18.769,18.769,0,1,1,22.423,0v1.567A18.506,18.506,0,0,0,823.1,2051a5.554,5.554,0,0,1-3.9,5.3,9.32,9.32,0,0,1-18.392,0Zm9.2,4.277a5.8,5.8,0,0,0,5.519-4.03H804.48A5.8,5.8,0,0,0,810,2060.575ZM800.427,2051a2.017,2.017,0,0,0,2.015,2.014h15.115a2.014,2.014,0,1,0,0-4.028H802.442A2.016,2.016,0,0,0,800.427,2051Zm0-7.558a2.018,2.018,0,0,0,2.015,2.016h15.115a2.016,2.016,0,0,0,0-4.031H802.442A2.017,2.017,0,0,0,800.427,2043.445Zm17.649-17.524a1.766,1.766,0,0,1,0,2.5l-2.534,2.533v6.952h2.015c.042,0,.084,0,.126,0v-1.1a1.764,1.764,0,0,1,.783-1.466,15.241,15.241,0,1,0-16.933,0,1.765,1.765,0,0,1,.782,1.466v1.1l.126,0h2.015v-6.953l-2.533-2.533a1.764,1.764,0,0,1,2.494-2.5l3.05,3.051a1.764,1.764,0,0,1,.517,1.246v7.683h4.029v-7.683a1.76,1.76,0,0,1,.518-1.246l3.049-3.051a1.766,1.766,0,0,1,2.495,0Zm15.587,12.439-3.273-1.889a1.764,1.764,0,1,1,1.764-3.056l3.272,1.888a1.764,1.764,0,1,1-1.763,3.056Zm-49.736-.647a1.764,1.764,0,0,1,.646-2.409l3.272-1.889a1.764,1.764,0,0,1,1.764,3.056l-3.273,1.889a1.762,1.762,0,0,1-2.409-.647Zm50.636-13.288a1.764,1.764,0,1,1,0-3.528h3.778a1.764,1.764,0,1,1,0,3.528Zm-52.9,0a1.764,1.764,0,1,1,0-3.528h3.779a1.764,1.764,0,1,1,0,3.528Zm48.086-13.163a1.763,1.763,0,0,1,.645-2.409l3.273-1.891a1.764,1.764,0,0,1,1.764,3.056l-3.273,1.89a1.762,1.762,0,0,1-2.409-.646Zm-41.9.646-3.272-1.89a1.764,1.764,0,0,1,1.764-3.056l3.272,1.891a1.764,1.764,0,1,1-1.764,3.055Z" transform="translate(-779.894 -2003.891)" fill="#0c3eb9"/>
</svg>
