<svg xmlns="http://www.w3.org/2000/svg" width="46.461" height="36.649" viewBox="0 0 46.461 36.649">
  <g id="financial-services-svgrepo-com" transform="translate(0.003 -112.637)">
    <path id="Path_2340" data-name="Path 2340" d="M17.5,328.624c0-1.61-3.439-3.253-7.823-3.253s-7.823,1.643-7.823,3.253,3.439,3.253,7.823,3.253S17.5,330.234,17.5,328.624Zm1.859,0c0,3.011-4.4,5.112-9.682,5.112S0,331.635,0,328.624s4.4-5.112,9.682-5.112S19.361,325.613,19.361,328.624ZM17.5,345.478c0,1.61-3.439,3.253-7.823,3.253s-7.823-1.643-7.823-3.253H0c0,3.011,4.4,5.112,9.682,5.112s9.682-2.1,9.682-5.112Zm0-5.67c0,1.61-3.439,3.253-7.823,3.253s-7.823-1.643-7.823-3.253H0c0,3.011,4.4,5.112,9.682,5.112s9.682-2.1,9.682-5.112Zm0-5.577c0,1.61-3.439,3.253-7.823,3.253s-7.823-1.643-7.823-3.253H0c0,3.011,4.4,5.112,9.682,5.112s9.682-2.1,9.682-5.112Z" transform="translate(0 -201.305)" fill="#0c3eb9"/>
    <path id="Path_2341" data-name="Path 2341" d="M0,127.319v17.009a.929.929,0,0,0,1.859,0V127.319a.929.929,0,1,0-1.859,0Zm17.505,0v16.823a.929.929,0,0,0,1.859,0V127.319a.929.929,0,1,0-1.859,0Zm25.7,20.108a1.394,1.394,0,0,0,1.394-1.394V115.89a1.394,1.394,0,0,0-1.394-1.394H24.8A1.394,1.394,0,0,0,23.4,115.89v30.143a1.394,1.394,0,0,0,1.394,1.394Zm0,1.859H24.8a3.253,3.253,0,0,1-3.253-3.253V115.89a3.253,3.253,0,0,1,3.253-3.253h18.41a3.253,3.253,0,0,1,3.253,3.253v30.143A3.253,3.253,0,0,1,43.208,149.286Z" transform="translate(-0.003)" fill="#0c3eb9"/>
    <path id="Path_2342" data-name="Path 2342" d="M579.9,254.32h-13v2.753h13Zm.465,4.612h-13.93a1.394,1.394,0,0,1-1.394-1.394v-3.682a1.394,1.394,0,0,1,1.394-1.394h13.93a1.394,1.394,0,0,1,1.394,1.394v3.682A1.394,1.394,0,0,1,580.366,258.931Zm-11.32,4.9a1.537,1.537,0,1,1-1.537-1.537A1.537,1.537,0,0,1,569.046,263.832Zm5.892,0A1.537,1.537,0,1,1,573.4,262.3,1.537,1.537,0,0,1,574.938,263.832Zm5.892-.128a1.537,1.537,0,1,1-1.537-1.537A1.537,1.537,0,0,1,580.831,263.7Zm-11.785,5.636a1.537,1.537,0,1,1-1.537-1.537A1.537,1.537,0,0,1,569.046,269.34Zm5.892,0A1.537,1.537,0,1,1,573.4,267.8,1.537,1.537,0,0,1,574.938,269.34Zm5.892,0a1.537,1.537,0,1,1-1.537-1.537A1.537,1.537,0,0,1,580.831,269.34Zm-11.785,5.636a1.537,1.537,0,1,1-1.537-1.537A1.537,1.537,0,0,1,569.046,274.976Zm5.892,0a1.537,1.537,0,1,1-1.537-1.537A1.537,1.537,0,0,1,574.938,274.976Zm5.892,0a1.537,1.537,0,1,1-1.537-1.537A1.537,1.537,0,0,1,580.831,274.976Z" transform="translate(-539.401 -133.478)" fill="#0c3eb9"/>
  </g>
</svg>
