<svg width="107" height="32" viewBox="0 0 107 32" fill="none" xmlns="http://www.w3.org/2000/svg">
<g clip-path="url(#clip0_878_334)">
<path d="M0.691524 19.2588V4.73822C8.7683 4.69332 16.8363 4.64842 24.9525 4.60352C24.6692 5.07945 24.4121 5.51386 24.1529 5.94714C23.7154 6.68014 23.2702 7.40864 22.8436 8.14724C22.743 8.32123 22.6336 8.37623 22.4411 8.37623C16.4447 8.37062 10.4495 8.37174 4.45317 8.37174H4.08674C4.08674 8.49072 4.08674 8.59062 4.08674 8.69165C4.09003 10.491 4.0944 12.2893 4.09221 14.0886C4.09221 14.202 4.07143 14.3378 4.01018 14.4265C2.94151 16.0014 1.86519 17.5706 0.789967 19.1421C0.772466 19.1679 0.748402 19.1915 0.69043 19.2588H0.691524Z" fill="#F2D54A"/>
<path d="M23.3983 27.7888C23.3983 27.6485 23.3983 27.5463 23.3983 27.4442C23.3983 24.3147 23.3983 21.1863 23.4016 18.0568C23.4016 17.9411 23.4103 17.8019 23.4705 17.7121C24.4265 16.2899 25.3912 14.8734 26.3888 13.4062V31.2809H13.5659C13.6261 31.1844 13.6709 31.1058 13.7212 31.0317C14.395 30.0316 15.0754 29.0359 15.7415 28.0301C15.8597 27.8528 15.98 27.7821 16.1933 27.7832C18.4805 27.7911 20.7665 27.7888 23.0537 27.7888H23.4016H23.3983Z" fill="#F2D54A"/>
<path d="M7.96875 31.2126C14.2746 22.3561 20.5378 13.558 26.8098 4.74863C26.264 4.29963 25.7368 3.86635 25.168 3.39827C27.3709 2.38016 29.5422 1.37777 31.7506 0.357422C31.5297 2.76069 31.3131 5.11681 31.0921 7.51783C30.5004 7.14516 29.948 6.79831 29.3825 6.44248C28.7863 7.29894 28.2001 8.13857 27.616 8.9782C22.5045 16.3193 17.392 23.6605 12.2839 31.0038C12.18 31.1531 12.075 31.2171 11.8912 31.216C10.606 31.207 9.32071 31.2115 7.96875 31.2115V31.2126Z" fill="#4EABBA"/>
<path d="M15.667 10.1875C16.6142 10.9789 17.5505 11.7612 18.5011 12.5548C18.0438 13.2036 17.5987 13.8356 17.1524 14.4676C13.2409 20.0127 9.32937 25.5556 5.42224 31.1041C5.29536 31.2837 5.16957 31.36 4.94643 31.3578C3.72682 31.3454 2.50721 31.3522 1.2876 31.3522H0.955078C5.87727 24.2715 10.7645 17.2401 15.6659 10.1886L15.667 10.1875Z" fill="#4EABBA"/>
<path d="M0.887252 27.5016V27.2726C0.887252 25.4485 0.885065 23.6234 0.892721 21.7993C0.892721 21.6635 0.940849 21.5063 1.01742 21.3963C3.45664 17.9031 5.90133 14.4133 8.34492 10.9245C8.36899 10.8898 8.39743 10.8572 8.44227 10.7988C9.42453 11.5835 10.4024 12.3625 11.4032 13.1617C7.90849 17.9581 4.42576 22.74 0.943037 27.5207C0.924442 27.5151 0.905847 27.5083 0.887252 27.5027V27.5016Z" fill="#4EABBA"/>
<path d="M64.3291 15.0911C65.0204 14.4209 65.6318 13.8305 66.2411 13.239C66.7213 12.7731 67.1971 12.3028 67.6817 11.8426C67.7659 11.7629 67.8818 11.6686 67.9846 11.6663C68.875 11.6529 69.7665 11.6585 70.7728 11.6585C69.5751 12.9146 68.4473 14.0965 67.301 15.2987C68.548 16.9264 69.7785 18.5327 71.0342 20.1715C70.9401 20.1951 70.8767 20.2231 70.8144 20.2231C69.994 20.2265 69.1747 20.2366 68.3544 20.2153C68.2122 20.2119 68.0339 20.1053 67.9409 19.9885C67.2004 19.0692 66.4774 18.1353 65.7478 17.207C65.6723 17.1105 65.5914 17.0195 65.4295 16.8253C65.0773 17.2261 64.736 17.5987 64.4155 17.9894C64.3488 18.0713 64.3389 18.2206 64.3367 18.3385C64.3291 18.9513 64.3335 19.5642 64.3335 20.2007H61.9402V8.44141H64.3291V15.09V15.0911Z" fill="white"/>
<path d="M48.0835 15.1757C48.0835 14.289 47.6449 13.7356 46.8486 13.5852C45.8828 13.4022 44.9782 13.5986 44.1283 14.0903C44.0233 14.1509 43.9215 14.2194 43.7881 14.3047C43.4971 13.7243 43.2138 13.1608 42.9196 12.5727C43.565 12.1012 44.2683 11.8408 45.0154 11.687C45.9987 11.4838 46.982 11.4591 47.9654 11.6881C49.4289 12.0305 50.4046 13.0531 50.4834 14.5819C50.5785 16.4228 50.526 18.2727 50.537 20.1192C50.537 20.1417 50.5184 20.1641 50.4998 20.2068H48.2695V19.3099C47.0105 20.5828 45.5918 20.6041 44.1184 20.044C43.111 19.6612 42.563 18.7049 42.6155 17.6452C42.6702 16.5396 43.2171 15.7808 44.3208 15.4676C44.9486 15.2891 45.617 15.2352 46.2722 15.1858C46.8661 15.1409 47.4666 15.1757 48.0835 15.1757ZM48.0617 16.6597C47.4579 16.6597 46.8716 16.6496 46.2864 16.6653C46.0567 16.672 45.8215 16.7113 45.6027 16.782C45.2505 16.8965 45.0208 17.1435 44.9913 17.5442C44.9596 17.9618 45.1083 18.294 45.4791 18.4747C46.1759 18.8126 46.8606 18.7464 47.5027 18.3232C48.0868 17.9393 48.1885 17.3601 48.0606 16.6597H48.0617Z" fill="white"/>
<path d="M34.5607 9.11328H40.8742C40.8742 9.26482 40.8742 9.39727 40.8742 9.53085C40.8742 11.7276 40.8895 13.9254 40.8644 16.1222C40.8578 16.7317 40.7933 17.3547 40.65 17.9451C40.3568 19.1518 39.5868 19.9274 38.4065 20.2361C37.1454 20.5661 35.8984 20.5201 34.7313 19.8949C34.2446 19.6344 33.8267 19.2371 33.3389 18.8723C33.865 18.2246 34.3233 17.6611 34.7674 17.1133C34.9982 17.3344 35.1918 17.5634 35.4259 17.7318C35.6928 17.9226 35.9804 18.1146 36.2867 18.2089C37.4188 18.5546 38.2829 17.9653 38.3147 16.7586C38.3639 14.9166 38.3278 13.0735 38.3278 11.191H34.5585V9.11328H34.5607Z" fill="white"/>
<path d="M60.5643 13.7316C59.9583 14.0683 59.3479 14.4062 58.7091 14.7609C58.2618 14.0268 57.658 13.5655 56.7917 13.5812C56.178 13.5913 55.6475 13.8079 55.222 14.2783C54.3995 15.1864 54.4717 16.9644 55.3686 17.7715C56.3924 18.6942 57.6667 18.4618 58.7255 17.1462C59.3326 17.4863 59.9419 17.8287 60.5479 18.1688C60.1694 19.5787 58.2016 20.5743 56.2732 20.3453C53.916 20.0658 52.2917 18.4494 52.2031 16.2943C52.1047 13.9033 53.438 12.1197 55.6793 11.6426C57.8625 11.1779 59.9572 12.0624 60.5654 13.7316H60.5643Z" fill="white"/>
<path d="M86.0062 11.6758H88.4169V12.0956C88.4169 13.364 88.4137 14.6324 88.4191 15.9009C88.4202 16.1759 88.4323 16.4543 88.4738 16.7259C88.604 17.5947 89.0536 18.0864 89.7788 18.1784C90.7173 18.2974 91.4786 17.9348 91.7739 17.1401C91.927 16.7281 91.9981 16.2634 92.008 15.8212C92.0375 14.454 92.0189 13.0856 92.0189 11.6881H94.4209V20.2056H92.1513V19.3862C91.6678 19.6567 91.2281 19.9845 90.7358 20.1652C89.1979 20.7276 87.4281 20.191 86.6154 18.9731C86.2315 18.3973 86.0302 17.7429 86.0182 17.0626C85.9876 15.2812 86.0084 13.4987 86.0084 11.678L86.0062 11.6758Z" fill="#F2D54A"/>
<path d="M74.8635 20.2119H72.4243V13.7766H71.1653V11.856H72.3794C72.4232 11.425 72.4319 11.0355 72.5052 10.6583C72.7666 9.31244 73.7161 8.46159 75.1173 8.31678C75.8293 8.2427 76.5327 8.2876 77.2086 8.57159C77.4416 8.66925 77.5291 8.7815 77.4187 9.05202C77.2207 9.53582 77.0621 10.0364 76.8827 10.5438C76.315 10.2654 75.7571 10.0903 75.2004 10.4697C74.8613 10.701 74.7596 11.1545 74.8547 11.847C75.1873 11.847 75.5264 11.847 75.8665 11.847C76.2067 11.847 76.5502 11.847 76.9188 11.847V13.7452H74.8646C74.8646 14.8531 74.8646 15.9127 74.8646 16.9735C74.8646 18.0342 74.8646 19.1051 74.8646 20.213L74.8635 20.2119Z" fill="#F2D54A"/>
<path d="M101.64 13.7641H100.383V11.8513H101.632V9.79492H104.076V11.8345H106.135V13.7517H104.098C104.089 13.9302 104.078 14.0615 104.077 14.1929C104.076 15.147 104.076 16.1011 104.077 17.0564C104.077 18.2294 104.818 18.7008 105.862 18.1934C105.928 18.162 105.991 18.1272 106.094 18.0756C106.299 18.6211 106.505 19.1509 106.689 19.6897C106.711 19.7526 106.627 19.8952 106.555 19.9434C105.552 20.627 103.422 20.4744 102.528 19.6572C101.868 19.0533 101.655 18.2541 101.644 17.3852C101.631 16.3301 101.641 15.2761 101.641 14.2209C101.641 14.0851 101.641 13.9504 101.641 13.7641H101.64Z" fill="#F2D54A"/>
<path d="M84.5383 11.5405V13.8068C84.3589 13.8068 84.2014 13.8068 84.0439 13.8068C82.6394 13.8023 81.8245 14.6139 81.8092 16.0585C81.7961 17.3011 81.8059 18.5449 81.8059 19.7875C81.8059 19.9222 81.8059 20.0569 81.8059 20.2084H79.4006V11.6886H81.6845V12.7314C82.4972 11.8368 83.439 11.5281 84.5394 11.5394L84.5383 11.5405Z" fill="#F2D54A"/>
<path d="M99.1014 20.212H96.7092V11.6855H99.1014V20.212Z" fill="#F2D54A"/>
<path d="M97.9013 10.4876C97.023 10.4876 96.3941 9.9106 96.3897 9.10128C96.3842 8.29869 97.0208 7.70489 97.8915 7.69928C98.7753 7.69254 99.4272 8.27287 99.4228 9.06199C99.4185 9.89376 98.7841 10.4876 97.9013 10.4876Z" fill="#F2D54A"/>
<path d="M35.8252 25.299V27.2252H39.1132V28.579H35.8252V31.2348H34.1812V23.9453H39.5496V25.299H35.8252Z" fill="#4EABBA"/>
<path d="M42.1421 30.8696C41.5503 30.5429 41.0865 30.0939 40.7518 29.5215C40.4171 28.949 40.2498 28.3047 40.2498 27.5897C40.2498 26.8746 40.4171 26.2303 40.7518 25.6578C41.0865 25.0854 41.5503 24.6364 42.1421 24.3097C42.7338 23.9831 43.3989 23.8203 44.1361 23.8203C44.8733 23.8203 45.5362 23.9842 46.1247 24.3097C46.7131 24.6364 47.1769 25.0854 47.5149 25.6578C47.8529 26.2303 48.0224 26.8746 48.0224 27.5897C48.0224 28.3047 47.8529 28.949 47.5149 29.5215C47.1769 30.0939 46.7131 30.5441 46.1247 30.8696C45.5362 31.1962 44.8733 31.359 44.1361 31.359C43.3989 31.359 42.7338 31.1962 42.1421 30.8696ZM45.2726 29.6259C45.6106 29.4283 45.8764 29.1522 46.0689 28.7975C46.2614 28.4439 46.3577 28.0409 46.3577 27.5897C46.3577 27.1384 46.2614 26.7354 46.0689 26.3819C45.8764 26.0283 45.6106 25.7521 45.2726 25.5534C44.9346 25.3559 44.555 25.2571 44.1361 25.2571C43.7172 25.2571 43.3376 25.3559 42.9996 25.5534C42.6616 25.751 42.3958 26.0271 42.2033 26.3819C42.0108 26.7354 41.9146 27.1384 41.9146 27.5897C41.9146 28.0409 42.0108 28.4439 42.2033 28.7975C42.3958 29.1511 42.6616 29.4272 42.9996 29.6259C43.3376 29.8234 43.7161 29.9222 44.1361 29.9222C44.5561 29.9222 44.9346 29.8234 45.2726 29.6259Z" fill="#4EABBA"/>
<path d="M50.1487 30.4943C49.5832 29.9184 49.301 29.0956 49.301 28.0259V23.9434H50.945V27.963C50.945 29.2685 51.4723 29.9207 52.5278 29.9207C53.0419 29.9207 53.4346 29.7624 53.7047 29.447C53.9749 29.1304 54.1106 28.6365 54.1106 27.963V23.9434H55.7338V28.0259C55.7338 29.0945 55.4516 29.9173 54.8861 30.4943C54.3206 31.0701 53.5308 31.3586 52.5169 31.3586C51.5029 31.3586 50.7121 31.0701 50.1476 30.4943H50.1487Z" fill="#4EABBA"/>
<path d="M63.9735 23.9453V31.2348H62.6238L59.082 26.8088V31.2348H57.4587V23.9453H58.8184L62.3492 28.3713V23.9453H63.9724H63.9735Z" fill="#4EABBA"/>
<path d="M65.7598 23.9453H68.9865C69.7577 23.9453 70.4391 24.0968 71.0309 24.3977C71.6226 24.6996 72.0831 25.1251 72.4113 25.674C72.7394 26.2229 72.9035 26.8604 72.9035 27.5901C72.9035 28.3197 72.7394 28.9573 72.4113 29.5062C72.0831 30.0551 71.6226 30.4805 71.0309 30.7824C70.4391 31.0844 69.7577 31.2348 68.9865 31.2348H65.7598V23.9453ZM68.9056 29.8496C69.6155 29.8496 70.1821 29.6465 70.6054 29.2401C71.0287 28.8338 71.2398 28.2838 71.2398 27.5901C71.2398 26.8964 71.0287 26.3463 70.6054 25.94C70.1821 25.5336 69.6166 25.3305 68.9056 25.3305H67.4038V29.8496H68.9056Z" fill="#4EABBA"/>
<path d="M78.82 29.6715H75.5222L74.8932 31.2329H73.2087L76.3743 23.9434H77.9975L81.1739 31.2329H79.449L78.82 29.6715ZM78.3016 28.3907L77.1749 25.6002L76.0483 28.3907H78.3005H78.3016Z" fill="#4EABBA"/>
<path d="M83.1318 25.3204H80.8589V23.9453H87.0488V25.3204H84.7759V31.2348H83.1318V25.3204Z" fill="#4EABBA"/>
<path d="M88.0332 23.9453H89.6772V31.2348H88.0332V23.9453Z" fill="#4EABBA"/>
<path d="M92.9084 30.8696C92.3167 30.5429 91.8529 30.0939 91.5182 29.5215C91.1835 28.949 91.0161 28.3047 91.0161 27.5897C91.0161 26.8746 91.1835 26.2303 91.5182 25.6578C91.8529 25.0854 92.3167 24.6364 92.9084 24.3097C93.5002 23.9831 94.1652 23.8203 94.9025 23.8203C95.6397 23.8203 96.3025 23.9842 96.891 24.3097C97.4795 24.6364 97.9433 25.0854 98.2813 25.6578C98.6193 26.2303 98.7888 26.8746 98.7888 27.5897C98.7888 28.3047 98.6193 28.949 98.2813 29.5215C97.9433 30.0939 97.4795 30.5441 96.891 30.8696C96.3025 31.1962 95.6397 31.359 94.9025 31.359C94.1652 31.359 93.5002 31.1962 92.9084 30.8696ZM96.0389 29.6259C96.3769 29.4283 96.6427 29.1522 96.8352 28.7975C97.0277 28.4439 97.124 28.0409 97.124 27.5897C97.124 27.1384 97.0277 26.7354 96.8352 26.3819C96.6427 26.0283 96.3769 25.7521 96.0389 25.5534C95.7009 25.3559 95.3214 25.2571 94.9025 25.2571C94.4835 25.2571 94.104 25.3559 93.766 25.5534C93.428 25.751 93.1622 26.0271 92.9697 26.3819C92.7772 26.7354 92.6809 27.1384 92.6809 27.5897C92.6809 28.0409 92.7772 28.4439 92.9697 28.7975C93.1622 29.1511 93.428 29.4272 93.766 29.6259C94.104 29.8234 94.4824 29.9222 94.9025 29.9222C95.3225 29.9222 95.7009 29.8234 96.0389 29.6259Z" fill="#4EABBA"/>
<path d="M106.643 23.9453V31.2348H105.294L101.752 26.8088V31.2348H100.129V23.9453H101.488L105.019 28.3713V23.9453H106.642H106.643Z" fill="#4EABBA"/>
</g>
<defs>
<clipPath id="clip0_878_334">
<rect width="106" height="31" fill="white" transform="translate(0.69165 0.359375)"/>
</clipPath>
</defs>
</svg>
