<svg width="165" height="30" viewBox="0 0 165 30" fill="none" xmlns="http://www.w3.org/2000/svg">
<g clip-path="url(#clip0_1847_2963)">
<path d="M0.340057 0.239986H0.154785V12.3524H4.05236C4.05236 9.15518 4.05236 5.61643 4.05236 4.53704V4.40041H6.74909C8.64985 4.40041 10.578 4.40041 12.5062 4.40041V0.239986C8.51261 0.226322 4.39545 0.219491 0.340057 0.239986Z" fill="#48A225"/>
<path d="M163.97 28.7752H164.155V16.6628H160.258C160.258 19.86 160.258 23.3988 160.258 24.4782V24.6148H157.561C155.66 24.6148 153.732 24.6148 151.804 24.6148V28.7752C155.797 28.7889 159.915 28.7957 163.97 28.7752Z" fill="#48A225"/>
<path d="M7.73737 7.74072H11.4634V17.2434C11.4634 18.1452 11.2301 18.9377 10.7772 19.6208C10.3243 20.304 9.70674 20.8368 8.91762 21.2194C8.1285 21.602 7.21586 21.7933 6.18658 21.7933C5.29453 21.7933 4.47796 21.6361 3.73687 21.3287C2.99578 21.0213 2.41252 20.5294 1.96649 19.8668C1.52733 19.2041 1.30775 18.3365 1.31461 17.2708H5.09553C5.10925 17.6192 5.17101 17.9129 5.27394 18.152C5.38373 18.3911 5.52783 18.5688 5.71996 18.6917C5.9121 18.8079 6.1454 18.8693 6.41988 18.8693C6.69436 18.8693 6.93453 18.8079 7.13352 18.6849C7.32566 18.5619 7.46976 18.3843 7.57269 18.1384C7.66875 17.8993 7.72365 17.5987 7.73051 17.2434V7.74072H7.73737Z" fill="white"/>
<path d="M13.4463 21.602V7.74072H23.2314V10.7739H17.2204V13.1582H22.6276V16.1914H17.2204V21.602H13.4395H13.4463Z" fill="white"/>
<path d="M28.8106 21.602V7.74072H38.5957V10.7739H32.5846V13.1582H37.9918V16.1914H32.5846V21.602H28.8037H28.8106Z" fill="white"/>
<path d="M53.6641 14.6681C53.6641 16.212 53.3622 17.51 52.7583 18.5689C52.1545 19.6278 51.3448 20.4271 50.3155 20.9736C49.2862 21.5201 48.1471 21.7865 46.8914 21.7865C45.6356 21.7865 44.476 21.5133 43.4535 20.9668C42.4311 20.4202 41.6214 19.6141 41.0176 18.5552C40.4137 17.4963 40.1187 16.1983 40.1187 14.6681C40.1187 13.1378 40.4206 11.8261 41.0176 10.7672C41.6214 9.70834 42.4311 8.90904 43.4535 8.36252C44.476 7.81599 45.6219 7.54956 46.8914 7.54956C48.1608 7.54956 49.293 7.82282 50.3155 8.36252C51.3379 8.90904 52.1545 9.70834 52.7583 10.7672C53.3622 11.8261 53.6641 13.1241 53.6641 14.6681ZM49.7734 14.6681C49.7734 13.8414 49.6636 13.1378 49.444 12.5639C49.2244 11.9901 48.9019 11.5597 48.4696 11.2659C48.0373 10.9722 47.5158 10.8219 46.8914 10.8219C46.2669 10.8219 45.7386 10.9722 45.3131 11.2659C44.8877 11.5597 44.5583 11.9969 44.3387 12.5639C44.1192 13.1378 44.0094 13.8346 44.0094 14.6681C44.0094 15.5015 44.1192 16.1983 44.3387 16.7722C44.5583 17.346 44.8808 17.7764 45.3131 18.0702C45.7454 18.3639 46.2669 18.5142 46.8914 18.5142C47.5158 18.5142 48.0442 18.3639 48.4696 18.0702C48.8951 17.7764 49.2244 17.3392 49.444 16.7722C49.6636 16.1983 49.7734 15.5015 49.7734 14.6681Z" fill="white"/>
<path d="M63.8335 7.74072H67.6144V16.6218C67.6144 17.6807 67.3605 18.5893 66.8596 19.3612C66.3518 20.1332 65.6519 20.7207 64.7461 21.1374C63.8472 21.5542 62.7973 21.7659 61.6033 21.7659C60.4094 21.7659 59.3526 21.5542 58.4468 21.1374C57.5479 20.7207 56.8412 20.1264 56.3402 19.3612C55.8393 18.5893 55.5923 17.6807 55.5923 16.6218V7.74072H59.3732V16.2938C59.3732 16.7242 59.4693 17.1068 59.6614 17.4415C59.8535 17.7763 60.1143 18.0427 60.4505 18.2272C60.7868 18.4185 61.171 18.5141 61.6033 18.5141C62.0356 18.5141 62.4268 18.4185 62.7561 18.2272C63.0855 18.0359 63.3531 17.7763 63.5453 17.4415C63.7374 17.1068 63.8335 16.7242 63.8335 16.2938V7.74072Z" fill="white"/>
<path d="M81.6404 7.74072V21.602H78.4839L73.4541 14.3195H73.3717V21.602H69.5908V7.74072H72.8022L77.7496 14.9958H77.8594V7.74072H81.6404Z" fill="white"/>
<path d="M88.9827 21.602H83.6235V7.74072H88.9278C90.3619 7.74072 91.5971 8.01399 92.6401 8.56734C93.6831 9.1207 94.4928 9.91316 95.0624 10.9516C95.6319 11.99 95.9132 13.2265 95.9132 14.6679C95.9132 16.1094 95.6319 17.3527 95.0624 18.3843C94.4928 19.4227 93.6968 20.2152 92.6538 20.7685C91.6177 21.3219 90.3894 21.5951 88.9758 21.5951L88.9827 21.602ZM87.4045 18.4048H88.8455C89.5317 18.4048 90.1218 18.2955 90.609 18.0701C91.0962 17.8514 91.4667 17.4689 91.7206 16.9292C91.9745 16.3895 92.1049 15.6312 92.1049 14.6679C92.1049 13.7047 91.9745 12.9464 91.7137 12.4067C91.453 11.867 91.0756 11.4844 90.5747 11.2658C90.0737 11.0472 89.463 10.9311 88.7357 10.9311H87.4045V18.4048Z" fill="white"/>
<path d="M100.593 21.602H96.5166L101.114 7.74072H106.281L110.879 21.602H106.803L103.756 11.5596H103.646L100.599 21.602H100.593ZM99.8309 16.1299H107.496V18.9445H99.8309V16.1299Z" fill="white"/>
<path d="M110.248 10.7739V7.74072H122.346V10.7739H118.16V21.602H114.434V10.7739H110.248Z" fill="white"/>
<path d="M127.725 7.74072V21.602H123.944V7.74072H127.725Z" fill="white"/>
<path d="M143.199 14.6681C143.199 16.212 142.897 17.51 142.293 18.5689C141.689 19.6278 140.879 20.4271 139.85 20.9736C138.821 21.5201 137.682 21.7865 136.426 21.7865C135.17 21.7865 134.011 21.5133 132.988 20.9668C131.966 20.4202 131.156 19.6141 130.552 18.5552C129.948 17.4963 129.653 16.1983 129.653 14.6681C129.653 13.1378 129.955 11.8261 130.552 10.7672C131.156 9.70834 131.966 8.90904 132.988 8.36252C134.011 7.81599 135.157 7.54956 136.426 7.54956C137.695 7.54956 138.828 7.82282 139.85 8.36252C140.873 8.90904 141.689 9.70834 142.293 10.7672C142.897 11.8261 143.199 13.1241 143.199 14.6681ZM139.308 14.6681C139.308 13.8414 139.198 13.1378 138.979 12.5639C138.759 11.9901 138.437 11.5597 138.004 11.2659C137.572 10.9722 137.05 10.8219 136.426 10.8219C135.802 10.8219 135.273 10.9722 134.848 11.2659C134.422 11.5597 134.093 11.9969 133.873 12.5639C133.654 13.1378 133.544 13.8346 133.544 14.6681C133.544 15.5015 133.654 16.1983 133.873 16.7722C134.093 17.346 134.415 17.7764 134.848 18.0702C135.28 18.3639 135.802 18.5142 136.426 18.5142C137.05 18.5142 137.579 18.3639 138.004 18.0702C138.43 17.7764 138.759 17.3392 138.979 16.7722C139.198 16.1983 139.308 15.5015 139.308 14.6681Z" fill="white"/>
<path d="M157.176 7.74072V21.602H154.02L148.99 14.3195H148.908V21.602H145.127V7.74072H148.338L153.286 14.9958H153.396V7.74072H157.176Z" fill="white"/>
<path d="M43.1377 29.1579V24.854H44.7571C45.0865 24.854 45.3678 24.9155 45.5943 25.0385C45.8207 25.1614 45.9923 25.3322 46.1089 25.544C46.2256 25.7558 46.2805 26.0017 46.2805 26.275C46.2805 26.5482 46.2187 26.7942 46.1021 27.0128C45.9854 27.2246 45.8139 27.3953 45.5874 27.5183C45.361 27.6413 45.0796 27.7028 44.7434 27.7028H43.6661V27.0606H44.6336C44.8258 27.0606 44.9904 27.0264 45.114 26.9581C45.2375 26.8898 45.3267 26.801 45.3884 26.678C45.4502 26.5619 45.4776 26.4253 45.4776 26.275C45.4776 26.1247 45.4502 25.988 45.3884 25.8719C45.3267 25.7558 45.2375 25.667 45.114 25.5986C44.9904 25.5303 44.8326 25.503 44.6336 25.503H43.9131V29.1579H43.1309H43.1377Z" fill="white"/>
<path d="M47.6321 29.1579H46.7949L48.3183 24.854H49.2858L50.8091 29.1579H49.972L48.8192 25.7353H48.7849L47.6321 29.1579ZM47.6595 27.4705H49.9377V28.099H47.6595V27.4705Z" fill="white"/>
<path d="M51.9692 29.1579V24.854H53.5887C53.918 24.854 54.1994 24.9087 54.4258 25.0248C54.6522 25.1409 54.8238 25.2981 54.9404 25.5098C55.0571 25.7148 55.112 25.9539 55.112 26.234C55.112 26.5141 55.0502 26.7463 54.9336 26.9513C54.8169 27.1562 54.6454 27.3134 54.4189 27.4227C54.1925 27.532 53.9112 27.5866 53.5818 27.5866H52.429V26.9376H53.4789C53.671 26.9376 53.8357 26.9103 53.9592 26.8557C54.0827 26.801 54.1719 26.7259 54.2337 26.6165C54.2954 26.5072 54.3229 26.3843 54.3229 26.234C54.3229 26.0837 54.2954 25.9471 54.2337 25.8446C54.1719 25.7421 54.0827 25.6533 53.9592 25.5986C53.8357 25.544 53.6779 25.5167 53.4789 25.5167H52.7584V29.1716H51.9761L51.9692 29.1579ZM54.2062 27.2109L55.2767 29.1579H54.4052L53.3553 27.2109H54.2131H54.2062Z" fill="white"/>
<path d="M56.2441 25.5098V24.854H59.6957V25.5098H58.3576V29.1579H57.5822V25.5098H56.2441Z" fill="white"/>
<path d="M66.8798 27.0059C66.8798 27.4705 66.7906 27.8667 66.619 28.1946C66.4475 28.5225 66.2073 28.7753 65.9122 28.9529C65.6103 29.1305 65.2741 29.2125 64.8967 29.2125C64.5193 29.2125 64.1762 29.1237 63.8811 28.9461C63.586 28.7685 63.3459 28.5157 63.1743 28.1878C63.0028 27.8599 62.9136 27.4636 62.9136 26.9991C62.9136 26.5345 63.0028 26.1383 63.1743 25.8104C63.3459 25.4825 63.586 25.2297 63.8811 25.0521C64.183 24.8745 64.5193 24.7925 64.8967 24.7925C65.2741 24.7925 65.6172 24.8813 65.9122 25.0521C66.2142 25.2297 66.4475 25.4825 66.619 25.8104C66.7906 26.1383 66.8798 26.5345 66.8798 26.9991V27.0059ZM66.0906 27.0059C66.0906 26.678 66.0426 26.4047 65.9397 26.1793C65.8368 25.9538 65.6995 25.7831 65.5142 25.6669C65.3358 25.5508 65.1231 25.4961 64.8898 25.4961C64.6565 25.4961 64.4506 25.5508 64.2654 25.6669C64.087 25.7831 63.9429 25.9538 63.8399 26.1793C63.737 26.4047 63.689 26.678 63.689 27.0059C63.689 27.3338 63.737 27.6071 63.8399 27.8325C63.9429 28.058 64.0801 28.2288 64.2654 28.3449C64.4438 28.461 64.6496 28.5157 64.8898 28.5157C65.13 28.5157 65.329 28.461 65.5142 28.3449C65.6927 28.2288 65.8368 28.058 65.9397 27.8325C66.0426 27.6071 66.0906 27.3338 66.0906 27.0059Z" fill="white"/>
<path d="M68.2183 29.1579V24.854H70.9905V25.5098H69.0074V26.678H70.8052V27.3339H69.0074V29.1647H68.2251L68.2183 29.1579Z" fill="white"/>
<path d="M76.068 24.854H76.8434V27.8804C76.8434 28.1605 76.7816 28.3928 76.665 28.5977C76.5483 28.7958 76.3836 28.9529 76.1778 29.0554C75.9719 29.1579 75.7249 29.2194 75.4504 29.2194C75.1965 29.2194 74.9701 29.1716 74.7642 29.0827C74.5652 28.9939 74.4005 28.8573 74.2839 28.6797C74.1672 28.5021 74.1055 28.2835 74.1055 28.017H74.8877C74.8877 28.1332 74.9152 28.2356 74.9632 28.3176C75.0112 28.3996 75.0799 28.4679 75.1691 28.5089C75.2583 28.5567 75.3612 28.5772 75.4779 28.5772C75.6014 28.5772 75.7112 28.5499 75.7935 28.4952C75.8827 28.4406 75.9445 28.3654 75.9925 28.263C76.0405 28.1605 76.0611 28.0307 76.0611 27.8804V24.854H76.068Z" fill="white"/>
<path d="M78.8474 29.1579H78.0103L79.5336 24.854H80.5011L82.0245 29.1579H81.1873L80.0345 25.7353H80.0002L78.8474 29.1579ZM78.868 27.4705H81.1462V28.099H78.868V27.4705Z" fill="white"/>
<path d="M86.6833 26.3091H85.8942C85.8736 26.1793 85.8325 26.0632 85.7707 25.9675C85.7089 25.8719 85.6335 25.7831 85.5443 25.7148C85.4551 25.6464 85.3521 25.5918 85.2355 25.5576C85.1188 25.5235 84.9953 25.503 84.8649 25.503C84.6316 25.503 84.4189 25.5645 84.2405 25.6806C84.0621 25.7967 83.918 25.9675 83.8151 26.193C83.7121 26.4184 83.6641 26.6917 83.6641 27.0128C83.6641 27.3338 83.719 27.6208 83.8219 27.8462C83.9249 28.0716 84.069 28.2424 84.2474 28.3517C84.4258 28.461 84.6385 28.5225 84.8718 28.5225C85.0022 28.5225 85.1257 28.5089 85.2355 28.4679C85.3521 28.4337 85.4482 28.3859 85.5443 28.3176C85.6335 28.2493 85.7089 28.1673 85.7776 28.0716C85.8393 27.976 85.8805 27.8599 85.9079 27.7369H86.6971C86.6696 27.9487 86.601 28.14 86.5049 28.3176C86.4089 28.4952 86.2785 28.6523 86.1207 28.789C85.9628 28.9256 85.7776 29.0349 85.5649 29.11C85.3521 29.1852 85.1188 29.2262 84.8649 29.2262C84.4875 29.2262 84.1444 29.1374 83.8494 28.9666C83.5543 28.789 83.3141 28.5362 83.1426 28.2083C82.971 27.8804 82.8818 27.4841 82.8818 27.0196C82.8818 26.555 82.971 26.1588 83.1426 25.8309C83.3141 25.503 83.5543 25.2502 83.8494 25.0726C84.1444 24.895 84.4875 24.813 84.8649 24.813C85.1051 24.813 85.3315 24.8471 85.5374 24.9155C85.7433 24.9838 85.9285 25.0794 86.0932 25.2092C86.2579 25.339 86.3883 25.4961 86.4912 25.6874C86.5941 25.8787 86.6628 26.0905 86.6971 26.3296L86.6833 26.3091Z" fill="white"/>
<path d="M87.9941 29.1579V24.854H88.7764V26.8283H88.8313L90.5193 24.854H91.4731L89.7988 26.7873L91.4869 29.1579H90.5468L89.2567 27.3134L88.7764 27.8736V29.1579H87.9941Z" fill="white"/>
<path d="M92.6123 29.1579V24.854H95.3845V25.5098H93.4014V26.678H95.1992V27.3339H93.4014V29.1647H92.6192L92.6123 29.1579Z" fill="white"/>
<path d="M96.6885 29.1579V24.854H98.3079C98.6373 24.854 98.9186 24.9087 99.145 25.0248C99.3715 25.1409 99.543 25.2981 99.6597 25.5098C99.7763 25.7148 99.8312 25.9539 99.8312 26.234C99.8312 26.5141 99.7695 26.7463 99.6528 26.9513C99.5362 27.1562 99.3646 27.3134 99.1382 27.4227C98.9117 27.532 98.6304 27.5866 98.301 27.5866H97.1482V26.9376H98.1981C98.3902 26.9376 98.5549 26.9103 98.6784 26.8557C98.802 26.801 98.8912 26.7259 98.9529 26.6165C99.0147 26.5072 99.0421 26.3843 99.0421 26.234C99.0421 26.0837 99.0147 25.9471 98.9529 25.8446C98.8912 25.7421 98.802 25.6533 98.6784 25.5986C98.5549 25.544 98.3971 25.5167 98.1981 25.5167H97.4776V29.1716H96.6953L96.6885 29.1579ZM98.9186 27.2109L99.9891 29.1579H99.1176L98.0677 27.2109H98.9255H98.9186Z" fill="white"/>
<path d="M103.873 24.854H104.655V27.6686C104.655 27.976 104.579 28.2493 104.435 28.4816C104.291 28.7138 104.085 28.8983 103.825 29.0281C103.564 29.1579 103.255 29.2262 102.905 29.2262C102.555 29.2262 102.246 29.1579 101.979 29.0281C101.718 28.8983 101.512 28.7138 101.368 28.4816C101.224 28.2493 101.148 27.976 101.148 27.6686V24.854H101.931V27.6003C101.931 27.7779 101.972 27.9419 102.047 28.0785C102.13 28.2151 102.239 28.3313 102.384 28.4064C102.528 28.4884 102.699 28.5226 102.898 28.5226C103.097 28.5226 103.269 28.4816 103.413 28.4064C103.557 28.3244 103.674 28.2151 103.749 28.0785C103.831 27.9419 103.866 27.7779 103.866 27.6003V24.854H103.873Z" fill="white"/>
<path d="M106.885 24.854V29.1579H106.103V24.854H106.885Z" fill="white"/>
<path d="M108.141 25.5098V24.854H111.592V25.5098H110.254V29.1579H109.479V25.5098H108.141Z" fill="white"/>
<path d="M118.468 24.854V29.1579H117.768L115.73 26.2272H115.695V29.1579H114.913V24.854H115.613L117.644 27.7847H117.685V24.854H118.468Z" fill="white"/>
<path d="M119.916 29.1579V24.854H122.729V25.5098H120.698V26.678H122.578V27.3339H120.698V28.5089H122.743V29.1647H119.916V29.1579Z" fill="white"/>
<path d="M123.93 25.5098V24.854H127.381V25.5098H126.043V29.1579H125.268V25.5098H123.93Z" fill="white"/>
<path d="M129.543 29.1579L128.321 24.854H129.165L129.948 28.017H129.989L130.819 24.854H131.588L132.425 28.017H132.466L133.248 24.854H134.092L132.871 29.1579H132.095L131.231 26.1383H131.196L130.332 29.1579H129.556H129.543Z" fill="white"/>
<path d="M138.848 27.0059C138.848 27.4705 138.759 27.8667 138.587 28.1946C138.416 28.5225 138.176 28.7753 137.881 28.9529C137.579 29.1305 137.242 29.2125 136.865 29.2125C136.488 29.2125 136.144 29.1237 135.849 28.9461C135.554 28.7685 135.314 28.5157 135.143 28.1878C134.971 27.8599 134.882 27.4636 134.882 26.9991C134.882 26.5345 134.971 26.1383 135.143 25.8104C135.314 25.4825 135.554 25.2297 135.849 25.0521C136.151 24.8745 136.488 24.7925 136.865 24.7925C137.242 24.7925 137.585 24.8813 137.881 25.0521C138.182 25.2297 138.416 25.4825 138.587 25.8104C138.759 26.1383 138.848 26.5345 138.848 26.9991V27.0059ZM138.059 27.0059C138.059 26.678 138.011 26.4047 137.908 26.1793C137.805 25.9538 137.668 25.7831 137.483 25.6669C137.304 25.5508 137.091 25.4961 136.858 25.4961C136.625 25.4961 136.419 25.5508 136.234 25.6669C136.055 25.7831 135.911 25.9538 135.808 26.1793C135.705 26.4047 135.657 26.678 135.657 27.0059C135.657 27.3338 135.705 27.6071 135.808 27.8325C135.911 28.058 136.048 28.2288 136.234 28.3449C136.412 28.461 136.618 28.5157 136.858 28.5157C137.098 28.5157 137.297 28.461 137.483 28.3449C137.661 28.2288 137.805 28.058 137.908 27.8325C138.011 27.6071 138.059 27.3338 138.059 27.0059Z" fill="white"/>
<path d="M140.186 29.1579V24.854H141.805C142.134 24.854 142.416 24.9087 142.642 25.0248C142.869 25.1409 143.04 25.2981 143.157 25.5098C143.273 25.7148 143.328 25.9539 143.328 26.234C143.328 26.5141 143.267 26.7463 143.15 26.9513C143.033 27.1562 142.862 27.3134 142.635 27.4227C142.409 27.532 142.127 27.5866 141.798 27.5866H140.645V26.9376H141.695C141.887 26.9376 142.052 26.9103 142.176 26.8557C142.299 26.801 142.388 26.7259 142.45 26.6165C142.512 26.5072 142.539 26.3843 142.539 26.234C142.539 26.0837 142.512 25.9471 142.45 25.8446C142.388 25.7421 142.299 25.6533 142.176 25.5986C142.052 25.544 141.894 25.5167 141.695 25.5167H140.975V29.1716H140.192L140.186 29.1579ZM142.416 27.2109L143.486 29.1579H142.615L141.565 27.2109H142.423H142.416Z" fill="white"/>
<path d="M144.646 29.1579V24.854H145.429V26.8283H145.484L147.172 24.854H148.125L146.451 26.7873L148.139 29.1579H147.199L145.909 27.3134L145.429 27.8736V29.1579H144.646Z" fill="white"/>
</g>
<defs>
<clipPath id="clip0_1847_2963">
<rect width="164" height="29" fill="white" transform="translate(0.154785 0.226074)"/>
</clipPath>
</defs>
</svg>
