<svg width="197" height="35" viewBox="0 0 197 35" fill="none" xmlns="http://www.w3.org/2000/svg">
<g clip-path="url(#clip0_1847_3036)">
<path d="M0.222552 0.0166791H0V14.6351H4.68184C4.68184 10.7764 4.68184 6.50549 4.68184 5.20278V5.03788H7.92121C10.2044 5.03788 12.5206 5.03788 14.8368 5.03788V0.0166791C10.0396 0.000189124 5.09397 -0.00805587 0.222552 0.0166791Z" fill="white"/>
<path d="M196.777 34.4558H197V19.8375H192.318C192.318 23.6961 192.318 27.967 192.318 29.2697V29.4346H189.079C186.795 29.4346 184.479 29.4346 182.163 29.4346V34.4558C186.96 34.4723 191.906 34.4806 196.777 34.4558Z" fill="white"/>
<path d="M9.1084 9.06949H13.5842V20.5383C13.5842 21.6266 13.3039 22.583 12.7599 23.4075C12.2159 24.232 11.474 24.8751 10.5261 25.3369C9.57823 25.7986 8.48196 26.0294 7.24556 26.0294C6.17401 26.0294 5.19313 25.8398 4.30292 25.4688C3.41271 25.0978 2.71208 24.5041 2.17631 23.7044C1.64878 22.9046 1.38501 21.8575 1.39325 20.5713H5.93497C5.95145 20.9917 6.02564 21.3463 6.14928 21.6349C6.28116 21.9234 6.45426 22.1378 6.68505 22.2862C6.91585 22.4264 7.1961 22.5006 7.52581 22.5006C7.85551 22.5006 8.14401 22.4264 8.38304 22.278C8.61384 22.1296 8.78694 21.9152 8.91058 21.6184C9.02597 21.3298 9.09192 20.967 9.10016 20.5383V9.06949H9.1084Z" fill="black"/>
<path d="M15.9663 25.7986V9.06949H27.7203V12.7303H20.4997V15.6078H26.995V19.2685H20.4997V25.7986H15.958H15.9663Z" fill="black"/>
<path d="M34.4218 25.7986V9.06949H46.1759V12.7303H38.9553V15.6078H45.4505V19.2685H38.9553V25.7986H34.4136H34.4218Z" fill="black"/>
<path d="M64.2764 17.4299C64.2764 19.2933 63.9137 20.8598 63.1884 22.1378C62.463 23.4158 61.4904 24.3804 60.254 25.04C59.0176 25.6996 57.6493 26.0212 56.1409 26.0212C54.6325 26.0212 53.2395 25.6914 52.0113 25.0318C50.7832 24.3722 49.8105 23.3993 49.0852 22.1213C48.3598 20.8433 48.0054 19.2768 48.0054 17.4299C48.0054 15.583 48.368 14 49.0852 12.722C49.8105 11.444 50.7832 10.4794 52.0113 9.81978C53.2395 9.16018 54.616 8.83862 56.1409 8.83862C57.6658 8.83862 59.0258 9.16842 60.254 9.81978C61.4821 10.4794 62.463 11.444 63.1884 12.722C63.9137 14 64.2764 15.5665 64.2764 17.4299ZM59.6028 17.4299C59.6028 16.4323 59.4709 15.583 59.2072 14.8904C58.9434 14.1979 58.556 13.6784 58.0367 13.3239C57.5174 12.9694 56.891 12.788 56.1409 12.788C55.3908 12.788 54.7561 12.9694 54.2451 13.3239C53.734 13.6784 53.3384 14.2061 53.0746 14.8904C52.8109 15.583 52.679 16.424 52.679 17.4299C52.679 18.4358 52.8109 19.2768 53.0746 19.9694C53.3384 20.6619 53.7258 21.1814 54.2451 21.5359C54.7644 21.8904 55.3908 22.0718 56.1409 22.0718C56.891 22.0718 57.5257 21.8904 58.0367 21.5359C58.5478 21.1814 58.9434 20.6537 59.2072 19.9694C59.4709 19.2768 59.6028 18.4358 59.6028 17.4299Z" fill="black"/>
<path d="M76.4922 9.06949H81.0339V19.788C81.0339 21.066 80.729 22.1625 80.1272 23.0942C79.5173 24.0259 78.6765 24.735 77.5885 25.2379C76.5087 25.7409 75.2476 25.9965 73.8134 25.9965C72.3791 25.9965 71.1098 25.7409 70.0217 25.2379C68.9419 24.735 68.0929 24.0177 67.4912 23.0942C66.8895 22.1625 66.5928 21.066 66.5928 19.788V9.06949H71.1345V19.3922C71.1345 19.9117 71.2499 20.3734 71.4807 20.7774C71.7115 21.1814 72.0247 21.5029 72.4286 21.7256C72.8325 21.9564 73.2941 22.0718 73.8134 22.0718C74.3326 22.0718 74.8025 21.9564 75.1981 21.7256C75.5938 21.4947 75.9152 21.1814 76.146 20.7774C76.3768 20.3734 76.4922 19.9117 76.4922 19.3922V9.06949Z" fill="black"/>
<path d="M97.8819 9.06949V25.7986H94.0902L88.0483 17.0094H87.9494V25.7986H83.4077V9.06949H87.2653L93.2083 17.8257H93.3401V9.06949H97.8819Z" fill="black"/>
<path d="M106.702 25.7986H100.265V9.06949H106.636C108.359 9.06949 109.843 9.39929 111.096 10.0671C112.348 10.735 113.321 11.6914 114.005 12.9446C114.689 14.1979 115.027 15.6902 115.027 17.4299C115.027 19.1696 114.689 20.6702 114.005 21.9152C113.321 23.1684 112.365 24.1248 111.112 24.7927C109.867 25.4605 108.392 25.7903 106.694 25.7903L106.702 25.7986ZM104.806 21.9399H106.537C107.362 21.9399 108.07 21.808 108.656 21.5359C109.241 21.2721 109.686 20.8104 109.991 20.159C110.296 19.5077 110.453 18.5925 110.453 17.4299C110.453 16.2674 110.296 15.3522 109.983 14.7008C109.67 14.0495 109.216 13.5877 108.614 13.3239C108.013 13.0601 107.279 12.9199 106.405 12.9199H104.806V21.9399Z" fill="black"/>
<path d="M120.648 25.7986H115.752L121.275 9.06949H127.481L133.004 25.7986H128.108L124.448 13.6784H124.316L120.656 25.7986H120.648ZM119.733 19.1943H128.94V22.5913H119.733V19.1943Z" fill="black"/>
<path d="M132.246 12.7303V9.06949H146.778V12.7303H141.75V25.7986H137.274V12.7303H132.246Z" fill="black"/>
<path d="M153.24 9.06949V25.7986H148.698V9.06949H153.24Z" fill="black"/>
<path d="M171.827 17.4299C171.827 19.2933 171.464 20.8598 170.739 22.1378C170.013 23.4158 169.041 24.3804 167.804 25.04C166.568 25.6996 165.2 26.0212 163.691 26.0212C162.183 26.0212 160.79 25.6914 159.562 25.0318C158.333 24.3722 157.361 23.3993 156.635 22.1213C155.91 20.8433 155.556 19.2768 155.556 17.4299C155.556 15.583 155.918 14 156.635 12.722C157.361 11.444 158.333 10.4794 159.562 9.81978C160.79 9.16018 162.166 8.83862 163.691 8.83862C165.216 8.83862 166.576 9.16842 167.804 9.81978C169.032 10.4794 170.013 11.444 170.739 12.722C171.464 14 171.827 15.5665 171.827 17.4299ZM167.153 17.4299C167.153 16.4323 167.021 15.583 166.757 14.8904C166.494 14.1979 166.106 13.6784 165.587 13.3239C165.068 12.9694 164.441 12.788 163.691 12.788C162.941 12.788 162.306 12.9694 161.795 13.3239C161.284 13.6784 160.889 14.2061 160.625 14.8904C160.361 15.583 160.229 16.424 160.229 17.4299C160.229 18.4358 160.361 19.2768 160.625 19.9694C160.889 20.6619 161.276 21.1814 161.795 21.5359C162.315 21.8904 162.941 22.0718 163.691 22.0718C164.441 22.0718 165.076 21.8904 165.587 21.5359C166.098 21.1814 166.494 20.6537 166.757 19.9694C167.021 19.2768 167.153 18.4358 167.153 17.4299Z" fill="black"/>
<path d="M188.618 9.06949V25.7986H184.826L178.784 17.0094H178.685V25.7986H174.144V9.06949H178.001L183.944 17.8257H184.076V9.06949H188.618Z" fill="black"/>
<path d="M51.6323 34.9176V29.7232H53.5775C53.9732 29.7232 54.3111 29.7974 54.5831 29.9458C54.8552 30.0942 55.0612 30.3004 55.2013 30.556C55.3415 30.8115 55.4074 31.1084 55.4074 31.4382C55.4074 31.768 55.3332 32.0648 55.1931 32.3286C55.053 32.5842 54.8469 32.7903 54.5749 32.9388C54.3029 33.0872 53.9649 33.1614 53.5611 33.1614H52.267V32.3863H53.4292C53.66 32.3863 53.8578 32.3451 54.0062 32.2627C54.1545 32.1802 54.2617 32.073 54.3359 31.9246C54.41 31.7845 54.443 31.6196 54.443 31.4382C54.443 31.2568 54.41 31.0919 54.3359 30.9517C54.2617 30.8115 54.1545 30.7044 54.0062 30.6219C53.8578 30.5395 53.6682 30.5065 53.4292 30.5065H52.5637V34.9176H51.624H51.6323Z" fill="black"/>
<path d="M57.031 34.9176H56.0254L57.8553 29.7232H59.0175L60.8474 34.9176H59.8417L58.457 30.7868H58.4158L57.031 34.9176ZM57.064 32.881H59.8005V33.6396H57.064V32.881Z" fill="black"/>
<path d="M62.2407 34.9176V29.7232H64.186C64.5816 29.7232 64.9196 29.7892 65.1916 29.9293C65.4636 30.0695 65.6697 30.2591 65.8098 30.5147C65.9499 30.7621 66.0159 31.0506 66.0159 31.3887C66.0159 31.7267 65.9417 32.0071 65.8016 32.2544C65.6614 32.5018 65.4554 32.6914 65.1834 32.8233C64.9114 32.9552 64.5734 33.0212 64.1778 33.0212H62.793V32.2379H64.0541C64.2849 32.2379 64.4827 32.2049 64.6311 32.139C64.7795 32.073 64.8866 31.9823 64.9608 31.8504C65.035 31.7185 65.068 31.5701 65.068 31.3887C65.068 31.2073 65.035 31.0424 64.9608 30.9187C64.8866 30.7951 64.7795 30.6879 64.6311 30.6219C64.4827 30.556 64.2931 30.523 64.0541 30.523H63.1886V34.934H62.249L62.2407 34.9176ZM64.9278 32.5677L66.2137 34.9176H65.1669L63.9057 32.5677H64.9361H64.9278Z" fill="black"/>
<path d="M67.376 30.5147V29.7232H71.522V30.5147H69.9147V34.9176H68.9833V30.5147H67.376Z" fill="black"/>
<path d="M80.152 32.3204C80.152 32.881 80.0448 33.3592 79.8387 33.755C79.6327 34.1508 79.3442 34.4558 78.9897 34.6702C78.6271 34.8846 78.2232 34.9835 77.7698 34.9835C77.3165 34.9835 76.9044 34.8763 76.5499 34.6619C76.1955 34.4476 75.907 34.1425 75.7009 33.7467C75.4948 33.351 75.3877 32.8728 75.3877 32.3121C75.3877 31.7515 75.4948 31.2733 75.7009 30.8775C75.907 30.4817 76.1955 30.1767 76.5499 29.9623C76.9126 29.7479 77.3165 29.649 77.7698 29.649C78.2232 29.649 78.6353 29.7562 78.9897 29.9623C79.3524 30.1767 79.6327 30.4817 79.8387 30.8775C80.0448 31.2733 80.152 31.7515 80.152 32.3121V32.3204ZM79.2041 32.3204C79.2041 31.9246 79.1464 31.5948 79.0227 31.3227C78.8991 31.0506 78.7342 30.8445 78.5117 30.7043C78.2974 30.5642 78.0418 30.4982 77.7616 30.4982C77.4813 30.4982 77.2341 30.5642 77.0115 30.7043C76.7972 30.8445 76.6241 31.0506 76.5005 31.3227C76.3768 31.5948 76.3191 31.9246 76.3191 32.3204C76.3191 32.7161 76.3768 33.0459 76.5005 33.318C76.6241 33.5901 76.789 33.7962 77.0115 33.9364C77.2258 34.0765 77.4731 34.1425 77.7616 34.1425C78.0501 34.1425 78.2891 34.0765 78.5117 33.9364C78.726 33.7962 78.8991 33.5901 79.0227 33.318C79.1464 33.0459 79.2041 32.7161 79.2041 32.3204Z" fill="black"/>
<path d="M81.7593 34.9176V29.7232H85.0893V30.5147H82.7072V31.9246H84.8668V32.7161H82.7072V34.9258H81.7675L81.7593 34.9176Z" fill="black"/>
<path d="M91.1889 29.7232H92.1204V33.3757C92.1204 33.7138 92.0462 33.9941 91.9061 34.2415C91.7659 34.4806 91.5681 34.6702 91.3208 34.7939C91.0736 34.9176 90.7768 34.9918 90.4471 34.9918C90.1421 34.9918 89.8701 34.934 89.6228 34.8269C89.3838 34.7197 89.186 34.5548 89.0459 34.3404C88.9057 34.126 88.8315 33.8622 88.8315 33.5406H89.7712C89.7712 33.6808 89.8042 33.8045 89.8619 33.9034C89.9196 34.0024 90.002 34.0848 90.1092 34.1343C90.2163 34.192 90.34 34.2167 90.4801 34.2167C90.6284 34.2167 90.7603 34.1837 90.8592 34.1178C90.9664 34.0518 91.0406 33.9611 91.0983 33.8375C91.156 33.7138 91.1807 33.5571 91.1807 33.3757V29.7232H91.1889Z" fill="black"/>
<path d="M94.5271 34.9176H93.5215L95.3514 29.7232H96.5136L98.3434 34.9176H97.3378L95.9531 30.7868H95.9119L94.5271 34.9176ZM94.5518 32.881H97.2884V33.6396H94.5518V32.881Z" fill="black"/>
<path d="M103.94 31.4794H102.993C102.968 31.3227 102.918 31.1826 102.844 31.0671C102.77 30.9517 102.679 30.8445 102.572 30.7621C102.465 30.6796 102.341 30.6137 102.201 30.5724C102.061 30.5312 101.913 30.5065 101.756 30.5065C101.476 30.5065 101.22 30.5807 101.006 30.7208C100.792 30.861 100.619 31.0671 100.495 31.3392C100.371 31.6113 100.314 31.9411 100.314 32.3286C100.314 32.7161 100.38 33.0624 100.503 33.3345C100.627 33.6066 100.8 33.8127 101.014 33.9446C101.229 34.0766 101.484 34.1508 101.764 34.1508C101.921 34.1508 102.069 34.1343 102.201 34.0848C102.341 34.0436 102.457 33.9859 102.572 33.9034C102.679 33.821 102.77 33.722 102.852 33.6066C102.927 33.4912 102.976 33.351 103.009 33.2026H103.957C103.924 33.4582 103.842 33.689 103.726 33.9034C103.611 34.1178 103.454 34.3074 103.265 34.4723C103.075 34.6372 102.852 34.7691 102.597 34.8598C102.341 34.9505 102.061 35 101.756 35C101.303 35 100.891 34.8928 100.536 34.6867C100.182 34.4723 99.8933 34.1673 99.6872 33.7715C99.4812 33.3757 99.374 32.8975 99.374 32.3369C99.374 31.7762 99.4812 31.298 99.6872 30.9022C99.8933 30.5065 100.182 30.2014 100.536 29.987C100.891 29.7727 101.303 29.6737 101.756 29.6737C102.045 29.6737 102.317 29.715 102.564 29.7974C102.811 29.8799 103.034 29.9953 103.232 30.1519C103.429 30.3086 103.586 30.4982 103.71 30.7291C103.833 30.96 103.916 31.2155 103.957 31.5041L103.94 31.4794Z" fill="black"/>
<path d="M105.515 34.9176V29.7232H106.454V32.106H106.52L108.548 29.7232H109.694L107.682 32.0565L109.71 34.9176H108.581L107.031 32.6914L106.454 33.3675V34.9176H105.515Z" fill="black"/>
<path d="M111.062 34.9176V29.7232H114.392V30.5147H112.009V31.9246H114.169V32.7161H112.009V34.9258H111.07L111.062 34.9176Z" fill="black"/>
<path d="M115.958 34.9176V29.7232H117.903C118.299 29.7232 118.637 29.7892 118.909 29.9293C119.181 30.0695 119.387 30.2591 119.527 30.5147C119.667 30.7621 119.733 31.0506 119.733 31.3887C119.733 31.7267 119.659 32.0071 119.519 32.2544C119.379 32.5018 119.173 32.6914 118.901 32.8233C118.629 32.9552 118.291 33.0212 117.895 33.0212H116.51V32.2379H117.771C118.002 32.2379 118.2 32.2049 118.348 32.139C118.497 32.073 118.604 31.9823 118.678 31.8504C118.752 31.7185 118.785 31.5701 118.785 31.3887C118.785 31.2073 118.752 31.0424 118.678 30.9187C118.604 30.7951 118.497 30.6879 118.348 30.6219C118.2 30.556 118.01 30.523 117.771 30.523H116.906V34.934H115.966L115.958 34.9176ZM118.637 32.5677L119.923 34.9176H118.876L117.615 32.5677H118.645H118.637Z" fill="black"/>
<path d="M124.588 29.7232H125.527V33.1201C125.527 33.4912 125.437 33.821 125.264 34.1013C125.091 34.3816 124.843 34.6042 124.53 34.7609C124.217 34.9176 123.846 35 123.426 35C123.005 35 122.634 34.9176 122.313 34.7609C122 34.6042 121.752 34.3816 121.579 34.1013C121.406 33.821 121.315 33.4912 121.315 33.1201V29.7232H122.255V33.0377C122.255 33.2521 122.305 33.4499 122.395 33.6148C122.494 33.7797 122.626 33.9199 122.799 34.0106C122.972 34.1095 123.178 34.1508 123.417 34.1508C123.656 34.1508 123.862 34.1013 124.036 34.0106C124.209 33.9117 124.349 33.7797 124.439 33.6148C124.538 33.4499 124.58 33.2521 124.58 33.0377V29.7232H124.588Z" fill="black"/>
<path d="M128.206 29.7232V34.9176H127.267V29.7232H128.206Z" fill="black"/>
<path d="M129.715 30.5147V29.7232H133.861V30.5147H132.254V34.9176H131.322V30.5147H129.715Z" fill="black"/>
<path d="M142.12 29.7232V34.9176H141.28L138.831 31.3805H138.79V34.9176H137.851V29.7232H138.691L141.131 33.2603H141.181V29.7232H142.12Z" fill="black"/>
<path d="M143.859 34.9176V29.7232H147.239V30.5147H144.799V31.9246H147.058V32.7161H144.799V34.1343H147.255V34.9258H143.859V34.9176Z" fill="black"/>
<path d="M148.682 30.5147V29.7232H152.828V30.5147H151.22V34.9176H150.289V30.5147H148.682Z" fill="black"/>
<path d="M155.424 34.9176L153.957 29.7232H154.971L155.911 33.5406H155.96L156.957 29.7232H157.881L158.886 33.5406H158.936L159.875 29.7232H160.889L159.422 34.9176H158.491L157.452 31.2733H157.411L156.372 34.9176H155.441H155.424Z" fill="black"/>
<path d="M166.601 32.3204C166.601 32.881 166.494 33.3592 166.288 33.755C166.082 34.1508 165.793 34.4558 165.439 34.6702C165.076 34.8846 164.672 34.9835 164.219 34.9835C163.766 34.9835 163.354 34.8763 162.999 34.6619C162.645 34.4476 162.356 34.1425 162.15 33.7467C161.944 33.351 161.837 32.8728 161.837 32.3121C161.837 31.7515 161.944 31.2733 162.15 30.8775C162.356 30.4817 162.645 30.1767 162.999 29.9623C163.362 29.7479 163.766 29.649 164.219 29.649C164.672 29.649 165.085 29.7562 165.439 29.9623C165.802 30.1767 166.082 30.4817 166.288 30.8775C166.494 31.2733 166.601 31.7515 166.601 32.3121V32.3204ZM165.653 32.3204C165.653 31.9246 165.596 31.5948 165.472 31.3227C165.348 31.0506 165.183 30.8445 164.961 30.7043C164.747 30.5642 164.491 30.4982 164.211 30.4982C163.931 30.4982 163.683 30.5642 163.461 30.7043C163.246 30.8445 163.073 31.0506 162.95 31.3227C162.826 31.5948 162.768 31.9246 162.768 32.3204C162.768 32.7161 162.826 33.0459 162.95 33.318C163.073 33.5901 163.238 33.7962 163.461 33.9364C163.675 34.0765 163.922 34.1425 164.211 34.1425C164.499 34.1425 164.738 34.0765 164.961 33.9364C165.175 33.7962 165.348 33.5901 165.472 33.318C165.596 33.0459 165.653 32.7161 165.653 32.3204Z" fill="black"/>
<path d="M168.208 34.9176V29.7232H170.153C170.549 29.7232 170.887 29.7892 171.159 29.9293C171.431 30.0695 171.637 30.2591 171.777 30.5147C171.917 30.7621 171.983 31.0506 171.983 31.3887C171.983 31.7267 171.909 32.0071 171.769 32.2544C171.629 32.5018 171.423 32.6914 171.151 32.8233C170.879 32.9552 170.541 33.0212 170.145 33.0212H168.76V32.2379H170.021C170.252 32.2379 170.45 32.2049 170.598 32.139C170.747 32.073 170.854 31.9823 170.928 31.8504C171.002 31.7185 171.035 31.5701 171.035 31.3887C171.035 31.2073 171.002 31.0424 170.928 30.9187C170.854 30.7951 170.747 30.6879 170.598 30.6219C170.45 30.556 170.26 30.523 170.021 30.523H169.156V34.934H168.216L168.208 34.9176ZM170.887 32.5677L172.173 34.9176H171.126L169.865 32.5677H170.895H170.887Z" fill="black"/>
<path d="M173.566 34.9176V29.7232H174.506V32.106H174.572L176.6 29.7232H177.745L175.734 32.0565L177.762 34.9176H176.633L175.083 32.6914L174.506 33.3675V34.9176H173.566Z" fill="black"/>
</g>
<defs>
<clipPath id="clip0_1847_3036">
<rect width="197" height="35" fill="white"/>
</clipPath>
</defs>
</svg>
