<svg width="51" height="53" viewBox="0 0 51 53" fill="none" xmlns="http://www.w3.org/2000/svg">
<path d="M47.9879 36.2546C49.175 35.2424 49.8051 34.1564 49.9147 32.9331C50.042 31.5139 50.0722 30.0273 50.0092 28.3843C49.9651 27.2564 49.3728 26.2963 48.2953 25.607C47.2254 24.9229 45.9841 24.6482 44.6105 24.7932C44.3799 24.8173 44.1518 24.8542 43.9098 24.8923C43.8204 24.9063 43.7284 24.9216 43.6351 24.9356V20.0448C43.6351 14.0311 43.6338 7.81393 43.6439 1.69851C43.6439 1.27886 43.5809 0.805802 43.1071 0.473898L43.0907 0.462453H42.4505L42.4341 0.473898C41.959 0.803259 41.896 1.27759 41.8973 1.69851C41.9074 7.75925 41.9073 13.923 41.9061 19.882V24.7029C41.7977 24.7181 41.6906 24.7308 41.5873 24.7423C41.3277 24.7728 41.0832 24.8021 40.8412 24.858C39.3441 25.2039 38.4254 26.1844 38.1078 27.7752C37.7373 29.6318 37.8306 31.5381 37.9591 33.3324C38.0272 34.281 38.4317 35.1814 39.1979 36.0868C39.4323 36.3627 39.5243 36.6374 39.5067 37.0024C39.4903 37.3419 39.4941 37.6802 39.4978 38.0362C39.4991 38.1749 39.5004 38.3173 39.5016 38.461C38.7253 38.6428 38.6573 39.2596 38.6951 39.842C38.7165 40.1714 38.7102 40.4982 38.6926 40.8148C38.3498 39.4325 37.8646 38.2257 37.2156 37.1359C36.4506 35.8541 35.5194 34.7782 34.4457 33.9389C34.1218 33.6859 34.0021 33.4252 34.0033 32.9763C34.0134 26.9893 34.0235 19.0898 34.0084 11.0783C34.0033 8.61381 33.2144 6.31718 31.7249 4.43767C30.2378 2.5607 28.1912 1.27377 25.8082 0.718057C25.5209 0.650659 25.226 0.594706 24.9399 0.540025C24.8051 0.514591 24.6715 0.489158 24.5253 0.461182H19.1984C19.153 0.472627 19.1064 0.481528 19.061 0.49043C18.9615 0.510776 18.8594 0.531123 18.7598 0.557828C18.4637 0.636671 18.1575 0.709156 17.8626 0.779097C17.1657 0.943141 16.4448 1.11354 15.7794 1.39331C14.7284 1.83585 13.932 2.094 13.1166 2.25931C9.23266 3.04393 6.62151 6.28921 6.61899 10.3356C6.61395 18.0762 6.61521 25.7494 6.62403 33.1429C6.62403 33.4633 6.53329 33.6554 6.28755 33.8525C3.97507 35.704 2.53717 38.0146 2.01419 40.7207C1.51892 43.2882 1.09171 45.9129 0.678366 48.4512C0.52462 49.3922 0.372135 50.3345 0.215869 51.2742C0.167981 51.5629 0.21965 51.8325 0.363313 52.0334C0.493115 52.2165 0.685927 52.3335 0.921586 52.3717C0.977035 52.3806 1.03122 52.3857 1.08415 52.3857C1.53027 52.3857 1.85288 52.0652 1.94235 51.5159C2.12004 50.4299 2.29521 49.3248 2.46282 48.2553C2.7993 46.1202 3.14837 43.9113 3.5403 41.7495C4.31155 37.492 6.8118 34.6702 10.9743 33.3603C11.2591 33.2713 11.5477 33.2141 11.8829 33.1492C12.0013 33.1264 12.1248 33.1022 12.2534 33.0755C12.2395 33.0984 12.2257 33.12 12.2143 33.1403C12.1601 33.2294 12.1223 33.2904 12.082 33.3502C11.8728 33.6605 11.6611 33.9682 11.4506 34.2772C10.9869 34.955 10.5067 35.657 10.0518 36.3577C9.8426 36.6794 9.77329 36.9337 9.83252 37.1601C9.89175 37.3864 10.0808 37.5759 10.4273 37.7539C10.7512 37.9205 11.0889 38.068 11.4166 38.2092L11.4317 38.2155C12.3277 38.6047 13.2263 38.9913 14.1349 39.3829L15.1166 39.8064L14.8166 40.4028C14.5608 40.9115 14.3126 41.4049 14.0668 41.8983C13.7026 42.6282 13.7518 42.8838 14.3592 43.4154L15.2653 44.2089C16.5179 45.3076 17.8147 46.4432 19.1026 47.5445C19.366 47.7695 19.4656 47.9972 19.458 48.3545C19.4391 49.204 19.4441 50.0662 19.4492 50.9016L19.4517 51.3404C19.4542 51.9686 19.7793 52.3666 20.2986 52.3768C20.5317 52.3819 20.7371 52.3056 20.8871 52.1568C21.0761 51.9711 21.1769 51.6812 21.1782 51.3213V51.0377C21.1832 50.1361 21.1883 49.204 21.1731 48.2858C21.1681 47.9768 21.2488 47.7912 21.4705 47.603C22.6249 46.6212 23.7881 45.6128 24.9147 44.6374C25.3545 44.2572 25.7931 43.8757 26.2329 43.4955C26.8894 42.9283 26.9361 42.6893 26.5416 41.8996C26.2921 41.3985 26.0413 40.8975 25.7893 40.3914L25.5196 39.8509L25.6607 39.7873C25.7893 39.7288 25.9014 39.678 26.0149 39.6284C26.4269 39.4465 26.839 39.2659 27.2511 39.0854C28.2001 38.6695 29.1805 38.2397 30.1383 37.801C30.5453 37.6153 30.7658 37.4144 30.8339 37.1728C30.902 36.9312 30.8188 36.6438 30.5718 36.2699C30.1458 35.6264 29.6997 34.9792 29.27 34.3548C29.0696 34.0636 28.868 33.7724 28.6689 33.4799C28.6033 33.3845 28.5403 33.2891 28.4685 33.1785L28.4294 33.1187C32.5201 33.5778 36.1835 37.024 36.9837 41.19C37.3114 42.894 37.5874 44.6387 37.8545 46.3249C37.9994 47.238 38.1481 48.1816 38.3032 49.1073C38.4468 49.9581 38.6157 50.8342 38.8198 51.7854C38.9345 52.3183 39.3907 52.3831 39.7234 52.3857C40.172 52.3882 40.2502 52.0334 40.3069 51.7727C40.3888 51.3989 40.4266 51.0924 40.4279 50.8088C40.4329 48.1943 40.4316 45.5365 40.4304 42.9665V40.2807H46.7188V42.2836C46.7188 45.2313 46.7188 48.179 46.7188 51.1255C46.7188 51.1662 46.7188 51.2081 46.7163 51.2501C46.7138 51.3798 46.71 51.5133 46.7352 51.6418C46.8222 52.0817 47.112 52.3424 47.5506 52.373C47.974 52.4022 48.3584 52.0817 48.4302 51.6443C48.4516 51.5108 48.4504 51.3734 48.4478 51.2412C48.4478 51.2043 48.4478 51.1662 48.4478 51.1293C48.4478 50.1094 48.4478 49.0895 48.4478 48.0709C48.4478 45.3445 48.4453 42.5252 48.4579 39.7517C48.4604 39.1795 48.3621 38.6301 47.6476 38.4724C47.6476 38.3338 47.6501 38.199 47.6514 38.0655C47.6564 37.7209 47.6602 37.3953 47.6413 37.0672C47.6211 36.7188 47.722 36.4835 47.9916 36.2546H47.9879ZM45.9123 37.9396C45.911 38.1138 45.9085 38.2893 45.9085 38.4673H41.2281C41.2281 38.274 41.2319 38.0807 41.2344 37.8887C41.242 37.3813 41.2495 36.8574 41.2105 36.3475C41.184 36.0029 41.0328 35.6214 40.8248 35.3759C39.9628 34.3561 39.5797 33.3654 39.6175 32.2565C39.6327 31.8191 39.6377 31.3727 39.6415 30.9416C39.6503 30.1151 39.6591 29.2605 39.7411 28.4288C39.8557 27.2551 40.4984 26.5862 41.552 26.5353C40.9874 27.8973 41.0441 29.3279 41.0996 30.7127C41.1109 30.9925 41.1222 31.271 41.1285 31.5495C41.155 32.7258 42.2085 33.7635 43.3818 33.7698C43.3856 33.7698 43.3894 33.7698 43.3931 33.7698C43.9955 33.7698 44.3811 33.4786 44.4278 32.9903C44.4782 32.4626 44.1266 32.095 43.5116 32.0276C43.2066 31.9946 42.8437 31.8598 42.8437 31.402V31.2723C42.8437 30.2066 42.8437 29.1041 42.9407 28.0295C43.0226 27.1254 43.3654 26.7731 44.3547 26.5798C45.3691 26.3815 46.3042 26.5074 47.1322 26.9524C47.9299 27.381 48.3294 28.0499 48.3206 28.94C48.318 29.1448 48.3143 29.3495 48.3105 29.5543C48.2979 30.1672 48.2853 30.8005 48.3294 31.4211C48.4365 32.928 47.8618 34.1526 46.5714 35.1674C46.0736 35.559 45.872 36.0016 45.8997 36.645C45.9186 37.0723 45.9136 37.4945 45.9098 37.9409L45.9123 37.9396ZM8.82687 17.2102C9.01717 17.0233 9.336 16.8059 9.79598 16.8008V19.8553C8.93777 19.7752 8.34295 19.1444 8.34169 18.3026C8.34169 17.9236 8.52695 17.5053 8.82687 17.2102ZM23.5045 39.0663C23.4163 39.3079 23.4743 39.6067 23.7011 40.0645C23.967 40.6037 24.2329 41.1416 24.5051 41.6885L24.8517 42.3891L21.1769 45.5683C21.1782 45.3076 21.1832 45.0558 21.187 44.8091C21.1983 44.1936 21.2097 43.6125 21.1643 43.0339C21.027 41.2548 21.3496 39.5559 22.1485 37.8417C22.669 36.7264 23.1113 35.554 23.5411 34.4196C23.6759 34.061 23.812 33.7024 23.9494 33.3451C24.054 33.0755 24.1498 32.9471 24.4131 32.9471C24.4358 32.9471 24.4598 32.9471 24.4862 32.9496C24.6929 32.9649 24.9122 32.9496 25.1239 32.9343C25.5045 32.9064 25.8636 32.8809 26.1358 33.0246C26.437 33.1836 26.65 33.5524 26.8542 33.9072C26.9399 34.0572 27.0293 34.2124 27.1251 34.351C27.4855 34.8736 27.8409 35.4001 28.2051 35.9367L28.6273 36.5586L27.4049 37.0863C26.3627 37.5365 25.3406 37.979 24.3186 38.419C23.836 38.6263 23.5927 38.8196 23.5033 39.065L23.5045 39.0663ZM16.0945 41.752C16.3453 41.2485 16.5948 40.7449 16.8418 40.2413C17.109 39.697 17.2337 39.3499 17.1342 39.0714C17.0334 38.7916 16.712 38.6047 16.155 38.358C15.1871 37.9294 14.2357 37.5187 13.2288 37.0838C12.8217 36.9083 12.4122 36.7315 11.9988 36.5522C12.1828 36.2826 12.3681 36.0168 12.5521 35.7536C13.0271 35.0745 13.4745 34.4336 13.8828 33.7469C14.2546 33.12 14.6755 32.8936 15.3837 32.9382L15.5488 32.9483C16.2092 32.989 16.6708 33.3417 16.9338 34.0063L17.5841 35.6468C18.1537 37.0838 18.7233 38.5207 19.2929 39.9692C19.3635 40.1497 19.4378 40.3354 19.4391 40.5122C19.4479 41.8016 19.4479 43.0847 19.4467 44.4429V45.5607L15.7757 42.3917L16.0945 41.7495V41.752ZM16.2281 30.789C16.2281 30.906 16.2293 31.0243 16.2281 31.14C16.2281 31.1451 16.2218 31.1566 16.2155 31.1655C15.816 31.1807 15.4178 31.1922 15.0183 31.2036C14.0958 31.2303 13.1431 31.2583 12.208 31.332C11.0033 31.4274 9.78463 31.7975 8.3795 32.4956V21.3063L9.88671 21.6903C9.97745 21.9599 10.0657 22.2397 10.1501 22.5093C10.3467 23.1362 10.5496 23.7847 10.8205 24.3951C11.8552 26.7159 13.5653 28.4441 15.9029 29.5326C16.1815 29.6624 16.2684 29.7997 16.2445 30.0756C16.2243 30.3134 16.2256 30.5551 16.2281 30.789ZM26.6613 17.1314C26.6538 18.2034 25.783 19.072 24.7181 19.072C24.7143 19.072 24.7093 19.072 24.7055 19.072C23.6406 19.0656 22.7774 18.1805 22.7824 17.0983C22.7849 16.5795 22.9904 16.0912 23.3609 15.7224C23.7276 15.3587 24.2077 15.1578 24.7143 15.1578C24.7219 15.1578 24.7294 15.1578 24.7358 15.1578C25.8057 15.1692 26.6689 16.0543 26.6601 17.1301L26.6613 17.1314ZM14.5306 15.73C14.8973 15.3612 15.38 15.1578 15.8903 15.1578H15.9004C16.9703 15.1629 17.8399 16.0429 17.8386 17.1174C17.8374 18.1945 16.9666 19.0707 15.8966 19.0707C14.8305 19.0707 13.9622 18.1907 13.9597 17.1098C13.9597 16.5909 14.1613 16.1001 14.5306 15.7288V15.73ZM19.7428 11.1203C20.2141 11.1228 20.693 11.1203 21.1555 11.1152C21.8411 11.1101 22.5505 11.105 23.2474 11.119C25.4805 11.1648 27.5611 12.6831 28.3072 14.8132C28.3248 14.8628 28.3387 14.9149 28.3538 14.9708C28.3563 14.9797 28.3588 14.9899 28.3614 15.0001C27.9858 15.0878 27.7426 15.0026 27.478 14.6974C26.7307 13.8365 25.6771 13.3673 24.5883 13.4092C23.4907 13.4525 22.4674 14.0082 21.7818 14.9365C21.613 15.1641 21.4983 15.1896 21.1933 15.1603C21.003 15.1412 20.8115 15.1349 20.6199 15.1349C20.4158 15.1349 20.2103 15.1425 20.01 15.1489C19.7794 15.1565 19.5424 15.1654 19.3093 15.1629C19.1694 15.1616 18.9867 15.1095 18.9224 15.0268C18.1575 14.0324 17.1405 13.4588 16.0592 13.4092C14.959 13.3596 13.8702 13.8531 12.9969 14.8004C12.8495 14.9594 12.5659 15.0039 12.237 15.0548C12.0984 15.0764 11.956 15.098 11.8136 15.1311C12.2761 12.8217 13.1834 10.9142 14.6629 9.139C15.908 10.4781 17.5236 11.1075 19.7428 11.1177V11.1203ZM16.2482 20.809C18.0592 20.6285 19.4429 19.1635 19.5374 17.3272C19.5588 16.9076 19.7189 16.8211 20.0705 16.7855C20.7787 16.7143 20.9526 16.8389 21.0975 17.5256C21.4895 19.3784 23.0735 20.6068 24.9424 20.514C26.7269 20.425 28.2064 18.9626 28.3841 17.1111C28.3916 17.0348 28.3954 16.9572 28.4017 16.8682L28.4067 16.7842H29.0192C29.0192 16.7842 29.0293 16.7944 29.0343 16.7995C29.0406 16.8046 29.0469 16.8122 29.052 16.8173C29.0356 17.3234 29.0343 17.8397 29.0331 18.3407C29.0318 19.4636 29.0293 20.6234 28.8453 21.731C28.1421 25.9377 24.2783 28.968 19.8537 28.7798C15.627 28.5992 12.0265 25.1708 11.6586 20.9756C11.5754 20.0308 11.5968 19.0961 11.6195 18.1068C11.6296 17.6858 11.6384 17.2497 11.6397 16.816H12.1967C12.2131 16.9432 12.2269 17.0691 12.2408 17.195C12.2735 17.5015 12.3076 17.8181 12.3882 18.1182C12.8444 19.826 14.5041 20.9833 16.2482 20.809ZM32.2794 13.8874C32.2743 14.3554 32.268 14.8386 32.2668 15.3078C32.1143 15.2849 31.9618 15.2621 31.8118 15.2404C31.3254 15.1692 30.8654 15.1018 30.4054 15.009C30.3046 14.9886 30.1836 14.8322 30.1131 14.6949C29.9795 14.4342 29.856 14.1595 29.7363 13.8937C29.5094 13.3864 29.2738 12.8624 28.9511 12.4084C27.5775 10.4704 25.6507 9.44929 23.2248 9.37553C22.3842 9.3501 21.5298 9.35518 20.7018 9.36027C20.2305 9.36281 19.7441 9.36663 19.2652 9.36409C17.7189 9.35518 16.46 8.7219 15.5198 7.48203C15.2451 7.1196 14.9943 6.94411 14.7297 6.93013C14.4688 6.91487 14.2067 7.05856 13.9055 7.37775C11.9661 9.4353 10.6932 11.8985 10.1249 14.6974C10.1085 14.7775 10.0883 14.8577 10.0732 14.9187L10.0669 14.9416L8.26104 15.3778C8.28498 14.714 8.29129 14.0387 8.29759 13.3838C8.31271 11.8604 8.32783 10.2835 8.56979 8.77531C9.00834 6.04251 11.4859 3.95952 14.46 3.82218C14.7436 3.80947 15.0447 3.71791 15.2867 3.57294C16.8166 2.65607 18.4914 2.19319 20.2746 2.19319C20.451 2.19319 20.6287 2.19827 20.8064 2.20717C21.3118 2.23261 21.8297 2.23769 22.3288 2.24278C23.3243 2.25295 24.3552 2.26313 25.3369 2.43734C29.0973 3.10624 32.0714 6.57024 32.2542 10.4959C32.3071 11.6302 32.2932 12.7772 32.2794 13.8874ZM17.9306 30.2613C19.5891 30.6097 21.1038 30.6085 22.6816 30.2549C22.674 30.4355 22.6766 30.6148 22.6778 30.789C22.6829 31.2151 22.6866 31.6182 22.5632 31.9717C22.0628 33.4049 21.5033 34.8444 20.9627 36.2368C20.7598 36.757 20.5582 37.2771 20.359 37.7984H20.2696C20.0692 37.2783 19.8663 36.7595 19.6634 36.2419C19.1228 34.8634 18.5645 33.4379 18.0667 32.0175C17.9407 31.6589 17.9407 31.2494 17.9407 30.8157C17.9407 30.6352 17.9407 30.4495 17.9319 30.2613H17.9306ZM24.3854 31.229C24.3854 31.1057 24.3829 30.9862 24.3804 30.8679C24.3741 30.5169 24.369 30.185 24.4031 29.8582C24.4131 29.7615 24.5908 29.6178 24.7572 29.5352C27.5397 28.1554 29.4174 25.9542 30.3374 22.9912C30.4344 22.6797 30.5075 22.3643 30.5781 22.0604C30.6058 21.9396 30.6335 21.82 30.6625 21.7043L32.2642 21.2999V32.5198C30.2555 31.4287 28.1005 31.2011 25.875 31.2011C25.3822 31.2011 24.8857 31.2125 24.3867 31.2278L24.3854 31.229ZM30.8011 19.8528V16.8109C31.6341 16.8554 32.2642 17.4862 32.2768 18.3026C32.2907 19.1495 31.6732 19.7917 30.8011 19.8515V19.8528Z" fill="#48A225"/>
</svg>
