<svg width="60" height="70" viewBox="0 0 60 70" fill="none" xmlns="http://www.w3.org/2000/svg">
<g clip-path="url(#clip0_363_1498)">
<path d="M59.788 67.8097C59.7022 65.6162 59.6354 63.421 59.4622 61.2344C59.2203 58.1612 58.8002 55.1137 57.9307 52.1382C57.2858 49.9293 56.0013 48.2761 53.9536 47.2454C52.5336 46.5302 51.1291 45.7328 49.6302 45.2354C45.9927 44.0315 42.3072 42.9734 38.6372 41.8741C37.754 41.61 37.351 40.7559 37.8757 39.9516C40.2476 42.0216 42.3981 40.996 44.5144 39.4405C46.7799 37.7736 48.5566 35.6967 49.9818 33.27C51.7893 30.1934 52.0449 27.0687 50.7518 23.7365C49.8085 21.3064 49.0402 18.8094 48.1828 16.3466C47.1538 13.3866 46.1522 10.3957 44.4098 7.76834C42.2952 4.58019 39.601 2.12606 35.5537 1.69903C35.3513 1.67845 35.1524 1.58584 34.9637 1.5001C32.3947 0.321907 29.7279 0.169274 26.9959 0.740361C23.3327 1.50524 20.419 3.54435 18.0643 6.33633C12.537 12.8875 9.49459 20.5466 8.42273 28.9946C8.07459 31.742 8.50676 34.3813 10.7465 36.3896C12.3775 37.8525 13.9878 39.3376 15.6171 40.8039C16.6838 41.7643 17.9048 42.2308 19.3643 41.9427C19.8428 41.8484 20.335 41.8295 20.822 41.7763C20.5133 42.0078 20.1772 42.1193 19.8376 42.2222C15.5605 43.5033 11.3313 44.8976 7.33543 46.9418C4.68922 48.2967 2.97082 50.286 2.22137 53.2049C1.34845 56.6091 0.837387 60.0597 0.523547 63.5479C0.388064 65.0571 0.28688 66.5697 0.214851 68.0823C0.177121 68.8798 0.688184 69.4389 1.38789 69.4835C2.10133 69.5281 2.65183 68.9707 2.71186 68.1389C2.72215 68.0086 2.71872 67.8783 2.72729 67.7479C3.01712 63.3404 3.44758 58.9587 4.40797 54.6318C5.00307 51.953 6.35104 49.9825 8.92179 48.9604C12.0207 47.7273 15.1386 46.5422 18.2513 45.3418C18.4296 45.2732 18.6234 45.2509 18.9218 45.1788C18.7246 45.5167 18.5994 45.7431 18.4639 45.9626C16.8621 48.5642 15.2638 51.1675 13.6534 53.764C13.3344 54.2785 13.096 54.7913 13.4322 55.3709C13.782 55.9746 14.3634 56.0518 14.9997 56.0106C16.0166 55.9437 17.0388 55.9386 18.0523 55.8408C18.6457 55.7842 18.9904 55.966 19.3283 56.4685C22.0705 60.5416 24.8453 64.5941 27.6116 68.65C28.3662 69.7562 28.9407 69.8556 29.9851 69.0719C31.1033 69.8573 31.6332 69.7613 32.417 68.6106C35.1695 64.5752 37.9272 60.5433 40.6591 56.496C40.985 56.0123 41.3023 55.7705 41.9197 55.8374C42.9315 55.9455 43.9536 55.9437 44.9706 56.0106C45.6034 56.0518 46.1917 55.9935 46.5535 55.3967C46.9205 54.7913 46.653 54.2579 46.322 53.7211C44.6825 51.0818 43.0584 48.4339 41.4292 45.7859C41.3143 45.6007 41.2199 45.4035 41.0433 45.0725C44.8403 46.1392 48.4194 47.3003 51.8579 48.9072C54.1406 49.9739 55.3839 51.6752 55.8984 54.1053C56.8554 58.6277 57.1658 63.2032 57.2858 67.8028C57.315 68.9141 57.7695 69.5178 58.5824 69.4921C59.3713 69.4663 59.8343 68.8695 59.7931 67.8097H59.788ZM18.7658 39.4783C18.2015 39.4594 17.5601 39.1335 17.1142 38.7562C15.5656 37.4409 14.1044 36.0226 12.5764 34.6815C11.4154 33.6611 10.9094 32.3731 10.8717 30.8708C10.7911 27.6878 11.592 24.6609 12.585 21.6802C14.2228 16.7634 16.4214 12.1347 19.841 8.17821C21.839 5.86643 24.1611 3.98853 27.2223 3.28024C29.318 2.7949 31.3983 2.76918 33.4528 3.61295C34.2589 3.94394 35.1644 4.02111 36.0047 4.27836C36.7473 4.50645 37.5224 4.72254 38.1776 5.12041C40.1772 6.33118 41.8631 7.89353 42.8526 10.0544C43.7753 12.0678 44.6739 14.0983 45.4456 16.1734C46.5535 19.1558 47.5191 22.1896 48.5789 25.1908C49.3163 27.2745 49.2169 29.2587 48.2033 31.2481C46.7936 34.0161 44.8505 36.2798 42.2352 37.9554C40.8684 38.8317 40.5168 38.782 39.2151 37.8747C38.7658 37.5626 38.2084 37.4048 37.6459 37.1527C37.898 36.7754 38.1999 36.3296 38.4983 35.8785C39.7571 33.968 40.6883 31.9101 41.34 29.7166C41.4669 29.2896 41.7259 28.8728 42.014 28.5264C43.6295 26.5833 44.5967 24.4242 44.2898 21.838C44.1714 20.8365 43.6415 20.1196 42.7205 19.6497C41.3143 18.9311 39.7982 18.7425 38.2633 18.5607C33.9467 18.0462 30.3024 16.1683 27.3115 13.0247C26.8381 12.5274 26.3648 12.0987 25.6239 12.2787C24.8779 12.4605 24.679 13.0693 24.4938 13.7296C23.4648 17.3911 21.1513 19.8606 17.5413 21.0886C16.3271 21.5019 15.9909 21.8997 16.0475 23.2048C16.1367 25.2988 16.9993 27.0755 18.3713 28.6379C18.6474 28.9517 18.8944 29.3599 18.9784 29.7612C19.5083 32.3045 20.4636 34.6797 22.0482 36.724C22.7685 37.6535 22.8268 38.4493 22.4444 39.2536C21.1616 39.3462 19.9594 39.5211 18.764 39.48L18.7658 39.4783ZM32.6845 38.5436C30.7466 40.0939 29.4569 40.1265 27.4521 38.6585C24.0942 36.1975 22.0414 32.9065 21.3588 28.7922C21.237 28.0548 20.9592 27.494 20.371 27.0104C19.4089 26.2198 18.8464 25.1616 18.6989 23.9166C18.6749 23.7159 18.7983 23.354 18.9441 23.2957C22.5095 21.8809 24.9791 19.3667 26.5089 15.7618C29.0419 18.0582 31.827 19.6771 35.0237 20.478C36.6118 20.8759 38.2736 20.9805 39.8703 21.3492C42.1426 21.874 42.2129 21.8363 41.5801 24.2373C41.2765 25.3897 40.6386 26.369 39.7554 27.2025C39.4398 27.5009 39.2151 27.9656 39.1019 28.3961C38.0267 32.4571 35.9841 35.9008 32.6828 38.5419L32.6845 38.5436ZM25.3273 60.84C24.2708 59.2931 23.2144 57.7479 22.1597 56.201C21.6589 55.4687 21.1513 54.7415 20.6659 54.0007C20.2972 53.4382 19.7999 53.2169 19.1362 53.2701C18.4365 53.3267 17.7333 53.3438 16.8381 53.3884C18.3524 50.9309 19.7879 48.6002 21.3194 46.1152C22.7376 51.1332 24.101 55.9557 25.4662 60.7783L25.329 60.84H25.3273ZM30.1 67.2146C30.0349 67.2214 29.968 67.2266 29.9028 67.2334C28.8087 63.3679 27.7145 59.5023 26.6066 55.5836H33.3842C32.2815 59.4886 31.1908 63.3524 30.1 67.2146ZM33.5849 53.0214C31.1839 53.054 28.7812 53.054 26.3802 53.0214C26.1693 53.018 25.8332 52.747 25.7714 52.5361C24.9602 49.787 24.1868 47.0259 23.4133 44.2648C23.3602 44.0778 23.319 43.8394 23.3876 43.6748C23.9021 42.4572 24.4475 41.2515 24.9928 40.0185C28.7949 42.9957 31.5286 42.7847 34.7339 40.2003C34.9963 40.9171 35.209 41.634 35.5176 42.3062C35.7629 42.8379 36.1419 43.3078 36.4266 43.824C36.5243 44.0024 36.5878 44.2613 36.5363 44.4483C35.7835 47.1596 35.0186 49.8693 34.2194 52.567C34.1594 52.7693 33.8061 53.018 33.5849 53.0214ZM43.1013 53.289C42.3553 53.289 41.6916 53.3438 41.0399 53.2752C40.2132 53.1895 39.6645 53.4776 39.2066 54.1705C37.8843 56.1735 36.514 58.1441 35.1609 60.1266C35.0014 60.3598 34.8299 60.5862 34.6653 60.816C34.6224 60.7954 34.5778 60.7765 34.535 60.756C35.9018 55.9283 37.2669 51.1006 38.6766 46.1204C40.191 48.5745 41.6247 50.8949 43.1013 53.2872V53.289Z" fill="#4EABBA"/>
</g>
<defs>
<clipPath id="clip0_363_1498">
<rect width="59.58" height="69.1581" fill="white" transform="translate(0.209961 0.420898)"/>
</clipPath>
</defs>
</svg>
