<svg width="58" height="68" viewBox="0 0 58 68" fill="none" xmlns="http://www.w3.org/2000/svg">
<g clip-path="url(#clip0_363_1495)">
<path d="M44.6749 49.1344C45.6973 49.4585 46.6229 49.7923 47.5711 50.0439C53.0315 51.4872 55.9552 55.1559 56.7921 60.605C57.1275 62.7852 57.3243 64.9881 57.5355 67.1845C57.6146 67.9972 57.1243 68.5326 56.4196 68.5826C55.6955 68.6342 55.2117 68.1988 55.0908 67.3796C55.0618 67.1828 55.0634 66.9829 55.0424 66.7861C54.8441 65.0364 54.6683 63.2835 54.4328 61.5387C54.3377 60.8291 54.1329 60.1325 53.9442 59.439C52.9976 55.9848 50.8109 53.7013 47.405 52.6031C45.4473 51.9726 43.4831 51.3598 41.5077 50.7873C41.2899 50.7244 40.9013 50.8986 40.7288 51.0872C37.4487 54.6495 34.1879 58.2312 30.924 61.8096C30.7402 62.0112 30.5595 62.2176 30.3725 62.4159C29.5597 63.2771 28.9147 63.2867 28.118 62.4159C24.7154 58.6956 21.3111 54.9769 17.9295 51.2372C17.5311 50.797 17.2038 50.6534 16.6103 50.855C14.8284 51.463 13.0222 52.0016 11.2226 52.5596C7.49094 53.7126 5.21231 56.2396 4.39632 60.0147C3.96252 62.0208 3.76578 64.0785 3.47551 66.1137C3.41262 66.5555 3.42713 67.0071 3.36424 67.4489C3.25619 68.2165 2.7595 68.6326 2.06124 68.5842C1.3791 68.5375 0.890471 68.0295 0.948526 67.2635C1.08076 65.4815 1.21138 63.6964 1.46779 61.9305C1.66292 60.5856 1.98867 59.252 2.3628 57.9441C3.48841 54.0093 6.16214 51.5984 9.99051 50.3664C11.2322 49.9665 12.474 49.5617 13.8253 49.1214C11.9805 48.1458 10.3034 47.0879 9.11163 45.5011C8.2134 44.3045 7.46676 42.9741 6.79913 41.6308C6.32824 40.6842 6.67657 40.0924 7.6764 39.7279C8.98423 39.2506 9.87602 38.3153 10.5727 37.1638C11.8257 35.0916 12.3869 32.7807 12.8626 30.4392C13.685 26.3867 13.5076 22.2825 13.5109 18.1881C13.5109 17.3511 13.7302 16.3352 13.3399 15.7272C12.9674 15.1483 11.9353 14.9886 11.1887 14.658C10.0389 14.1485 8.88425 13.6502 7.63931 13.1051C7.63931 14.6709 7.63931 16.1288 7.63931 17.5882C7.63931 19.1524 7.64414 20.7183 7.63769 22.2825C7.63447 23.2227 7.1281 23.821 6.37662 23.8C5.6461 23.779 5.17844 23.2227 5.17522 22.2954C5.16554 18.6944 5.17522 15.0918 5.16554 11.4909C5.16393 10.7249 5.49613 10.2669 6.20568 9.95563C13.6044 6.71426 21.0031 3.45837 28.397 0.191187C28.9937 -0.0716704 29.5194 -0.0587694 30.1064 0.200863C37.4551 3.44708 44.8087 6.68361 52.1639 9.9137C52.7654 10.1782 53.2798 10.4717 53.275 11.2312C53.2685 11.9956 52.7315 12.2697 52.1365 12.5294C49.9094 13.5002 47.6921 14.4952 45.4634 15.4611C45.1022 15.6176 44.9216 15.7933 44.9329 16.2223C45.0328 19.9942 45.0103 23.771 45.2296 27.5349C45.3925 30.3376 46.0311 33.0839 47.1502 35.6851C47.713 36.9961 48.421 38.2249 49.6095 39.0812C49.9868 39.3522 50.4222 39.5537 50.8528 39.7376C51.7639 40.1246 52.0462 40.6729 51.6994 41.6308C50.6883 44.4239 48.8112 46.5171 46.3568 48.1265C45.8408 48.4651 45.3005 48.7635 44.6797 49.1344H44.6749ZM12.603 9.83468L12.6336 9.97659C12.9061 9.97659 13.1787 9.97659 13.4496 9.97659C18.5165 9.97659 23.5833 9.97659 28.6486 9.97659C28.9211 9.97659 29.2049 9.95079 29.4646 10.0153C30.0854 10.1717 30.4596 10.5765 30.4418 11.2425C30.4257 11.8666 30.0822 12.2649 29.4759 12.3955C29.1888 12.4568 28.884 12.452 28.5873 12.452C23.5462 12.4552 18.5036 12.4536 13.4625 12.4552C13.2093 12.4552 12.9561 12.4762 12.4901 12.4971C12.7997 12.6648 12.8981 12.7277 13.0045 12.7745C18.2697 15.0902 23.5333 17.4108 28.8098 19.6991C29.0953 19.8233 29.5388 19.7668 29.8403 19.6362C34.0928 17.7898 38.334 15.9159 42.5784 14.0485C44.6781 13.1244 46.7761 12.1972 48.9564 11.2361C48.7112 11.1087 48.5629 11.0216 48.4081 10.9538C42.1688 8.20432 35.9312 5.45157 29.6823 2.72462C29.4146 2.60851 29.0034 2.63915 28.726 2.75849C26.1055 3.88249 23.5011 5.04196 20.8902 6.19015C18.1278 7.40607 15.3654 8.61876 12.603 9.83468ZM17.4941 28.0993C16.6426 33.508 17.9133 38.0975 22.0755 41.6244C26.091 45.0254 31.7964 45.1286 35.9925 41.9533C39.1113 39.5925 40.7513 36.364 41.1722 32.505C41.3303 31.052 41.2738 29.6038 40.9061 28.1267C33.1027 31.7067 25.3556 31.689 17.4957 28.0993H17.4941ZM15.9814 16.7754C15.9814 17.1205 15.9814 17.3608 15.9814 17.5995C15.9814 19.6104 16.004 21.623 15.9669 23.6323C15.9572 24.1806 16.1475 24.4725 16.5974 24.7482C19.7582 26.6866 23.1737 27.8703 26.865 28.2138C32.3334 28.7234 37.4164 27.559 42.0559 24.5918C42.2849 24.4451 42.4736 24.05 42.4785 23.7661C42.5139 21.681 42.4978 19.5943 42.4962 17.5092C42.4962 17.2995 42.4768 17.0883 42.4639 16.8141C42.1414 16.9431 41.8898 17.0351 41.6463 17.1431C37.8809 18.7993 34.1057 20.4393 30.3564 22.1309C29.5597 22.4906 28.8937 22.4793 28.1019 22.118C25.1927 20.7909 22.2561 19.5266 19.3276 18.2413C18.2455 17.7656 17.1602 17.2931 15.9814 16.777V16.7754ZM35.9796 44.9222C31.5045 47.2702 26.9892 47.2831 22.5932 44.9689C21.5982 46.4671 20.6193 47.9426 19.6114 49.4585C22.7609 52.9095 25.9716 56.4266 29.2388 60.0051C32.5108 56.4202 35.7345 52.8885 38.9484 49.3666C38.3759 48.6393 37.7954 47.9894 37.3181 47.2734C36.8262 46.5348 36.4327 45.7285 35.9796 44.9222ZM14.7929 33.0404C12.7578 38.7539 12.3466 39.4151 9.46802 41.6695C9.49382 41.7372 9.51318 41.8098 9.54704 41.8743C11.1903 44.9964 13.9092 46.7348 17.1651 47.7636C17.336 47.8168 17.6392 47.6765 17.7892 47.533C18.8229 46.5396 19.5969 45.3705 20.1355 44.0368C20.3194 43.5805 20.2436 43.3047 19.8646 42.9596C17.644 40.9374 16.1507 38.4555 15.3654 35.556C15.1558 34.7788 15.0042 33.9854 14.7913 33.042L14.7929 33.0404ZM49.0209 41.6534C45.8456 39.6473 44.7426 36.3736 43.6637 33.0694C43.0671 37.0687 41.3996 40.4617 38.4114 43.1789C38.2743 43.3031 38.2534 43.6772 38.3211 43.8885C38.7839 45.3108 39.616 46.5106 40.6949 47.5266C40.8723 47.6927 41.3045 47.7797 41.5189 47.683C42.8671 47.0702 44.2539 46.4993 45.5021 45.7156C47.0535 44.7416 48.2323 43.3612 49.0209 41.6534Z" fill="#4EABBA"/>
</g>
<defs>
<clipPath id="clip0_363_1495">
<rect width="56.1193" height="68" fill="white" transform="translate(0.94043)"/>
</clipPath>
</defs>
</svg>
