<svg width="44" height="53" viewBox="0 0 44 53" fill="none" xmlns="http://www.w3.org/2000/svg">
<g clip-path="url(#clip0_1091_1024)">
<path d="M33.6365 37.9471C34.4122 38.1946 35.1144 38.4494 35.8338 38.6415C39.9765 39.7436 42.1947 42.545 42.8297 46.7057C43.0842 48.3705 43.2334 50.0526 43.3937 51.7297C43.4537 52.3503 43.0817 52.7591 42.5471 52.7973C41.9977 52.8367 41.6307 52.5042 41.5389 51.8787C41.5169 51.7285 41.5181 51.5758 41.5022 51.4255C41.3517 50.0895 41.2184 48.751 41.0397 47.4187C40.9676 46.8769 40.8122 46.3449 40.669 45.8155C39.9508 43.1779 38.2918 41.4343 35.7078 40.5957C34.2225 40.1143 32.7323 39.6463 31.2336 39.2092C31.0684 39.1612 30.7735 39.2942 30.6426 39.4382C28.1541 42.1583 25.6802 44.8932 23.2039 47.6256C23.0644 47.7795 22.9274 47.9371 22.7854 48.0886C22.1688 48.7461 21.6794 48.7535 21.075 48.0886C18.4935 45.2478 15.9107 42.4083 13.3451 39.5527C13.0429 39.2166 12.7945 39.107 12.3443 39.2609C10.9923 39.7251 9.62204 40.1364 8.25664 40.5625C5.42551 41.4429 3.69674 43.3724 3.07766 46.2551C2.74854 47.7869 2.59928 49.3581 2.37905 50.9121C2.33134 51.2495 2.34235 51.5942 2.29463 51.9316C2.21266 52.5178 1.83583 52.8355 1.30606 52.7985C0.788531 52.7628 0.417817 52.3749 0.461862 51.79C0.562187 50.4294 0.661289 49.0663 0.855822 47.7179C1.00386 46.691 1.25101 45.6726 1.53485 44.674C2.38884 41.6695 4.41737 39.8286 7.3219 38.8878C8.26398 38.5824 9.20606 38.2734 10.2313 37.9372C8.83168 37.1922 7.55926 36.3845 6.65511 35.1728C5.97363 34.2591 5.40716 33.2432 4.90064 32.2175C4.54339 31.4947 4.80766 31.0428 5.56621 30.7645C6.55845 30.4 7.23504 29.6858 7.76358 28.8066C8.71422 27.2243 9.13999 25.4598 9.50092 23.6719C10.1249 20.5774 9.99031 17.4436 9.99276 14.3172C9.99276 13.6781 10.1592 12.9024 9.86307 12.4381C9.58045 11.9961 8.79742 11.8742 8.23095 11.6217C7.35861 11.2326 6.4826 10.8521 5.53807 10.4359C5.53807 11.6316 5.53807 12.7447 5.53807 13.8591C5.53807 15.0536 5.54174 16.2492 5.53685 17.4436C5.5344 18.1615 5.15023 18.6183 4.58009 18.6023C4.02585 18.5863 3.67105 18.1615 3.6686 17.4535C3.66126 14.7038 3.6686 11.953 3.66126 9.20335C3.66003 8.61845 3.91207 8.26874 4.4504 8.03109C10.0637 5.55605 15.677 3.06993 21.2867 0.575186C21.7394 0.374473 22.1382 0.384324 22.5836 0.582574C28.159 3.06131 33.738 5.53265 39.3183 7.99907C39.7747 8.20102 40.165 8.42512 40.1613 9.0051C40.1564 9.58876 39.749 9.79809 39.2975 9.99634C37.6079 10.7376 35.9256 11.4974 34.2348 12.235C33.9607 12.3544 33.8237 12.4886 33.8322 12.8162C33.9081 15.6963 33.891 18.5802 34.0574 21.4542C34.1809 23.5943 34.6654 25.6913 35.5145 27.6775C35.9415 28.6786 36.4786 29.6169 37.3803 30.2707C37.6666 30.4776 37.9969 30.6315 38.3236 30.7719C39.0149 31.0674 39.229 31.4861 38.9659 32.2175C38.1988 34.3502 36.7747 35.9485 34.9126 37.1774C34.521 37.436 34.1112 37.6638 33.6401 37.9471H33.6365ZM9.30394 7.93874L9.32719 8.0471C9.53395 8.0471 9.74072 8.0471 9.94627 8.0471C13.7904 8.0471 17.6346 8.0471 21.4775 8.0471C21.6843 8.0471 21.8996 8.02739 22.0966 8.07665C22.5677 8.19609 22.8515 8.50516 22.8381 9.01372C22.8258 9.49025 22.5652 9.7944 22.1052 9.89414C21.8874 9.94093 21.6562 9.93724 21.4311 9.93724C17.6065 9.9397 13.7806 9.93847 9.95605 9.9397C9.76397 9.9397 9.57188 9.95571 9.2183 9.97172C9.4532 10.0998 9.52784 10.1478 9.60859 10.1835C13.6032 11.9517 17.5967 13.7237 21.5999 15.471C21.8165 15.5658 22.1529 15.5227 22.3817 15.423C25.608 14.013 28.8258 12.5822 32.046 11.1563C33.6389 10.4507 35.2307 9.74268 36.8848 9.00879C36.6988 8.91151 36.5863 8.84502 36.4688 8.7933C31.7352 6.69383 27.0028 4.59189 22.2618 2.50966C22.0587 2.421 21.7467 2.44439 21.5363 2.53552C19.5481 3.39378 17.5722 4.27913 15.5914 5.15586C13.4956 6.0843 11.3998 7.01029 9.30394 7.93874ZM13.0147 21.8852C12.3688 26.0151 13.3329 29.5196 16.4906 32.2126C19.5371 34.8095 23.8658 34.8883 27.0493 32.4638C29.4155 30.6611 30.6597 28.1959 30.9791 25.2492C31.099 24.1398 31.0562 23.034 30.7772 21.9061C24.8568 24.6397 18.9792 24.6262 13.016 21.8852H13.0147ZM11.8671 13.2385C11.8671 13.502 11.8671 13.6855 11.8671 13.8677C11.8671 15.4033 11.8843 16.94 11.8561 18.4743C11.8488 18.8929 11.9931 19.1158 12.3345 19.3264C14.7325 20.8065 17.3238 21.7103 20.1244 21.9726C24.2732 22.3617 28.1296 21.4726 31.6495 19.2069C31.8233 19.0949 31.9664 18.7932 31.9701 18.5765C31.997 16.9843 31.9848 15.3909 31.9836 13.7988C31.9836 13.6387 31.9689 13.4774 31.9591 13.2681C31.7144 13.3666 31.5235 13.4368 31.3388 13.5193C28.482 14.7839 25.6178 16.0362 22.7732 17.3279C22.1688 17.6025 21.6635 17.5939 21.0628 17.318C18.8556 16.3046 16.6277 15.3392 14.4058 14.3578C13.5849 13.9946 12.7615 13.6338 11.8671 13.2398V13.2385ZM27.0395 34.7307C23.6443 36.5236 20.2186 36.5334 16.8834 34.7664C16.1285 35.9104 15.3858 37.0371 14.6212 38.1946C17.0106 40.8297 19.4466 43.5153 21.9253 46.2477C24.4078 43.5103 26.8535 40.8137 29.2919 38.1244C28.8576 37.569 28.4171 37.0728 28.055 36.5261C27.6818 35.9621 27.3833 35.3464 27.0395 34.7307ZM10.9654 25.658C9.42139 30.0208 9.10941 30.5256 6.9255 32.2471C6.94507 32.2988 6.95975 32.3542 6.98545 32.4035C8.23217 34.7874 10.295 36.1148 12.7652 36.9004C12.8948 36.941 13.1249 36.8339 13.2386 36.7243C14.0229 35.9658 14.6102 35.073 15.0188 34.0547C15.1583 33.7062 15.1008 33.4957 14.8133 33.2322C13.1285 31.688 11.9956 29.793 11.3998 27.579C11.2407 26.9855 11.1257 26.3796 10.9642 25.6593L10.9654 25.658ZM36.9337 32.2348C34.5247 30.7029 33.6879 28.2033 32.8694 25.6802C32.4167 28.734 31.1516 31.3248 28.8845 33.3996C28.7805 33.4944 28.7646 33.7801 28.816 33.9414C29.1671 35.0275 29.7984 35.9436 30.6169 36.7194C30.7515 36.8462 31.0794 36.9127 31.2421 36.8388C32.265 36.3709 33.3171 35.935 34.2641 35.3366C35.4411 34.5928 36.3355 33.5388 36.9337 32.2348Z" fill="#48A225"/>
</g>
<defs>
<clipPath id="clip0_1091_1024">
<rect width="42.7142" height="51.757" fill="white" transform="translate(0.413025 0.429199)"/>
</clipPath>
</defs>
</svg>
