<svg width="46" height="53" viewBox="0 0 46 53" fill="none" xmlns="http://www.w3.org/2000/svg">
<g clip-path="url(#clip0_1091_1018)">
<path d="M45.3066 50.484C45.2423 48.8401 45.1922 47.1948 45.0623 45.556C44.8811 43.2527 44.5662 40.9687 43.9145 38.7386C43.4312 37.0831 42.4685 35.844 40.9338 35.0715C39.8696 34.5355 38.8169 33.9378 37.6935 33.5651C34.9673 32.6628 32.2051 31.8697 29.4545 31.0458C28.7925 30.8479 28.4905 30.2078 28.8838 29.605C30.6614 31.1564 32.2732 30.3877 33.8593 29.2219C35.5573 27.9726 36.8889 26.416 37.957 24.5973C39.3117 22.2914 39.5033 19.9495 38.5341 17.4521C37.8272 15.6308 37.2513 13.7593 36.6087 11.9136C35.8375 9.69506 35.0868 7.45343 33.7809 5.48429C32.1961 3.09484 30.1768 1.25552 27.1434 0.935474C26.9918 0.920049 26.8427 0.850641 26.7013 0.786374C24.7758 -0.0966539 22.7771 -0.211049 20.7296 0.216969C17.9841 0.79023 15.8003 2.3185 14.0355 4.41103C9.89288 9.32103 7.61269 15.0614 6.80935 21.3929C6.54843 23.452 6.87233 25.4302 8.55099 26.9353C9.77335 28.0317 10.9803 29.1448 12.2014 30.2438C13.0008 30.9636 13.916 31.3132 15.0098 31.0972C15.3684 31.0266 15.7373 31.0124 16.1024 30.9726C15.871 31.1461 15.6191 31.2296 15.3646 31.3068C12.1589 32.2669 8.98929 33.3119 5.99445 34.844C4.01117 35.8594 2.72326 37.3504 2.16157 39.5381C1.50733 42.0895 1.1243 44.6756 0.88908 47.2899C0.787538 48.421 0.711703 49.5547 0.657719 50.6884C0.629442 51.2861 1.01247 51.7051 1.53689 51.7385C2.07159 51.7719 2.48419 51.3542 2.52917 50.7308C2.53689 50.6331 2.53431 50.5354 2.54074 50.4377C2.75796 47.1344 3.08058 43.8504 3.80037 40.6075C4.24639 38.5998 5.25666 37.1229 7.18339 36.3569C9.506 35.4327 11.8427 34.5445 14.1756 33.6448C14.3093 33.5934 14.4546 33.5767 14.6782 33.5227C14.5304 33.7759 14.4366 33.9456 14.335 34.1101C13.1345 36.0599 11.9366 38.0111 10.7296 39.9571C10.4906 40.3427 10.3119 40.727 10.5638 41.1614C10.826 41.6139 11.2618 41.6717 11.7386 41.6409C12.5008 41.5908 13.2669 41.5869 14.0265 41.5136C14.4713 41.4712 14.7296 41.6075 14.9828 41.9841C17.0381 45.0367 19.1178 48.074 21.191 51.1138C21.7566 51.9429 22.1872 52.0174 22.9699 51.43C23.808 52.0187 24.2051 51.9467 24.7925 51.0843C26.8555 48.0599 28.9223 45.038 30.9699 42.0046C31.2141 41.6422 31.4519 41.4609 31.9146 41.5111C32.673 41.592 33.439 41.5908 34.2012 41.6409C34.6755 41.6717 35.1164 41.628 35.3876 41.1807C35.6627 40.727 35.4621 40.3273 35.2141 39.925C33.9853 37.9468 32.7681 35.9623 31.547 33.9777C31.4609 33.8389 31.3902 33.6911 31.2578 33.443C34.1035 34.2425 36.786 35.1126 39.3631 36.317C41.0739 37.1165 42.0058 38.3915 42.3914 40.2129C43.1086 43.6023 43.3413 47.0316 43.4312 50.4789C43.4531 51.3118 43.7937 51.7642 44.403 51.7449C44.9942 51.7257 45.3413 51.2784 45.3104 50.484H45.3066ZM14.5612 29.2502C14.1384 29.2361 13.6576 28.9919 13.3235 28.7091C12.1628 27.7232 11.0677 26.6603 9.92245 25.6551C9.05227 24.8903 8.6731 23.9251 8.64482 22.7991C8.58441 20.4135 9.18466 18.1449 9.92887 15.911C11.1564 12.2259 12.8042 8.75676 15.3671 5.79149C16.8646 4.05885 18.6049 2.6514 20.8992 2.12056C22.4699 1.75681 24.029 1.73753 25.5689 2.36991C26.173 2.61798 26.8517 2.67582 27.4815 2.86862C28.038 3.03957 28.619 3.20153 29.11 3.49973C30.6087 4.40718 31.8722 5.57812 32.6138 7.19765C33.3053 8.70663 33.9789 10.2285 34.5573 11.7837C35.3876 14.0189 36.1112 16.2927 36.9056 18.5421C37.4583 20.1037 37.3837 21.5909 36.6241 23.0819C35.5675 25.1564 34.1112 26.8531 32.1511 28.1088C31.1267 28.7656 30.8632 28.7284 29.8876 28.0484C29.5509 27.8145 29.1331 27.6962 28.7115 27.5073C28.9005 27.2245 29.1267 26.8903 29.3504 26.5523C30.2938 25.1204 30.9917 23.578 31.4802 21.9341C31.5753 21.614 31.7694 21.3017 31.9853 21.042C33.1961 19.5857 33.921 17.9675 33.6909 16.0292C33.6023 15.2786 33.2051 14.7413 32.5149 14.3891C31.4609 13.8506 30.3246 13.7092 29.1743 13.5729C25.9391 13.1873 23.2077 11.7799 20.9661 9.42385C20.6113 9.05111 20.2566 8.72977 19.7013 8.86473C19.1422 9.00098 18.9931 9.45727 18.8543 9.95213C18.0831 12.6963 16.3491 14.5472 13.6435 15.4675C12.7335 15.7773 12.4816 16.0755 12.524 17.0536C12.5908 18.623 13.2373 19.9546 14.2656 21.1256C14.4725 21.3608 14.6576 21.6667 14.7206 21.9675C15.1178 23.8736 15.8337 25.6538 17.0214 27.186C17.5612 27.8826 17.6049 28.479 17.3183 29.0818C16.3569 29.1512 15.4558 29.2823 14.56 29.2515L14.5612 29.2502ZM24.9931 28.5497C23.5406 29.7116 22.574 29.7361 21.0715 28.6358C18.5548 26.7914 17.0162 24.3248 16.5047 21.2413C16.4134 20.6886 16.2052 20.2683 15.7643 19.9058C15.0432 19.3133 14.6216 18.5202 14.5111 17.587C14.4931 17.4367 14.5857 17.1655 14.6949 17.1218C17.3671 16.0613 19.218 14.177 20.3645 11.4753C22.263 13.1963 24.3504 14.4097 26.7463 15.0099C27.9365 15.3081 29.182 15.3865 30.3786 15.6629C32.0817 16.0562 32.1344 16.0279 31.6601 17.8274C31.4326 18.6912 30.9545 19.4251 30.2925 20.0498C30.056 20.2734 29.8876 20.6217 29.8028 20.9443C28.9969 23.988 27.466 26.569 24.9918 28.5484L24.9931 28.5497ZM19.4789 45.2604C18.6872 44.101 17.8954 42.9429 17.1049 41.7836C16.7296 41.2347 16.3491 40.6897 15.9854 40.1345C15.709 39.7129 15.3363 39.5471 14.8389 39.5869C14.3145 39.6293 13.7875 39.6422 13.1165 39.6756C14.2515 37.8337 15.3273 36.0869 16.4751 34.2245C17.5381 37.9854 18.5599 41.5998 19.5831 45.2141L19.4802 45.2604H19.4789ZM23.056 50.038C23.0072 50.0431 22.9571 50.047 22.9082 50.0521C22.0882 47.155 21.2681 44.2578 20.4378 41.3208H25.5175C24.691 44.2476 23.8735 47.1434 23.056 50.038ZM25.6679 39.4005C23.8684 39.425 22.0676 39.425 20.2681 39.4005C20.11 39.398 19.8581 39.1949 19.8118 39.0368C19.2039 36.9764 18.6242 34.907 18.0445 32.8376C18.0047 32.6975 17.9738 32.5188 18.0252 32.3954C18.4108 31.4828 18.8196 30.5793 19.2283 29.6551C22.0779 31.8864 24.1267 31.7283 26.529 29.7913C26.7257 30.3286 26.8851 30.8659 27.1164 31.3697C27.3002 31.7682 27.5843 32.1204 27.7977 32.5073C27.8709 32.6409 27.9185 32.835 27.8799 32.9751C27.3157 35.0072 26.7424 37.0381 26.1434 39.0599C26.0984 39.2116 25.8337 39.398 25.6679 39.4005ZM32.8002 39.601C32.2411 39.601 31.7437 39.6422 31.2552 39.5908C30.6357 39.5265 30.2244 39.7424 29.8812 40.2617C28.8902 41.763 27.8632 43.2398 26.8491 44.7257C26.7295 44.9005 26.601 45.0702 26.4776 45.2424C26.4455 45.227 26.4121 45.2128 26.3799 45.1974C27.4043 41.5792 28.4275 37.961 29.484 34.2283C30.619 36.0676 31.6935 37.8067 32.8002 39.5998V39.601Z" fill="#48A225"/>
</g>
<defs>
<clipPath id="clip0_1091_1018">
<rect width="44.693" height="51.8779" fill="white" transform="translate(0.654053 0.368896)"/>
</clipPath>
</defs>
</svg>
