<svg width="66" height="68" viewBox="0 0 66 68" fill="none" xmlns="http://www.w3.org/2000/svg">
<g clip-path="url(#clip0_363_1505)">
<path d="M63.2243 46.8731C64.7931 45.5475 65.6258 44.1252 65.7707 42.5231C65.9389 40.6645 65.9789 38.7177 65.8956 36.566C65.8373 35.0887 65.0546 33.8314 63.6307 32.9287C62.2168 32.0327 60.5763 31.673 58.7611 31.8629C58.4563 31.8945 58.1549 31.9428 57.8351 31.9928C57.7169 32.0111 57.5953 32.0311 57.472 32.0494V25.6443C57.472 17.7686 57.4704 9.62642 57.4837 1.61751C57.4837 1.06792 57.4004 0.448394 56.7742 0.0137243L56.7526 -0.00126429H55.9066L55.8849 0.0137243C55.2571 0.445063 55.1738 1.06626 55.1755 1.61751C55.1888 9.55481 55.1888 17.627 55.1871 25.4311V31.7446C55.0439 31.7646 54.9023 31.7813 54.7658 31.7962C54.4227 31.8362 54.0996 31.8745 53.7798 31.9478C51.8013 32.4008 50.5873 33.6848 50.1676 35.7682C49.678 38.1997 49.8012 40.6961 49.9711 43.046C50.061 44.2884 50.5956 45.4675 51.6082 46.6533C51.9179 47.0147 52.0395 47.3744 52.0162 47.8524C51.9945 48.297 51.9995 48.74 52.0045 49.2063C52.0062 49.3879 52.0079 49.5744 52.0095 49.7626C50.9836 50.0007 50.8937 50.8085 50.9437 51.5712C50.972 52.0026 50.9636 52.4306 50.9403 52.8453C50.4873 51.035 49.8462 49.4545 48.9885 48.0272C47.9776 46.3485 46.7469 44.9396 45.3279 43.8404C44.8999 43.509 44.7417 43.1676 44.7434 42.5797C44.7567 34.739 44.77 24.3935 44.75 13.9015C44.7434 10.674 43.7008 7.66624 41.7323 5.20478C39.7672 2.74665 37.0625 1.06126 33.9133 0.333481C33.5336 0.245215 33.1439 0.171937 32.7658 0.100325C32.5876 0.0670172 32.4111 0.0337091 32.2179 -0.00292969H25.1782C25.1183 0.0120589 25.0567 0.0237167 24.9967 0.0353745C24.8652 0.062021 24.7303 0.0886674 24.5987 0.123641C24.2073 0.226896 23.8026 0.321824 23.4129 0.413421C22.492 0.628257 21.5393 0.851421 20.66 1.21781C19.2711 1.79737 18.2185 2.13545 17.141 2.35195C12.0083 3.3795 8.55754 7.6296 8.55421 12.9289C8.54755 23.0662 8.54921 33.1152 8.56087 42.7979C8.56087 43.2176 8.44096 43.469 8.11621 43.7272C5.0602 46.152 3.15998 49.178 2.46883 52.722C1.81433 56.0845 1.24976 59.5218 0.70351 62.846C0.500331 64.0784 0.298817 65.3124 0.0923076 66.5432C0.0290224 66.9212 0.0973039 67.2743 0.28716 67.5374C0.458696 67.7772 0.713502 67.9305 1.02493 67.9804C1.09821 67.9921 1.16982 67.9987 1.23977 67.9987C1.82932 67.9987 2.25566 67.5791 2.37391 66.8596C2.60873 65.4374 2.84022 63.9901 3.06172 62.5895C3.50638 59.7933 3.9677 56.9005 4.48564 54.0693C5.50486 48.4936 8.80902 44.798 14.3098 43.0827C14.6862 42.9661 15.0676 42.8911 15.5106 42.8062C15.6671 42.7762 15.8303 42.7446 16.0002 42.7096C15.9819 42.7396 15.9636 42.7679 15.9486 42.7946C15.877 42.9111 15.827 42.9911 15.7737 43.0693C15.4973 43.4757 15.2175 43.8787 14.9394 44.2834C14.3265 45.1711 13.692 46.0904 13.0908 47.008C12.8143 47.4294 12.7227 47.7624 12.801 48.0589C12.8793 48.3553 13.1291 48.6035 13.5871 48.8366C14.0151 49.0548 14.4614 49.248 14.8944 49.4328L14.9144 49.4412C16.0985 49.9508 17.2859 50.4571 18.4867 50.97L19.784 51.5246L19.3876 52.3057C19.0496 52.9718 18.7215 53.618 18.3967 54.2642C17.9154 55.2201 17.9804 55.5549 18.7831 56.251L19.9805 57.2902C21.6359 58.7291 23.3496 60.2163 25.0517 61.6586C25.3997 61.9533 25.5313 62.2514 25.5213 62.7194C25.4963 63.8319 25.503 64.9611 25.5097 66.0552L25.513 66.6298C25.5163 67.4525 25.946 67.9738 26.6321 67.9871C26.9402 67.9937 27.2117 67.8938 27.4099 67.699C27.6597 67.4558 27.7929 67.0761 27.7946 66.6048V66.2334C27.8013 65.0527 27.8079 63.8319 27.7879 62.6295C27.7813 62.2248 27.8879 61.9816 28.181 61.7352C29.7065 60.4495 31.2436 59.1288 32.7325 57.8514C33.3137 57.3535 33.8933 56.8539 34.4745 56.3559C35.3422 55.6132 35.4038 55.3001 34.8825 54.2658C34.5528 53.6097 34.2214 52.9535 33.8883 52.2907L33.5319 51.5829L33.7184 51.4996C33.8883 51.423 34.0365 51.3564 34.1864 51.2914C34.731 51.0533 35.2756 50.8168 35.8202 50.5803C37.0742 50.0357 38.3699 49.4728 39.6356 48.8983C40.1735 48.6551 40.465 48.392 40.5549 48.0755C40.6448 47.7591 40.5349 47.3827 40.2085 46.8931C39.6456 46.0504 39.056 45.2027 38.4881 44.385C38.2233 44.0036 37.9569 43.6223 37.6937 43.2392C37.6071 43.1143 37.5239 42.9894 37.4289 42.8445L37.3773 42.7662C42.7832 43.3675 47.6245 47.8807 48.682 53.3365C49.1151 55.5682 49.4798 57.8531 49.8328 60.0614C50.0244 61.2572 50.2209 62.4929 50.4257 63.7053C50.6156 64.8195 50.8387 65.9669 51.1085 67.2127C51.2601 67.9105 51.863 67.9954 52.3026 67.9987C52.8955 68.0021 52.9988 67.5374 53.0737 67.196C53.182 66.7064 53.2319 66.305 53.2336 65.9336C53.2403 62.5096 53.2386 59.0289 53.2369 55.6631V52.1458H61.5473V54.7688C61.5473 58.6292 61.5473 62.4896 61.5473 66.3483C61.5473 66.4016 61.5473 66.4566 61.5439 66.5115C61.5406 66.6814 61.5356 66.8563 61.5689 67.0245C61.6838 67.6007 62.0669 67.9421 62.6464 67.9821C63.206 68.0204 63.714 67.6007 63.8089 67.0278C63.8372 66.8529 63.8355 66.6731 63.8322 66.4999C63.8322 66.4516 63.8322 66.4016 63.8322 66.3533C63.8322 65.0177 63.8322 63.682 63.8322 62.348C63.8322 58.7774 63.8289 55.0852 63.8455 51.453C63.8489 50.7035 63.719 49.9841 62.7747 49.7776C62.7747 49.5961 62.778 49.4195 62.7797 49.2447C62.7863 48.7933 62.7913 48.367 62.7663 47.9373C62.7397 47.481 62.8729 47.1729 63.2293 46.8731H63.2243ZM60.4814 49.0798C60.4798 49.3079 60.4764 49.5378 60.4764 49.7709H54.2911C54.2911 49.5178 54.2961 49.2646 54.2994 49.0132C54.3094 48.3487 54.3194 47.6625 54.2678 46.9947C54.2328 46.5434 54.033 46.0438 53.7582 45.7223C52.6191 44.3867 52.1128 43.0893 52.1627 41.6371C52.1827 41.0642 52.1894 40.4796 52.1944 39.9151C52.206 38.8326 52.2177 37.7134 52.3259 36.6242C52.4775 35.0871 53.3269 34.2111 54.7191 34.1445C53.973 35.9281 54.048 37.8017 54.1213 39.6153C54.1362 39.9817 54.1512 40.3464 54.1596 40.7111C54.1945 42.2516 55.5868 43.6106 57.1373 43.6189C57.1423 43.6189 57.1473 43.6189 57.1523 43.6189C57.9483 43.6189 58.458 43.2376 58.5196 42.598C58.5862 41.9069 58.1215 41.4256 57.3088 41.3373C56.9058 41.294 56.4262 41.1175 56.4262 40.518V40.3481C56.4262 38.9525 56.4262 37.5086 56.5544 36.1013C56.6627 34.9172 57.1156 34.4559 58.423 34.2028C59.7636 33.9429 60.9994 34.1078 62.0935 34.6907C63.1477 35.252 63.6757 36.128 63.664 37.2937C63.6607 37.5619 63.6557 37.83 63.6507 38.0981C63.634 38.9008 63.6174 39.7302 63.6757 40.5429C63.8172 42.5164 63.0578 44.1202 61.3524 45.4492C60.6946 45.9621 60.4281 46.5417 60.4648 47.3844C60.4897 47.944 60.4831 48.4969 60.4781 49.0814L60.4814 49.0798ZM11.472 21.9321C11.7235 21.6873 12.1448 21.4025 12.7527 21.3958V25.3961C11.6185 25.2912 10.8325 24.4651 10.8308 23.3627C10.8308 22.8664 11.0756 22.3184 11.472 21.9321ZM30.8689 50.5553C30.7523 50.8718 30.829 51.2631 31.1287 51.8627C31.4801 52.5688 31.8315 53.2733 32.1912 53.9894L32.6492 54.907L27.7929 59.0705C27.7946 58.7291 27.8013 58.3994 27.8062 58.0763C27.8212 57.2702 27.8362 56.5091 27.7763 55.7514C27.5947 53.4215 28.0211 51.1965 29.077 48.9515C29.7648 47.491 30.3493 45.9555 30.9172 44.4699C31.0954 44.0003 31.2753 43.5307 31.4568 43.0627C31.595 42.7096 31.7216 42.5414 32.0697 42.5414C32.0997 42.5414 32.1313 42.5414 32.1663 42.5448C32.4394 42.5647 32.7292 42.5447 33.009 42.5248C33.5119 42.4881 33.9866 42.4548 34.3463 42.643C34.7443 42.8512 35.0258 43.3341 35.2956 43.7988C35.4088 43.9953 35.5271 44.1985 35.6536 44.38C36.1299 45.0645 36.5996 45.754 37.0809 46.4568L37.6388 47.2712L36.0233 47.9623C34.6461 48.5518 33.2954 49.1314 31.9448 49.7076C31.3069 49.9791 30.9855 50.2322 30.8673 50.5537L30.8689 50.5553ZM21.0764 54.0727C21.4078 53.4132 21.7375 52.7537 22.0639 52.0942C22.417 51.3814 22.5819 50.9267 22.4503 50.562C22.3171 50.1956 21.8924 49.9508 21.1563 49.6277C19.8773 49.0665 18.6199 48.5285 17.2892 47.959C16.7513 47.7291 16.2101 47.4977 15.6638 47.2628C15.907 46.9098 16.1518 46.5617 16.3949 46.217C17.0228 45.3276 17.614 44.4883 18.1536 43.589C18.6449 42.7679 19.2011 42.4715 20.1371 42.5298L20.3552 42.5431C21.2279 42.5964 21.838 43.0582 22.1855 43.9287L23.0449 46.0771C23.7976 47.959 24.5504 49.8409 25.3032 51.7378C25.3964 51.9742 25.4947 52.2174 25.4963 52.4489C25.508 54.1376 25.508 55.818 25.5063 57.5966V59.0605L20.655 54.9104L21.0764 54.0693V54.0727ZM21.2529 39.7152C21.2529 39.8684 21.2546 40.0233 21.2529 40.1749C21.2529 40.1815 21.2446 40.1965 21.2362 40.2082C20.7083 40.2282 20.182 40.2432 19.6541 40.2582C18.435 40.2931 17.176 40.3298 15.9403 40.4264C14.3481 40.5513 12.7377 41.0359 10.8808 41.9502V27.2963L12.8726 27.7993C12.9925 28.1523 13.1091 28.5187 13.2207 28.8718C13.4805 29.6928 13.7486 30.5422 14.1067 31.3416C15.474 34.381 17.7339 36.6442 20.8232 38.0698C21.1913 38.2397 21.3062 38.4195 21.2745 38.7809C21.2479 39.0924 21.2496 39.4088 21.2529 39.7152ZM35.0408 21.8288C35.0308 23.2328 33.88 24.3702 32.4727 24.3702C32.4677 24.3702 32.461 24.3702 32.4561 24.3702C31.0488 24.3619 29.908 23.2028 29.9146 21.7855C29.918 21.106 30.1894 20.4665 30.6791 19.9836C31.1637 19.5072 31.7982 19.2441 32.4677 19.2441C32.4777 19.2441 32.4877 19.2441 32.496 19.2441C33.9099 19.2591 35.0507 20.4182 35.0391 21.8272L35.0408 21.8288ZM19.0096 19.9935C19.4942 19.5106 20.1321 19.2441 20.8066 19.2441H20.8199C22.2338 19.2508 23.3829 20.4032 23.3813 21.8105C23.3796 23.2211 22.2288 24.3686 20.8149 24.3686C19.406 24.3686 18.2585 23.2161 18.2552 21.8005C18.2552 21.121 18.5216 20.4782 19.0096 19.9919V19.9935ZM25.8977 13.9565C26.5206 13.9598 27.1534 13.9565 27.7646 13.9498C28.6706 13.9431 29.6082 13.9365 30.5292 13.9548C33.4803 14.0148 36.2298 16.0032 37.2158 18.7928C37.2391 18.8577 37.2574 18.926 37.2774 18.9993C37.2807 19.011 37.284 19.0243 37.2874 19.0376C36.7911 19.1525 36.4697 19.0409 36.1199 18.6412C35.1324 17.5138 33.7401 16.8992 32.3012 16.9542C30.8506 17.0108 29.4983 17.7386 28.5923 18.9543C28.3692 19.2524 28.2176 19.2857 27.8146 19.2474C27.5631 19.2225 27.31 19.2141 27.0568 19.2141C26.787 19.2141 26.5156 19.2241 26.2508 19.2325C25.946 19.2424 25.6329 19.2541 25.3248 19.2508C25.1399 19.2491 24.8985 19.1808 24.8135 19.0726C23.8026 17.7702 22.4586 17.0191 21.0297 16.9542C19.5758 16.8892 18.1369 17.5354 16.9828 18.7761C16.788 18.9843 16.4132 19.0426 15.9786 19.1092C15.7954 19.1375 15.6072 19.1658 15.419 19.2091C16.0302 16.1848 17.2293 13.6867 19.1845 11.3618C20.8299 13.1154 22.9649 13.9398 25.8977 13.9531V13.9565ZM21.2795 26.6452C23.6727 26.4087 25.5013 24.4901 25.6262 22.0853C25.6546 21.5357 25.8661 21.4225 26.3307 21.3758C27.2667 21.2826 27.4965 21.4458 27.688 22.3451C28.2059 24.7716 30.2994 26.3804 32.7691 26.2588C35.1274 26.1422 37.0825 24.227 37.3174 21.8022C37.3273 21.7022 37.3323 21.6007 37.3407 21.4841L37.3473 21.3742H38.1567C38.1567 21.3742 38.17 21.3875 38.1767 21.3941C38.185 21.4008 38.1934 21.4108 38.2 21.4175C38.1784 22.0803 38.1767 22.7564 38.175 23.4126C38.1734 24.8832 38.17 26.402 37.9269 27.8526C36.9976 33.3617 31.8915 37.3304 26.0443 37.0839C20.4585 36.8474 15.7004 32.3575 15.2142 26.8633C15.1042 25.6259 15.1325 24.4019 15.1625 23.1062C15.1758 22.5549 15.1875 21.9837 15.1892 21.4158H15.9253C15.9469 21.5823 15.9652 21.7472 15.9836 21.9121C16.0269 22.3135 16.0718 22.7281 16.1784 23.1212C16.7813 25.3578 18.9746 26.8733 21.2795 26.6452ZM42.4651 17.5804C42.4585 18.1932 42.4501 18.8261 42.4485 19.4406C42.2469 19.4107 42.0454 19.3807 41.8472 19.3524C41.2044 19.2591 40.5965 19.1708 39.9887 19.0493C39.8554 19.0226 39.6955 18.8178 39.6023 18.6379C39.4258 18.2965 39.2625 17.9368 39.1043 17.5887C38.8046 16.9242 38.4931 16.2381 38.0668 15.6435C36.2515 13.1054 33.7051 11.7681 30.4992 11.6715C29.3884 11.6382 28.2592 11.6449 27.1651 11.6515C26.5422 11.6549 25.8994 11.6599 25.2665 11.6565C23.2231 11.6449 21.5593 10.8155 20.3169 9.19175C19.9539 8.71711 19.6225 8.48729 19.2727 8.46897C18.928 8.44898 18.5816 8.63717 18.1836 9.05519C15.6205 11.7498 13.9385 14.9757 13.1874 18.6412C13.1657 18.7462 13.1391 18.8511 13.1191 18.931L13.1107 18.961L10.7242 19.5322C10.7559 18.6629 10.7642 17.7786 10.7725 16.9209C10.7925 14.9257 10.8125 12.8606 11.1323 10.8855C11.7118 7.30652 14.986 4.57859 18.9163 4.39873C19.2911 4.38207 19.6891 4.26216 20.0088 4.07231C22.0306 2.87155 24.244 2.26535 26.6005 2.26535C26.8337 2.26535 27.0685 2.27201 27.3033 2.28367C27.9711 2.31697 28.6556 2.32364 29.3151 2.3303C30.6308 2.34362 31.9931 2.35694 33.2904 2.5851C38.26 3.46111 42.1903 7.99766 42.4318 13.1388C42.5017 14.6243 42.4834 16.1265 42.4651 17.5804ZM23.5029 39.0241C25.6945 39.4804 27.6963 39.4787 29.7814 39.0158C29.7714 39.2523 29.7748 39.4871 29.7764 39.7152C29.7831 40.2731 29.7881 40.8011 29.6249 41.2641C28.9637 43.141 28.2243 45.0262 27.5098 46.8498C27.2417 47.531 26.9752 48.2121 26.7121 48.8949H26.5938C26.329 48.2138 26.0609 47.5343 25.7928 46.8565C25.0783 45.0512 24.3406 43.1843 23.6827 41.324C23.5162 40.8544 23.5162 40.3181 23.5162 39.7502C23.5162 39.5137 23.5162 39.2706 23.5045 39.0241H23.5029ZM32.033 40.2915C32.033 40.1299 32.0297 39.9734 32.0264 39.8185C32.018 39.3588 32.0114 38.9242 32.0564 38.4962C32.0697 38.3696 32.3045 38.1814 32.5243 38.0731C36.2015 36.2662 38.683 33.3834 39.8987 29.503C40.027 29.095 40.1236 28.6819 40.2168 28.2839C40.2535 28.1257 40.2901 27.9692 40.3284 27.8176L42.4451 27.288V41.9818C39.7905 40.5529 36.9426 40.2548 34.0015 40.2548C33.3504 40.2548 32.6942 40.2698 32.0347 40.2898L32.033 40.2915ZM40.5116 25.3928V21.4091C41.6124 21.4674 42.4451 22.2935 42.4618 23.3627C42.4801 24.4718 41.6641 25.3128 40.5116 25.3911V25.3928Z" fill="#4EABBA"/>
<path d="M26.7083 34.0832H26.7117H26.715C28.0656 33.9966 29.0132 33.5869 29.6994 32.7958C30.159 32.2645 30.1607 31.6533 29.7027 31.202C29.2614 30.7657 28.6635 30.7557 28.1056 31.177C27.0098 32.0031 26.297 32.0014 25.1745 31.1654C24.5949 30.7324 23.9488 30.774 23.5307 31.2703C23.1077 31.7716 23.1744 32.4161 23.6973 32.9124C24.4983 33.6718 25.4826 34.0548 26.7083 34.0832Z" fill="#4EABBA"/>
</g>
<defs>
<clipPath id="clip0_363_1505">
<rect width="65.8733" height="68" fill="white" transform="translate(0.0634766)"/>
</clipPath>
</defs>
</svg>
